<svg width="1064" height="315" viewBox="0 0 1064 315" fill="none" xmlns="http://www.w3.org/2000/svg">
    <path d="M963.09 0.209961H136.97C131.447 0.209961 126.97 4.68711 126.97 10.21V295.79C126.97 301.313 131.447 305.79 136.97 305.79H963.09C968.613 305.79 973.09 301.313 973.09 295.79V10.21C973.09 4.68711 968.613 0.209961 963.09 0.209961Z" fill="white"/>
    <path d="M966.24 299.16C966.822 298.436 967.115 297.522 967.065 296.595C967.014 295.667 966.623 294.791 965.966 294.134C965.309 293.477 964.433 293.086 963.505 293.035C962.578 292.985 961.664 293.278 960.94 293.86L966.24 299.16Z" fill="#002858"/>
    <path d="M965.68 299.73L960.37 294.42C959.767 295.143 959.456 296.065 959.498 297.005C959.541 297.945 959.933 298.836 960.599 299.501C961.264 300.167 962.155 300.559 963.095 300.601C964.035 300.644 964.957 300.333 965.68 299.73V299.73Z" fill="#002858"/>
    <path d="M965.68 299.73L960.37 294.42C959.767 295.143 959.456 296.065 959.498 297.005C959.541 297.945 959.933 298.836 960.599 299.501C961.264 300.167 962.155 300.559 963.095 300.601C964.035 300.644 964.957 300.333 965.68 299.73V299.73Z" fill="#113C67"/>
    <path d="M965.68 6.99988C964.957 6.39688 964.035 6.08599 963.095 6.12833C962.155 6.17068 961.264 6.56319 960.599 7.22872C959.933 7.89425 959.541 8.78466 959.498 9.72491C959.456 10.6652 959.767 11.5872 960.37 12.3099L965.68 6.99988Z" fill="#002858"/>
    <path d="M966.24 7.57007L960.94 12.8701C961.664 13.4516 962.578 13.7453 963.505 13.6947C964.433 13.6442 965.309 13.253 965.966 12.5961C966.623 11.9393 967.014 11.063 967.065 10.1355C967.115 9.20796 966.822 8.29441 966.24 7.57007V7.57007Z" fill="#002858"/>
    <path d="M966.24 7.57007L960.94 12.8701C961.664 13.4516 962.578 13.7453 963.505 13.6947C964.433 13.6442 965.309 13.253 965.966 12.5961C966.623 11.9393 967.014 11.063 967.065 10.1355C967.115 9.20796 966.822 8.29441 966.24 7.57007V7.57007Z" fill="#113C67"/>
    <path d="M139.93 12.31C140.522 11.587 140.825 10.6696 140.779 9.73595C140.733 8.8023 140.342 7.91896 139.682 7.25736C139.022 6.59575 138.139 6.20307 137.206 6.15552C136.272 6.10797 135.354 6.40894 134.63 7.00002L139.93 12.31Z" fill="#002858"/>
    <path d="M139.37 12.8701L134.06 7.57007C133.469 8.29424 133.168 9.21216 133.216 10.1457C133.263 11.0793 133.656 11.9619 134.317 12.6222C134.979 13.2826 135.862 13.6736 136.796 13.7194C137.73 13.7652 138.647 13.4625 139.37 12.8701V12.8701Z" fill="#002858"/>
    <path d="M139.37 12.8701L134.06 7.57007C133.469 8.29424 133.168 9.21216 133.216 10.1457C133.263 11.0793 133.656 11.9619 134.317 12.6222C134.979 13.2826 135.862 13.6736 136.796 13.7194C137.73 13.7652 138.647 13.4625 139.37 12.8701V12.8701Z" fill="#113C67"/>
    <path d="M139.37 293.86C138.647 293.268 137.73 292.965 136.796 293.011C135.862 293.056 134.979 293.447 134.317 294.108C133.656 294.768 133.263 295.651 133.216 296.584C133.168 297.518 133.469 298.436 134.06 299.16L139.37 293.86Z" fill="#002858"/>
    <path d="M139.93 294.42L134.63 299.73C135.354 300.321 136.272 300.622 137.206 300.574C138.139 300.527 139.022 300.134 139.682 299.473C140.342 298.811 140.733 297.928 140.779 296.994C140.825 296.06 140.522 295.143 139.93 294.42V294.42Z" fill="#002858"/>
    <path d="M139.93 294.42L134.63 299.73C135.354 300.321 136.272 300.622 137.206 300.574C138.139 300.527 139.022 300.134 139.682 299.473C140.342 298.811 140.733 297.928 140.779 296.994C140.825 296.06 140.522 295.143 139.93 294.42V294.42Z" fill="#113C67"/>
    <path d="M948.2 18.0601H151.85C147.984 18.0601 144.85 21.1941 144.85 25.0601V280.95C144.85 284.816 147.984 287.95 151.85 287.95H948.2C952.066 287.95 955.2 284.816 955.2 280.95V25.0601C955.2 21.1941 952.066 18.0601 948.2 18.0601Z" fill="#002858"/>
    <g opacity="0.5">
    <path opacity="0.5" d="M144.85 36.0601H955.2" stroke="#587694" stroke-width="0.38" stroke-miterlimit="10"/>
    <path opacity="0.5" d="M144.85 54.0601H955.2" stroke="#587694" stroke-width="0.38" stroke-miterlimit="10"/>
    <path opacity="0.5" d="M144.85 72.0601H955.2" stroke="#587694" stroke-width="0.38" stroke-miterlimit="10"/>
    <path opacity="0.5" d="M955.2 90.0601H144.85" stroke="#587694" stroke-width="0.38" stroke-miterlimit="10"/>
    <path opacity="0.5" d="M144.85 108.06H955.2" stroke="#587694" stroke-width="0.38" stroke-miterlimit="10"/>
    <path opacity="0.5" d="M144.85 126.07H955.2" stroke="#587694" stroke-width="0.38" stroke-miterlimit="10"/>
    <path opacity="0.5" d="M144.85 144.07H955.2" stroke="#587694" stroke-width="0.38" stroke-miterlimit="10"/>
    <path opacity="0.5" d="M144.85 162.06H955.2" stroke="#587694" stroke-width="0.38" stroke-miterlimit="10"/>
    <path opacity="0.5" d="M144.85 180.13H955.2" stroke="#587694" stroke-width="0.38" stroke-miterlimit="10"/>
    <path opacity="0.5" d="M144.85 198.14H955.2" stroke="#587694" stroke-width="0.38" stroke-miterlimit="10"/>
    <path opacity="0.5" d="M144.85 216.14H955.2" stroke="#587694" stroke-width="0.38" stroke-miterlimit="10"/>
    <path opacity="0.5" d="M144.85 234.17H955.2" stroke="#587694" stroke-width="0.38" stroke-miterlimit="10"/>
    <path opacity="0.5" d="M144.85 252H955.2" stroke="#587694" stroke-width="0.38" stroke-miterlimit="10"/>
    <path opacity="0.5" d="M144.85 270H955.2" stroke="#587694" stroke-width="0.38" stroke-miterlimit="10"/>
    <path opacity="0.5" d="M576.79 287.94V18.0601" stroke="#587694" stroke-width="0.28" stroke-miterlimit="10"/>
    <path opacity="0.5" d="M594.91 287.94V18.0601" stroke="#587694" stroke-width="0.28" stroke-miterlimit="10"/>
    <path opacity="0.5" d="M558.79 287.94V18.0601" stroke="#587694" stroke-width="0.28" stroke-miterlimit="10"/>
    <path opacity="0.5" d="M540.79 287.94V18.0601" stroke="#587694" stroke-width="0.28" stroke-miterlimit="10"/>
    <path opacity="0.5" d="M522.79 287.94V18.0601" stroke="#587694" stroke-width="0.28" stroke-miterlimit="10"/>
    <path opacity="0.5" d="M504.79 287.94V18.0601" stroke="#587694" stroke-width="0.28" stroke-miterlimit="10"/>
    <path opacity="0.5" d="M486.79 287.94V18.0601" stroke="#587694" stroke-width="0.28" stroke-miterlimit="10"/>
    <path opacity="0.5" d="M468.79 287.94V18.0601" stroke="#587694" stroke-width="0.28" stroke-miterlimit="10"/>
    <path opacity="0.5" d="M450.79 287.94V18.0601" stroke="#587694" stroke-width="0.28" stroke-miterlimit="10"/>
    <path opacity="0.5" d="M432.79 287.94V18.0601" stroke="#587694" stroke-width="0.28" stroke-miterlimit="10"/>
    <path opacity="0.5" d="M414.79 287.94V18.0601" stroke="#587694" stroke-width="0.28" stroke-miterlimit="10"/>
    <path opacity="0.5" d="M396.79 287.94V18.0601" stroke="#587694" stroke-width="0.28" stroke-miterlimit="10"/>
    <path opacity="0.5" d="M378.79 287.94V18.0601" stroke="#587694" stroke-width="0.28" stroke-miterlimit="10"/>
    <path opacity="0.5" d="M360.79 287.94V18.0601" stroke="#587694" stroke-width="0.28" stroke-miterlimit="10"/>
    <path opacity="0.5" d="M342.79 287.94V18.0601" stroke="#587694" stroke-width="0.28" stroke-miterlimit="10"/>
    <path opacity="0.5" d="M324.79 287.94V18.0601" stroke="#587694" stroke-width="0.28" stroke-miterlimit="10"/>
    <path opacity="0.5" d="M306.79 287.94V18.0601" stroke="#587694" stroke-width="0.28" stroke-miterlimit="10"/>
    <path opacity="0.5" d="M180.85 287.94V18.0601" stroke="#587694" stroke-width="0.28" stroke-miterlimit="10"/>
    <path opacity="0.5" d="M198.91 287.94V18.0601" stroke="#587694" stroke-width="0.28" stroke-miterlimit="10"/>
    <path opacity="0.5" d="M216.91 287.94V18.0601" stroke="#587694" stroke-width="0.28" stroke-miterlimit="10"/>
    <path opacity="0.5" d="M234.91 287.94V18.0601" stroke="#587694" stroke-width="0.28" stroke-miterlimit="10"/>
    <path opacity="0.5" d="M252.91 287.94V18.0601" stroke="#587694" stroke-width="0.28" stroke-miterlimit="10"/>
    <path opacity="0.5" d="M270.91 287.94V18.0601" stroke="#587694" stroke-width="0.28" stroke-miterlimit="10"/>
    <path opacity="0.5" d="M288.91 287.94V18.0601" stroke="#587694" stroke-width="0.28" stroke-miterlimit="10"/>
    <path opacity="0.5" d="M162.85 287.94V18.0601" stroke="#587694" stroke-width="0.28" stroke-miterlimit="10"/>
    <path opacity="0.5" d="M918.84 287.94V18.0601" stroke="#587694" stroke-width="0.28" stroke-miterlimit="10"/>
    <path opacity="0.5" d="M936.97 287.94V18.0601" stroke="#587694" stroke-width="0.28" stroke-miterlimit="10"/>
    <path opacity="0.5" d="M900.84 287.94V18.0601" stroke="#587694" stroke-width="0.28" stroke-miterlimit="10"/>
    <path opacity="0.5" d="M882.84 287.94V18.0601" stroke="#587694" stroke-width="0.28" stroke-miterlimit="10"/>
    <path opacity="0.5" d="M864.84 287.94V18.0601" stroke="#587694" stroke-width="0.28" stroke-miterlimit="10"/>
    <path opacity="0.5" d="M846.85 287.94V18.0601" stroke="#587694" stroke-width="0.28" stroke-miterlimit="10"/>
    <path opacity="0.5" d="M828.85 287.94V18.0601" stroke="#587694" stroke-width="0.28" stroke-miterlimit="10"/>
    <path opacity="0.5" d="M810.85 287.94V18.0601" stroke="#587694" stroke-width="0.28" stroke-miterlimit="10"/>
    <path opacity="0.5" d="M792.85 287.94V18.0601" stroke="#587694" stroke-width="0.28" stroke-miterlimit="10"/>
    <path opacity="0.5" d="M774.85 287.94V18.0601" stroke="#587694" stroke-width="0.28" stroke-miterlimit="10"/>
    <path opacity="0.5" d="M756.85 287.94V18.0601" stroke="#587694" stroke-width="0.28" stroke-miterlimit="10"/>
    <path opacity="0.5" d="M738.85 287.94V18.0601" stroke="#587694" stroke-width="0.28" stroke-miterlimit="10"/>
    <path opacity="0.5" d="M720.85 287.94V18.0601" stroke="#587694" stroke-width="0.28" stroke-miterlimit="10"/>
    <path opacity="0.5" d="M702.85 287.94V18.0601" stroke="#587694" stroke-width="0.28" stroke-miterlimit="10"/>
    <path opacity="0.5" d="M684.85 287.94V18.0601" stroke="#587694" stroke-width="0.28" stroke-miterlimit="10"/>
    <path opacity="0.5" d="M666.85 287.94V18.0601" stroke="#587694" stroke-width="0.28" stroke-miterlimit="10"/>
    <path opacity="0.5" d="M648.85 287.94V18.0601" stroke="#587694" stroke-width="0.28" stroke-miterlimit="10"/>
    <path opacity="0.5" d="M630.85 287.94V18.0601" stroke="#587694" stroke-width="0.28" stroke-miterlimit="10"/>
    <path opacity="0.5" d="M612.85 287.94V18.0601" stroke="#587694" stroke-width="0.28" stroke-miterlimit="10"/>
    </g>
    <path d="M978.48 269.87H1026.34C1028.99 269.87 1031.54 268.816 1033.41 266.941C1035.29 265.066 1036.34 262.522 1036.34 259.87V251.43" stroke="#5CA39A" stroke-miterlimit="10"/>
    <path d="M975.27 276.11H973.09V263.64H975.27C976.124 263.64 976.943 263.979 977.547 264.583C978.151 265.187 978.49 266.006 978.49 266.86V272.86C978.494 273.285 978.413 273.707 978.253 274.101C978.093 274.495 977.857 274.854 977.557 275.156C977.258 275.458 976.902 275.698 976.509 275.862C976.116 276.026 975.695 276.11 975.27 276.11V276.11Z" fill="white"/>
    <path d="M975.52 263.64H973.09V276.11L975.52 263.64Z" fill="#F2F2F2"/>
    <path d="M1030.18 249.83V247.65H1042.65V249.83C1042.65 250.253 1042.57 250.671 1042.4 251.062C1042.24 251.453 1042.01 251.808 1041.71 252.107C1041.41 252.406 1041.05 252.643 1040.66 252.805C1040.27 252.967 1039.85 253.05 1039.43 253.05H1033.43C1033 253.054 1032.58 252.974 1032.19 252.813C1031.79 252.653 1031.44 252.417 1031.13 252.117C1030.83 251.818 1030.59 251.462 1030.43 251.069C1030.26 250.676 1030.18 250.255 1030.18 249.83V249.83Z" fill="white"/>
    <path d="M1042.65 250.08V247.65H1030.18L1042.65 250.08Z" fill="#F2F2F2"/>
    <path d="M978.48 36.1099H1026.34C1028.99 36.1099 1031.54 37.1634 1033.41 39.0388C1035.29 40.9142 1036.34 43.4577 1036.34 46.1099V54.5499" stroke="#5CA39A" stroke-miterlimit="10"/>
    <path d="M975.27 42.3499H973.09V29.8799H975.27C976.124 29.8799 976.943 30.2191 977.547 30.823C978.151 31.4268 978.49 32.2459 978.49 33.0999V39.0999C978.494 39.5252 978.413 39.9472 978.253 40.3413C978.093 40.7354 977.857 41.094 977.557 41.3961C977.258 41.6983 976.902 41.9382 976.509 42.1019C976.116 42.2656 975.695 42.3499 975.27 42.3499V42.3499Z" fill="white"/>
    <path d="M975.52 42.3499H973.09V29.8799L975.52 42.3499Z" fill="#F2F2F2"/>
    <path d="M1042.65 56.1599V58.34H1030.18V56.1599C1030.18 55.3059 1030.52 54.4869 1031.12 53.8831C1031.73 53.2792 1032.55 52.9399 1033.4 52.9399H1039.4C1040.25 52.9399 1041.07 53.2792 1041.68 53.8831C1042.28 54.4869 1042.62 55.3059 1042.62 56.1599H1042.65Z" fill="white"/>
    <path d="M1042.65 55.8999V58.3299H1030.18L1042.65 55.8999Z" fill="#F2F2F2"/>
    <path d="M121.52 36.1099H64.8198C62.1677 36.1099 59.6241 37.1634 57.7487 39.0388C55.8734 40.9142 54.8198 43.4577 54.8198 46.1099V66.6699" stroke="#5CA39A" stroke-miterlimit="10"/>
    <path d="M124.73 29.8699H126.91V42.3399H124.73C123.876 42.3399 123.057 42.0006 122.453 41.3968C121.849 40.7929 121.51 39.9739 121.51 39.1199V33.1199C121.506 32.6945 121.586 32.2726 121.746 31.8784C121.906 31.4843 122.143 31.1258 122.442 30.8236C122.742 30.5214 123.098 30.2815 123.491 30.1178C123.883 29.9541 124.305 29.8699 124.73 29.8699V29.8699Z" fill="white"/>
    <path d="M124.48 42.3499H126.91V29.8799L124.48 42.3499Z" fill="#F2F2F2"/>
    <path d="M61.1399 69.8901V72.0701H48.6699V69.8901C48.6699 69.0361 49.0091 68.217 49.613 67.6132C50.2169 67.0093 51.0359 66.6701 51.8899 66.6701H57.8899C58.3153 66.6661 58.7372 66.7465 59.1313 66.9065C59.5255 67.0666 59.884 67.3031 60.1862 67.6025C60.4884 67.9019 60.7283 68.2582 60.892 68.6509C61.0556 69.0435 61.1399 69.4647 61.1399 69.8901V69.8901Z" fill="white"/>
    <path d="M48.6599 69.6399V72.0699H61.1399L48.6599 69.6399Z" fill="#F2F2F2"/>
    <path d="M121.52 252H64.8198C62.1677 252 59.6241 250.946 57.7487 249.071C55.8734 247.196 54.8198 244.652 54.8198 242V221.46" stroke="#5CA39A" stroke-miterlimit="10"/>
    <path d="M124.73 245.78H126.91V258.25H124.73C123.876 258.25 123.057 257.911 122.453 257.307C121.849 256.703 121.51 255.884 121.51 255.03V249.03C121.506 248.605 121.586 248.183 121.746 247.789C121.906 247.394 122.143 247.036 122.442 246.734C122.742 246.432 123.098 246.192 123.491 246.028C123.883 245.864 124.305 245.78 124.73 245.78V245.78Z" fill="white"/>
    <path d="M124.48 245.78H126.91V258.26L124.48 245.78Z" fill="#F2F2F2"/>
    <path d="M48.6699 218.24V216.06H61.1399V218.24C61.1399 218.663 61.0566 219.082 60.8948 219.472C60.733 219.863 60.4958 220.218 60.1968 220.517C59.8978 220.816 59.5428 221.053 59.1522 221.215C58.7615 221.377 58.3428 221.46 57.9199 221.46H51.9199C51.4945 221.464 51.0726 221.384 50.6785 221.224C50.2843 221.064 49.9258 220.827 49.6236 220.528C49.3214 220.228 49.0816 219.872 48.9179 219.479C48.7542 219.087 48.6699 218.665 48.6699 218.24V218.24Z" fill="white"/>
    <path d="M48.6599 218.5V216.07H61.1399L48.6599 218.5Z" fill="#F2F2F2"/>
    <path d="M1063.09 237.66V68.3299C1063.09 62.807 1058.61 58.3298 1053.09 58.3298H1019.09C1013.57 58.3298 1009.09 62.807 1009.09 68.3299V237.66C1009.09 243.183 1013.57 247.66 1019.09 247.66H1053.09C1058.61 247.66 1063.09 243.183 1063.09 237.66Z" fill="white"/>
    <path d="M1050.23 70.32C1050.95 70.923 1051.87 71.2339 1052.81 71.1916C1053.76 71.1492 1054.65 70.7567 1055.31 70.0912C1055.98 69.4256 1056.37 68.5352 1056.41 67.595C1056.45 66.6548 1056.14 65.7327 1055.54 65.01L1050.23 70.32Z" fill="#002858"/>
    <path d="M1049.66 69.7501L1054.97 64.4501C1054.25 63.8576 1053.33 63.5549 1052.4 63.6007C1051.46 63.6465 1050.58 64.0375 1049.92 64.6979C1049.26 65.3582 1048.86 66.2408 1048.82 67.1744C1048.77 68.108 1049.07 69.0259 1049.66 69.7501V69.7501Z" fill="#002858"/>
    <path d="M1049.66 69.7501L1054.97 64.4501C1054.25 63.8576 1053.33 63.5549 1052.4 63.6007C1051.46 63.6465 1050.58 64.0375 1049.92 64.6979C1049.26 65.3582 1048.86 66.2408 1048.82 67.1744C1048.77 68.108 1049.07 69.0259 1049.66 69.7501V69.7501Z" fill="#113C67"/>
    <path d="M1022.48 69.7501C1023.08 69.0274 1023.39 68.1053 1023.35 67.1651C1023.31 66.2248 1022.92 65.3344 1022.25 64.6689C1021.59 64.0034 1020.7 63.6109 1019.75 63.5685C1018.81 63.5262 1017.89 63.8371 1017.17 64.4401L1022.48 69.7501Z" fill="#002858"/>
    <path d="M1021.92 70.32L1016.61 65.01C1016.01 65.7327 1015.7 66.6548 1015.74 67.595C1015.78 68.5352 1016.17 69.4256 1016.84 70.0912C1017.5 70.7567 1018.39 71.1492 1019.33 71.1916C1020.28 71.2339 1021.2 70.923 1021.92 70.32V70.32Z" fill="#002858"/>
    <path d="M1021.92 70.32L1016.61 65.01C1016.01 65.7327 1015.7 66.6548 1015.74 67.595C1015.78 68.5352 1016.17 69.4256 1016.84 70.0912C1017.5 70.7567 1018.39 71.1492 1019.33 71.1916C1020.28 71.2339 1021.2 70.923 1021.92 70.32V70.32Z" fill="#113C67"/>
    <path d="M1021.91 234.26C1021.19 233.678 1020.27 233.385 1019.34 233.435C1018.42 233.486 1017.54 233.877 1016.88 234.534C1016.23 235.191 1015.84 236.067 1015.79 236.995C1015.73 237.922 1016.03 238.836 1016.61 239.56L1021.91 234.26Z" fill="#002858"/>
    <path d="M1022.48 234.82L1017.17 240.13C1017.89 240.733 1018.81 241.044 1019.75 241.002C1020.7 240.959 1021.59 240.567 1022.25 239.901C1022.92 239.236 1023.31 238.345 1023.35 237.405C1023.39 236.465 1023.08 235.543 1022.48 234.82V234.82Z" fill="#002858"/>
    <path d="M1022.48 234.82L1017.17 240.13C1017.89 240.733 1018.81 241.044 1019.75 241.002C1020.7 240.959 1021.59 240.567 1022.25 239.901C1022.92 239.236 1023.31 238.345 1023.35 237.405C1023.39 236.465 1023.08 235.543 1022.48 234.82V234.82Z" fill="#113C67"/>
    <path d="M1055.57 239.56C1056.16 238.836 1056.46 237.918 1056.41 236.984C1056.37 236.051 1055.97 235.168 1055.31 234.508C1054.65 233.847 1053.77 233.456 1052.83 233.411C1051.9 233.365 1050.98 233.667 1050.26 234.26L1055.57 239.56Z" fill="#002858"/>
    <path d="M1055 240.13L1049.7 234.82C1049.11 235.543 1048.8 236.46 1048.85 237.394C1048.9 238.328 1049.29 239.211 1049.95 239.873C1050.61 240.534 1051.49 240.927 1052.42 240.975C1053.36 241.022 1054.28 240.721 1055 240.13Z" fill="#002858"/>
    <path d="M1055 240.13L1049.7 234.82C1049.11 235.543 1048.8 236.46 1048.85 237.394C1048.9 238.328 1049.29 239.211 1049.95 239.873C1050.61 240.534 1051.49 240.927 1052.42 240.975C1053.36 241.022 1054.28 240.721 1055 240.13Z" fill="#113C67"/>
    <path d="M1033.76 117.23C1041.87 117.23 1048.45 110.653 1048.45 102.54C1048.45 94.4268 1041.87 87.8499 1033.76 87.8499C1025.65 87.8499 1019.07 94.4268 1019.07 102.54C1019.07 110.653 1025.65 117.23 1033.76 117.23Z" fill="#002858"/>
    <path d="M1033.76 166.61C1041.87 166.61 1048.45 160.033 1048.45 151.92C1048.45 143.807 1041.87 137.23 1033.76 137.23C1025.65 137.23 1019.07 143.807 1019.07 151.92C1019.07 160.033 1025.65 166.61 1033.76 166.61Z" fill="#002858"/>
    <path d="M1033.76 215.99C1041.87 215.99 1048.45 209.413 1048.45 201.3C1048.45 193.187 1041.87 186.61 1033.76 186.61C1025.65 186.61 1019.07 193.187 1019.07 201.3C1019.07 209.413 1025.65 215.99 1033.76 215.99Z" fill="#002858"/>
    <path d="M1036.42 117.23C1044.53 117.23 1051.11 110.653 1051.11 102.54C1051.11 94.4268 1044.53 87.8499 1036.42 87.8499C1028.31 87.8499 1021.73 94.4268 1021.73 102.54C1021.73 110.653 1028.31 117.23 1036.42 117.23Z" fill="#488079"/>
    <path d="M1038.42 117.23C1046.53 117.23 1053.11 110.653 1053.11 102.54C1053.11 94.4268 1046.53 87.8499 1038.42 87.8499C1030.31 87.8499 1023.73 94.4268 1023.73 102.54C1023.73 110.653 1030.31 117.23 1038.42 117.23Z" fill="#5CA39A"/>
    <path d="M1049.94 102.54C1049.94 105.595 1048.73 108.525 1046.57 110.686C1044.41 112.846 1041.48 114.06 1038.42 114.06" stroke="#55968E" stroke-linecap="round" stroke-linejoin="round"/>
    <path d="M1036.42 166.61C1044.53 166.61 1051.11 160.033 1051.11 151.92C1051.11 143.807 1044.53 137.23 1036.42 137.23C1028.31 137.23 1021.73 143.807 1021.73 151.92C1021.73 160.033 1028.31 166.61 1036.42 166.61Z" fill="#B39B40"/>
    <path d="M1038.42 166.61C1046.53 166.61 1053.11 160.033 1053.11 151.92C1053.11 143.807 1046.53 137.23 1038.42 137.23C1030.31 137.23 1023.73 143.807 1023.73 151.92C1023.73 160.033 1030.31 166.61 1038.42 166.61Z" fill="#E9CB53"/>
    <path d="M1049.94 151.92C1049.94 153.432 1049.64 154.93 1049.06 156.327C1048.48 157.724 1047.64 158.993 1046.57 160.062C1045.5 161.131 1044.23 161.979 1042.83 162.557C1041.43 163.134 1039.93 163.431 1038.42 163.43" stroke="#DCC04E" stroke-linecap="round" stroke-linejoin="round"/>
    <path d="M1036.42 215.99C1044.53 215.99 1051.11 209.413 1051.11 201.3C1051.11 193.187 1044.53 186.61 1036.42 186.61C1028.31 186.61 1021.73 193.187 1021.73 201.3C1021.73 209.413 1028.31 215.99 1036.42 215.99Z" fill="#DC8E0D"/>
    <path d="M1038.42 215.99C1046.53 215.99 1053.11 209.413 1053.11 201.3C1053.11 193.187 1046.53 186.61 1038.42 186.61C1030.31 186.61 1023.73 193.187 1023.73 201.3C1023.73 209.413 1030.31 215.99 1038.42 215.99Z" fill="#F69E0F"/>
    <path d="M1049.94 201.3C1049.94 202.812 1049.64 204.31 1049.06 205.707C1048.48 207.104 1047.64 208.373 1046.57 209.442C1045.5 210.511 1044.23 211.359 1042.83 211.937C1041.43 212.515 1039.93 212.811 1038.42 212.81" stroke="#E9960E" stroke-linecap="round" stroke-linejoin="round"/>
    <path d="M108.9 206.07L108.9 82.0701C108.9 76.5472 104.423 72.0701 98.8999 72.0701H10.9199C5.39706 72.0701 0.919907 76.5472 0.919907 82.0701L0.919907 206.07C0.919907 211.593 5.39706 216.07 10.9199 216.07H98.8999C104.423 216.07 108.9 211.593 108.9 206.07Z" fill="white"/>
    <path d="M96.0798 85.4699C96.8029 86.0624 97.7203 86.3651 98.6539 86.3193C99.5875 86.2735 100.471 85.8825 101.132 85.2221C101.794 84.5617 102.187 83.6791 102.234 82.7456C102.282 81.812 101.981 80.8941 101.39 80.1699L96.0798 85.4699Z" fill="#002858"/>
    <path d="M95.5199 84.9099L100.82 79.5999C100.096 79.0088 99.1778 78.7078 98.2442 78.7554C97.3107 78.8029 96.4281 79.1956 95.7677 79.8572C95.1074 80.5188 94.7163 81.4022 94.6705 82.3358C94.6248 83.2694 94.9274 84.1868 95.5199 84.9099V84.9099Z" fill="#002858"/>
    <path d="M95.5199 84.9099L100.82 79.5999C100.096 79.0088 99.1778 78.7078 98.2442 78.7554C97.3107 78.8029 96.4281 79.1956 95.7677 79.8572C95.1074 80.5188 94.7163 81.4022 94.6705 82.3358C94.6248 83.2694 94.9274 84.1868 95.5199 84.9099V84.9099Z" fill="#113C67"/>
    <path d="M14.33 84.91C14.9592 84.1891 15.2908 83.2559 15.2575 82.2996C15.2241 81.3433 14.8284 80.4354 14.1505 79.7601C13.4726 79.0847 12.5633 78.6924 11.6069 78.6627C10.6505 78.633 9.71853 78.9681 9 79.6L14.33 84.91Z" fill="#002858"/>
    <path d="M13.76 85.4699L8.44997 80.1699C7.85889 80.8941 7.55792 81.812 7.60547 82.7456C7.65302 83.6791 8.04571 84.5617 8.70732 85.2221C9.36892 85.8825 10.2523 86.2735 11.1859 86.3193C12.1196 86.3651 13.0369 86.0624 13.76 85.4699V85.4699Z" fill="#002858"/>
    <path d="M13.76 85.4699L8.44997 80.1699C7.85889 80.8941 7.55792 81.812 7.60547 82.7456C7.65302 83.6791 8.04571 84.5617 8.70732 85.2221C9.36892 85.8825 10.2523 86.2735 11.1859 86.3193C12.1196 86.3651 13.0369 86.0624 13.76 85.4699V85.4699Z" fill="#113C67"/>
    <path d="M13.7599 202.65C13.045 201.974 12.0939 201.604 11.1098 201.619C10.1258 201.635 9.18691 202.035 8.49364 202.733C7.80036 203.432 7.40771 204.374 7.39954 205.358C7.39138 206.342 7.76835 207.29 8.44994 208L13.7599 202.65Z" fill="#002858"/>
    <path d="M14.33 203.22L9 208.52C9.72305 209.112 10.6404 209.415 11.5741 209.369C12.5077 209.324 13.3911 208.933 14.0527 208.272C14.7143 207.612 15.1069 206.729 15.1545 205.796C15.202 204.862 14.9011 203.944 14.31 203.22H14.33Z" fill="#002858"/>
    <path d="M14.33 203.22L9 208.52C9.72305 209.112 10.6404 209.415 11.5741 209.369C12.5077 209.324 13.3911 208.933 14.0527 208.272C14.7143 207.612 15.1069 206.729 15.1545 205.796C15.202 204.862 14.9011 203.944 14.31 203.22H14.33Z" fill="#113C67"/>
    <path d="M101.36 208C101.963 207.277 102.274 206.355 102.231 205.415C102.189 204.475 101.796 203.584 101.131 202.919C100.465 202.253 99.575 201.861 98.6348 201.819C97.6945 201.776 96.7725 202.087 96.0498 202.69L101.36 208Z" fill="#002858"/>
    <path d="M100.79 208.52L95.4899 203.22C94.9084 203.944 94.6147 204.858 94.6653 205.785C94.7158 206.713 95.107 207.589 95.7639 208.246C96.4207 208.903 97.297 209.294 98.2245 209.345C99.152 209.395 100.066 209.102 100.79 208.52Z" fill="#002858"/>
    <path d="M100.79 208.52L95.4899 203.22C94.9084 203.944 94.6147 204.858 94.6653 205.785C94.7158 206.713 95.107 207.589 95.7639 208.246C96.4207 208.903 97.297 209.294 98.2245 209.345C99.152 209.395 100.066 209.102 100.79 208.52Z" fill="#113C67"/>
    <path d="M89.3199 145.66C90.2036 145.66 90.9199 144.946 90.9199 144.065C90.9199 143.184 90.2036 142.47 89.3199 142.47H20.5199C19.6363 142.47 18.9199 143.184 18.9199 144.065C18.9199 144.946 19.6363 145.66 20.5199 145.66H89.3199Z" fill="#474747"/>
    <path d="M90.9199 123.42V92.7198C90.9199 91.2563 89.7335 90.0698 88.2699 90.0698H21.5699C20.1064 90.0698 18.9199 91.2563 18.9199 92.7198V123.42C18.9199 124.883 20.1064 126.07 21.5699 126.07H88.2699C89.7335 126.07 90.9199 124.883 90.9199 123.42Z" fill="#002858"/>
    <path d="M85.6299 120.78V95.3699H24.1399V120.78H85.6299Z" fill="#73CCC1"/>
    <path d="M54.8699 120.77V95.3599H24.1199V120.77H54.8699Z" fill="#5CA39A"/>
    <path d="M28.0698 120.77V95.3599H24.1298V120.77H28.0698Z" fill="#488079"/>
    <path d="M90.9199 195.42V164.72C90.9199 163.257 89.7335 162.07 88.2699 162.07H21.5699C20.1064 162.07 18.9199 163.257 18.9199 164.72V195.42C18.9199 196.884 20.1064 198.07 21.5699 198.07H88.2699C89.7335 198.07 90.9199 196.884 90.9199 195.42Z" fill="#002858"/>
    <path d="M24.1299 167.36V192.77H85.6199V167.36H24.1299Z" fill="#F69E0F"/>
    <path d="M54.8699 167.36V192.77H85.6199V167.36H54.8699Z" fill="#E0910D"/>
    <path d="M81.6899 167.36V192.77H85.6299V167.36H81.6899Z" fill="#CC830D"/>
    <path d="M65.29 148.56V139.56C65.29 137.903 63.9469 136.56 62.29 136.56H27.13C25.4732 136.56 24.13 137.903 24.13 139.56V148.56C24.13 150.217 25.4732 151.56 27.13 151.56H62.29C63.9469 151.56 65.29 150.217 65.29 148.56Z" fill="#002858"/>
    <path d="M50.71 139.98V148.16" stroke="#468192" stroke-width="0.75" stroke-miterlimit="10"/>
    <path d="M44.71 139.98V148.16" stroke="#468192" stroke-width="0.75" stroke-miterlimit="10"/>
    <path d="M38.71 139.98V148.16" stroke="#468192" stroke-width="0.75" stroke-miterlimit="10"/>
    <path d="M520.84 108.42C520.725 108.42 520.615 108.375 520.533 108.295C520.45 108.214 520.403 108.105 520.4 107.99V89.4601H505.4V108C505.4 108.114 505.355 108.223 505.274 108.304C505.194 108.385 505.084 108.43 504.97 108.43C504.855 108.43 504.745 108.385 504.663 108.305C504.58 108.224 504.533 108.115 504.53 108V89.0001C504.53 88.9423 504.542 88.8851 504.564 88.8317C504.586 88.7783 504.618 88.7298 504.659 88.6889C504.7 88.6481 504.748 88.6157 504.802 88.5936C504.855 88.5714 504.912 88.5601 504.97 88.5601H520.8C520.915 88.5627 521.025 88.6102 521.105 88.6924C521.185 88.7746 521.23 88.8851 521.23 89.0001V108C521.228 108.106 521.187 108.207 521.115 108.285C521.043 108.362 520.946 108.41 520.84 108.42V108.42Z" fill="white" stroke="white" stroke-width="0.1" stroke-miterlimit="10"/>
    <path d="M695.32 114.51C695.168 114.51 695.017 114.49 694.87 114.45C693.43 114.08 692.19 112.01 691.07 108.11C688.27 98.35 687.74 97.2 687.72 97.11C687.49 96.47 686.72 94.8 685.82 94.8C685.36 94.8 684.14 95.34 682.63 100.13L680.38 106.59C680.026 107.762 679.248 108.761 678.198 109.391C677.148 110.022 675.901 110.239 674.7 110C674.538 109.966 674.377 109.923 674.22 109.87C671.827 108.995 669.307 108.518 666.76 108.46H641C640.885 108.46 640.775 108.415 640.693 108.335C640.61 108.254 640.563 108.145 640.56 108.03V69.5C640.56 69.3833 640.607 69.2714 640.689 69.1889C640.772 69.1064 640.883 69.06 641 69.06H653.25V60.38H617.84V69.06H630.09C630.207 69.06 630.319 69.1064 630.401 69.1889C630.484 69.2714 630.53 69.3833 630.53 69.5V108C630.528 108.115 630.48 108.224 630.398 108.305C630.316 108.385 630.205 108.43 630.09 108.43H610.43C610.317 108.427 610.209 108.381 610.129 108.301C610.049 108.221 610.003 108.113 610 108V60.38H599.92V108C599.918 108.115 599.87 108.224 599.788 108.305C599.706 108.385 599.595 108.43 599.48 108.43H574.31C574.196 108.43 574.087 108.385 574.006 108.304C573.925 108.223 573.88 108.114 573.88 108V98.88H553.81C553.695 98.8774 553.586 98.8299 553.505 98.7477C553.425 98.6654 553.38 98.555 553.38 98.44V89.24C553.38 89.125 553.425 89.0146 553.505 88.9324C553.586 88.8501 553.695 88.8026 553.81 88.8H570.81V79.8H553.81C553.696 79.8 553.587 79.7547 553.506 79.6741C553.425 79.5934 553.38 79.4841 553.38 79.37V69.47C553.38 69.355 553.425 69.2446 553.505 69.1624C553.586 69.0801 553.695 69.0326 553.81 69.03H573.25V60.35H543.25V108C543.25 108.114 543.205 108.223 543.124 108.304C543.044 108.385 542.934 108.43 542.82 108.43H531.78C531.666 108.43 531.557 108.385 531.476 108.304C531.395 108.223 531.35 108.114 531.35 108V60.38H521.27V79.19C521.27 79.3041 521.225 79.4134 521.144 79.4941C521.064 79.5747 520.954 79.62 520.84 79.62H505C504.885 79.62 504.775 79.5751 504.693 79.4947C504.61 79.4143 504.563 79.305 504.56 79.19V60.38H494.5V108C494.498 108.115 494.45 108.224 494.368 108.305C494.286 108.385 494.175 108.43 494.06 108.43H474.47C474.411 108.434 474.351 108.426 474.295 108.406C474.239 108.387 474.187 108.356 474.143 108.316C474.099 108.275 474.064 108.227 474.039 108.173C474.015 108.118 474.001 108.06 474 108V69.5C474 69.3833 474.047 69.2714 474.129 69.1889C474.212 69.1064 474.323 69.06 474.44 69.06H486.69V60.38H451.27V69.06H463.52C463.637 69.06 463.749 69.1064 463.831 69.1889C463.914 69.2714 463.96 69.3833 463.96 69.5V108C463.958 108.115 463.91 108.224 463.828 108.305C463.746 108.385 463.635 108.43 463.52 108.43H426C425.69 108.43 418.3 108.37 416.77 102.81L414.48 92.7C414.283 91.7534 413.873 90.8642 413.28 90.1C412.86 89.57 412.28 88.96 411.63 89.1C410.98 89.24 409.84 90.36 408.9 95.9C408.076 101.32 406.974 106.693 405.6 112C405.42 112.647 405.076 113.236 404.6 113.71C404.353 114.006 404.029 114.23 403.665 114.357C403.3 114.483 402.908 114.509 402.53 114.43C401.1 114.06 399.86 111.99 398.74 108.09C395.93 98.33 395.4 97.18 395.38 97.09C395.16 96.45 394.38 94.78 393.49 94.78C393.04 94.78 391.81 95.32 390.3 100.11L388.05 106.57C387.7 107.74 386.929 108.738 385.885 109.372C384.841 110.006 383.6 110.23 382.4 110C382.241 109.966 382.084 109.923 381.93 109.87C379.534 108.994 377.011 108.517 374.46 108.46H321.61C321.506 108.444 321.411 108.392 321.343 108.312C321.274 108.232 321.236 108.13 321.236 108.025C321.236 107.92 321.274 107.818 321.343 107.738C321.411 107.658 321.506 107.606 321.61 107.59H374.46C377.106 107.646 379.725 108.139 382.21 109.05L382.59 109.15C383.568 109.329 384.577 109.15 385.433 108.644C386.289 108.139 386.934 107.342 387.25 106.4L389.49 99.95C390.75 95.95 392.06 94.04 393.49 94.02C395.15 94.02 396.08 96.57 396.19 96.86C396.19 96.86 396.73 98 399.57 107.86C400.9 112.49 402.13 113.45 402.75 113.6C402.979 113.639 403.215 113.615 403.432 113.531C403.649 113.446 403.838 113.304 403.98 113.12C404.336 112.743 404.591 112.282 404.72 111.78C406.09 106.507 407.185 101.167 408 95.78C408.79 91.11 409.89 88.66 411.37 88.28C412.22 88.06 413.07 88.5 413.93 89.57C414.6 90.4384 415.065 91.4468 415.29 92.52L417.58 102.61C418.92 107.5 425.89 107.61 425.96 107.61H463.05V69.93H450.83C450.716 69.93 450.607 69.8847 450.526 69.8041C450.445 69.7234 450.4 69.6141 450.4 69.5V59.94C450.4 59.826 450.445 59.7166 450.526 59.636C450.607 59.5553 450.716 59.51 450.83 59.51H487.16C487.275 59.51 487.386 59.555 487.468 59.6353C487.55 59.7157 487.598 59.8251 487.6 59.94V69.5C487.598 69.615 487.55 69.7243 487.468 69.8047C487.386 69.8851 487.275 69.93 487.16 69.93H474.91V107.55H493.63V59.94C493.63 59.826 493.675 59.7166 493.756 59.636C493.837 59.5553 493.946 59.51 494.06 59.51H505.06C505.174 59.51 505.284 59.5553 505.364 59.636C505.445 59.7166 505.49 59.826 505.49 59.94V78.75H520.49V59.94C520.493 59.8251 520.54 59.7157 520.623 59.6353C520.705 59.555 520.815 59.51 520.93 59.51H531.87C531.985 59.51 532.096 59.555 532.178 59.6353C532.26 59.7157 532.308 59.8251 532.31 59.94V107.55H542.52V59.94C542.523 59.8251 542.57 59.7157 542.653 59.6353C542.735 59.555 542.845 59.51 542.96 59.51H573.78C573.894 59.51 574.004 59.5553 574.084 59.636C574.165 59.7166 574.21 59.826 574.21 59.94V69.5C574.21 69.6141 574.165 69.7234 574.084 69.8041C574.004 69.8847 573.894 69.93 573.78 69.93H554.25V78.93H571.25C571.365 78.9326 571.475 78.9801 571.555 79.0624C571.635 79.1446 571.68 79.255 571.68 79.37V89.2C571.68 89.315 571.635 89.4254 571.555 89.5077C571.475 89.5899 571.365 89.6374 571.25 89.64H554.25V98H574.31C574.425 98 574.536 98.045 574.618 98.1253C574.7 98.2057 574.748 98.3151 574.75 98.43V107.55H599.05V59.94C599.05 59.826 599.096 59.7166 599.176 59.636C599.257 59.5553 599.366 59.51 599.48 59.51H610.43C610.544 59.51 610.654 59.5553 610.734 59.636C610.815 59.7166 610.86 59.826 610.86 59.94V107.55H629.65V69.93H617.4C617.285 69.93 617.175 69.8851 617.093 69.8047C617.01 69.7243 616.963 69.615 616.96 69.5V59.94C616.963 59.8251 617.01 59.7157 617.093 59.6353C617.175 59.555 617.285 59.51 617.4 59.51H653.73C653.844 59.51 653.954 59.5553 654.034 59.636C654.115 59.7166 654.16 59.826 654.16 59.94V69.5C654.16 69.6141 654.115 69.7234 654.034 69.8041C653.954 69.8847 653.844 69.93 653.73 69.93H641.47V107.55H666.76C669.403 107.601 672.018 108.091 674.5 109L674.89 109.1C675.867 109.281 676.876 109.102 677.73 108.596C678.585 108.091 679.228 107.293 679.54 106.35L681.79 99.9C683.04 95.9 684.35 93.99 685.79 93.97C687.45 93.97 688.39 96.52 688.49 96.81C688.49 96.81 689.03 97.95 691.88 107.81C693.21 112.44 694.44 113.4 695.05 113.55C695.279 113.588 695.515 113.564 695.731 113.479C695.948 113.395 696.137 113.253 696.28 113.07C696.636 112.691 696.893 112.231 697.03 111.73C698.39 106.455 699.481 101.115 700.3 95.73C701.09 91.06 702.2 88.61 703.68 88.23C704.52 88.01 705.38 88.45 706.23 89.52C706.903 90.3878 707.371 91.3962 707.6 92.47L709.88 102.56C711.23 107.45 718.2 107.56 718.27 107.56H755.79C755.894 107.576 755.989 107.628 756.058 107.708C756.126 107.788 756.164 107.89 756.164 107.995C756.164 108.1 756.126 108.202 756.058 108.282C755.989 108.362 755.894 108.414 755.79 108.43H718.3C717.98 108.43 710.59 108.37 709.07 102.81L706.78 92.7C706.579 91.7548 706.169 90.8665 705.58 90.1C705.15 89.57 704.53 88.96 703.92 89.1C703.31 89.24 702.13 90.36 701.19 95.9C700.363 101.318 699.265 106.692 697.9 112C697.72 112.647 697.376 113.236 696.9 113.71C696.704 113.942 696.462 114.132 696.191 114.27C695.92 114.407 695.624 114.489 695.32 114.51V114.51Z" fill="white" stroke="white" stroke-width="0.1" stroke-miterlimit="10"/>
    <path d="M236 199.31C235.906 199.311 235.813 199.288 235.731 199.243C235.648 199.197 235.579 199.131 235.53 199.05L220.7 176.31H218.53V198.75C218.53 198.898 218.471 199.041 218.366 199.146C218.261 199.251 218.119 199.31 217.97 199.31C217.822 199.31 217.679 199.251 217.574 199.146C217.469 199.041 217.41 198.898 217.41 198.75V175.75C217.41 175.601 217.469 175.459 217.574 175.354C217.679 175.249 217.822 175.19 217.97 175.19H220.97C221.064 175.19 221.156 175.215 221.238 175.26C221.32 175.305 221.39 175.371 221.44 175.45L236.44 198.45C236.52 198.576 236.546 198.729 236.514 198.875C236.483 199.021 236.395 199.148 236.27 199.23C236.189 199.28 236.096 199.307 236 199.31V199.31ZM227.44 164.52H218C217.927 164.52 217.854 164.505 217.786 164.477C217.718 164.449 217.656 164.408 217.604 164.356C217.552 164.304 217.511 164.242 217.483 164.174C217.455 164.106 217.44 164.033 217.44 163.96V146.28C217.44 146.206 217.455 146.134 217.483 146.066C217.511 145.998 217.552 145.936 217.604 145.884C217.656 145.832 217.718 145.791 217.786 145.763C217.854 145.734 217.927 145.72 218 145.72H227.88C229.151 145.677 230.418 145.895 231.601 146.362C232.784 146.829 233.858 147.533 234.757 148.433C235.657 149.332 236.362 150.406 236.828 151.589C237.295 152.773 237.513 154.039 237.47 155.31C237.44 159.9 234.36 164.52 227.47 164.52H227.44ZM218.5 163.4H227.44C233.97 163.4 236.29 159.04 236.29 155.31C236.29 151.23 233.64 146.84 227.82 146.84H218.5V163.4Z" fill="#F69E0F" stroke="#F69E0F" stroke-width="1.1" stroke-miterlimit="10"/>
    <path d="M326.8 199.31C326.744 199.319 326.686 199.319 326.63 199.31C326.56 199.288 326.495 199.253 326.439 199.206C326.382 199.159 326.336 199.101 326.303 199.036C326.269 198.971 326.249 198.899 326.243 198.826C326.238 198.753 326.247 198.679 326.27 198.61L331.11 183.4C331.148 183.287 331.22 183.188 331.317 183.118C331.414 183.048 331.531 183.01 331.65 183.01H354.65C354.767 183.008 354.882 183.045 354.977 183.113C355.073 183.181 355.144 183.278 355.18 183.39L360.13 198.6C360.175 198.742 360.162 198.896 360.095 199.028C360.027 199.161 359.911 199.262 359.77 199.31C359.7 199.335 359.625 199.345 359.551 199.34C359.477 199.335 359.404 199.316 359.338 199.282C359.272 199.248 359.213 199.202 359.165 199.144C359.117 199.087 359.081 199.021 359.06 198.95L354.24 184.13H332.06L327.34 198.95C327.297 199.058 327.223 199.15 327.126 199.214C327.03 199.279 326.916 199.312 326.8 199.31ZM350.47 171.17H335.74C335.651 171.171 335.562 171.151 335.482 171.111C335.402 171.071 335.333 171.012 335.28 170.94C335.23 170.868 335.198 170.785 335.184 170.699C335.17 170.612 335.175 170.524 335.2 170.44L342.52 147.35C342.556 147.236 342.626 147.137 342.721 147.065C342.816 146.993 342.931 146.953 343.05 146.95C343.17 146.95 343.286 146.988 343.383 147.058C343.48 147.128 343.552 147.227 343.59 147.34L351 170.44C351.027 170.524 351.033 170.612 351.019 170.699C351.005 170.786 350.971 170.868 350.92 170.939C350.868 171.01 350.8 171.068 350.722 171.108C350.644 171.148 350.558 171.169 350.47 171.17V171.17ZM336.47 170.05H349.67L343.03 149.36L336.47 170.05Z" fill="#F69E0F" stroke="#F69E0F" stroke-width="1.1" stroke-miterlimit="10"/>
    <path d="M531.44 199.31C531.292 199.31 531.149 199.251 531.044 199.146C530.939 199.041 530.88 198.898 530.88 198.75V169.37L514.88 146.84H487.68V198.75C487.68 198.898 487.621 199.041 487.516 199.146C487.411 199.251 487.269 199.31 487.12 199.31C486.972 199.31 486.829 199.251 486.724 199.146C486.619 199.041 486.56 198.898 486.56 198.75V146.28C486.56 146.131 486.619 145.989 486.724 145.884C486.829 145.779 486.972 145.72 487.12 145.72H515.2C515.29 145.72 515.379 145.742 515.46 145.783C515.54 145.825 515.608 145.886 515.66 145.96L531.9 168.86C531.967 168.957 532.002 169.072 532 169.19V198.75C532 198.824 531.986 198.896 531.957 198.964C531.929 199.032 531.888 199.094 531.836 199.146C531.784 199.198 531.722 199.239 531.654 199.267C531.586 199.295 531.514 199.31 531.44 199.31V199.31Z" fill="#F69E0F" stroke="#F69E0F" stroke-width="1.1" stroke-miterlimit="10"/>
    <path d="M701.3 199.31C701.152 199.31 701.009 199.251 700.904 199.146C700.799 199.041 700.74 198.899 700.74 198.75V173.45H680.28V198.75C680.28 198.899 680.221 199.041 680.116 199.146C680.011 199.251 679.869 199.31 679.72 199.31C679.572 199.31 679.429 199.251 679.324 199.146C679.219 199.041 679.16 198.899 679.16 198.75V172.89C679.16 172.742 679.219 172.599 679.324 172.494C679.429 172.389 679.572 172.33 679.72 172.33H701.3C701.449 172.33 701.591 172.389 701.696 172.494C701.801 172.599 701.86 172.742 701.86 172.89V198.75C701.86 198.899 701.801 199.041 701.696 199.146C701.591 199.251 701.449 199.31 701.3 199.31Z" fill="#F69E0F" stroke="#F69E0F" stroke-width="1.1" stroke-miterlimit="10"/>
    <path d="M823.19 199.31C823.054 199.309 822.922 199.259 822.819 199.169C822.716 199.079 822.649 198.955 822.63 198.82C822.611 198.686 822.643 198.549 822.718 198.436C822.794 198.324 822.909 198.243 823.04 198.21C830.418 196.216 836.87 191.715 841.29 185.48L830.62 178.06C828.971 180.675 826.67 182.816 823.944 184.275C821.219 185.733 818.161 186.459 815.07 186.38C804.07 186.38 795.69 177.56 795.69 165.86C795.69 154.32 804.07 145.62 815.17 145.62C818.251 145.555 821.296 146.294 824.005 147.763C826.714 149.233 828.994 151.382 830.62 154L841.29 146.57C838.255 142.29 834.239 138.8 829.578 136.392C824.917 133.984 819.747 132.729 814.5 132.73C796.5 132.73 781.8 147.61 781.8 165.91C781.753 173.218 784.105 180.34 788.494 186.183C792.884 192.027 799.068 196.269 806.1 198.26C806.232 198.293 806.346 198.374 806.422 198.486C806.498 198.599 806.529 198.736 806.51 198.87C806.491 199.005 806.424 199.129 806.321 199.219C806.218 199.309 806.087 199.359 805.95 199.36H774.2C774.052 199.36 773.909 199.301 773.804 199.196C773.699 199.091 773.64 198.949 773.64 198.8V186.29H746.26C746.112 186.29 745.969 186.231 745.864 186.126C745.759 186.021 745.7 185.879 745.7 185.73V173.18C745.7 173.032 745.759 172.889 745.864 172.784C745.969 172.679 746.112 172.62 746.26 172.62H769.46V160.34H746.26C746.112 160.34 745.969 160.281 745.864 160.176C745.759 160.071 745.7 159.929 745.7 159.78V146.28C745.7 146.132 745.759 145.989 745.864 145.884C745.969 145.779 746.112 145.72 746.26 145.72H772.78V133.82H731.9V198.75C731.9 198.899 731.841 199.041 731.736 199.146C731.631 199.251 731.489 199.31 731.34 199.31H716.22C716.072 199.31 715.929 199.251 715.824 199.146C715.719 199.041 715.66 198.899 715.66 198.75V133.82H701.86V159.49C701.86 159.639 701.801 159.781 701.696 159.886C701.591 159.991 701.449 160.05 701.3 160.05H679.72C679.572 160.05 679.429 159.991 679.324 159.886C679.219 159.781 679.16 159.639 679.16 159.49V133.82H665.36V198.75C665.355 198.839 665.33 198.926 665.286 199.003C665.243 199.081 665.182 199.147 665.108 199.198C665.035 199.248 664.951 199.281 664.863 199.293C664.775 199.306 664.685 199.298 664.6 199.27H636.36C636.224 199.27 636.093 199.222 635.991 199.132C635.888 199.043 635.822 198.92 635.804 198.786C635.785 198.651 635.816 198.515 635.891 198.401C635.966 198.288 636.079 198.206 636.21 198.17C643.532 196.161 649.932 191.676 654.32 185.48L643.66 178.06C642.009 180.673 639.708 182.814 636.983 184.272C634.257 185.73 631.2 186.457 628.11 186.38C617.06 186.38 608.73 177.56 608.73 165.86C608.73 154.32 617.1 145.62 628.2 145.62C631.283 145.556 634.329 146.294 637.039 147.764C639.75 149.233 642.032 151.382 643.66 154L654.32 146.57C651.286 142.292 647.272 138.803 642.613 136.395C637.953 133.987 632.785 132.73 627.54 132.73C609.54 132.73 594.83 147.61 594.83 165.91C594.83 180.39 604.28 193.53 617.83 197.86C617.944 197.896 618.044 197.969 618.114 198.066C618.184 198.163 618.221 198.28 618.22 198.4V198.8C618.22 198.949 618.161 199.091 618.056 199.196C617.951 199.301 617.809 199.36 617.66 199.36H546.46C546.312 199.36 546.169 199.301 546.064 199.196C545.959 199.091 545.9 198.949 545.9 198.8V169.47C545.898 169.355 545.933 169.243 546 169.15L570.94 133.82H554.56L539.33 157.7C539.286 157.787 539.216 157.858 539.131 157.905C539.045 157.951 538.947 157.971 538.85 157.96C538.756 157.96 538.664 157.935 538.582 157.89C538.5 157.845 538.43 157.779 538.38 157.7L523.38 133.82H455.49V145.72H472.23C472.379 145.72 472.521 145.779 472.626 145.884C472.731 145.989 472.79 146.132 472.79 146.28V198.75C472.79 198.899 472.731 199.041 472.626 199.146C472.521 199.251 472.379 199.31 472.23 199.31H445.42C445.272 199.31 445.129 199.251 445.024 199.146C444.919 199.041 444.86 198.899 444.86 198.75V133.82H431.06V198.75C431.06 198.899 431.001 199.041 430.896 199.146C430.791 199.251 430.649 199.31 430.5 199.31H421.09C420.942 199.31 420.799 199.251 420.694 199.146C420.589 199.041 420.53 198.899 420.53 198.75V186.29H397C396.852 186.29 396.709 186.231 396.604 186.126C396.499 186.021 396.44 185.879 396.44 185.73V133.82H382.64V198.75C382.64 198.899 382.581 199.041 382.476 199.146C382.371 199.251 382.229 199.31 382.08 199.31H375.42C375.306 199.309 375.195 199.272 375.102 199.206C375.009 199.14 374.939 199.047 374.9 198.94L350.9 133.82H335.46L311.36 198.94C311.321 199.049 311.249 199.143 311.154 199.209C311.059 199.275 310.946 199.311 310.83 199.31H306.93C306.782 199.31 306.639 199.251 306.534 199.146C306.429 199.041 306.37 198.899 306.37 198.75V186.29H279C278.852 186.29 278.709 186.231 278.604 186.126C278.499 186.021 278.44 185.879 278.44 185.73V173.18C278.44 173.032 278.499 172.889 278.604 172.784C278.709 172.679 278.852 172.62 279 172.62H302.2V160.34H279C278.852 160.34 278.709 160.281 278.604 160.176C278.499 160.071 278.44 159.929 278.44 159.78V146.28C278.44 146.132 278.499 145.989 278.604 145.884C278.709 145.779 278.852 145.72 279 145.72H305.53V133.82H264.63V198.75C264.63 198.899 264.571 199.041 264.466 199.146C264.361 199.251 264.219 199.31 264.07 199.31H253.42C253.33 199.309 253.241 199.287 253.161 199.245C253.081 199.204 253.012 199.144 252.96 199.07L236.14 175.21C236.085 175.136 236.05 175.05 236.038 174.959C236.025 174.868 236.037 174.776 236.07 174.69C236.103 174.603 236.156 174.526 236.226 174.465C236.296 174.403 236.38 174.361 236.47 174.34C244.67 172.5 251.34 163.79 251.34 154.93C251.34 144.42 244.69 133.82 229.85 133.82H203.61V198.75C203.607 198.899 203.546 199.042 203.44 199.147C203.333 199.251 203.19 199.31 203.04 199.31H172.17C172.022 199.31 171.879 199.251 171.774 199.146C171.669 199.041 171.61 198.899 171.61 198.75C171.61 198.602 171.669 198.459 171.774 198.354C171.879 198.249 172.022 198.19 172.17 198.19H202.48V133.26C202.48 133.187 202.495 133.114 202.523 133.046C202.551 132.978 202.592 132.916 202.644 132.864C202.696 132.812 202.758 132.771 202.826 132.743C202.894 132.715 202.967 132.7 203.04 132.7H229.85C245.47 132.7 252.46 143.86 252.46 154.93C252.46 164.15 245.96 172.93 237.53 175.23L253.71 198.23H263.51V133.26C263.51 133.187 263.525 133.114 263.553 133.046C263.581 132.978 263.622 132.916 263.674 132.864C263.726 132.812 263.788 132.771 263.856 132.743C263.924 132.715 263.997 132.7 264.07 132.7H306.07C306.144 132.7 306.216 132.715 306.284 132.743C306.352 132.771 306.414 132.812 306.466 132.864C306.518 132.916 306.559 132.978 306.587 133.046C306.616 133.114 306.63 133.187 306.63 133.26V146.26C306.63 146.409 306.571 146.551 306.466 146.656C306.361 146.761 306.219 146.82 306.07 146.82H279.55V159.2H302.75C302.899 159.2 303.041 159.259 303.146 159.364C303.251 159.469 303.31 159.612 303.31 159.76V173.16C303.31 173.309 303.251 173.451 303.146 173.556C303.041 173.661 302.899 173.72 302.75 173.72H279.55V185.14H306.93C307.08 185.143 307.224 185.203 307.33 185.31C307.437 185.416 307.498 185.56 307.5 185.71V198.17H310.44L334.54 133.04C334.58 132.932 334.652 132.839 334.747 132.775C334.842 132.71 334.955 132.677 335.07 132.68H351.32C351.435 132.677 351.548 132.71 351.643 132.775C351.738 132.839 351.81 132.932 351.85 133.04L375.85 198.17H381.55V133.26C381.55 133.187 381.565 133.114 381.593 133.046C381.621 132.978 381.662 132.916 381.714 132.864C381.766 132.812 381.828 132.771 381.896 132.743C381.964 132.715 382.037 132.7 382.11 132.7H397C397.074 132.7 397.146 132.715 397.214 132.743C397.282 132.771 397.344 132.812 397.396 132.864C397.448 132.916 397.489 132.978 397.517 133.046C397.546 133.114 397.56 133.187 397.56 133.26V185.16H421.05C421.2 185.163 421.342 185.224 421.447 185.33C421.551 185.437 421.61 185.581 421.61 185.73V198.19H429.9V133.26C429.9 133.187 429.915 133.114 429.943 133.046C429.971 132.978 430.012 132.916 430.064 132.864C430.116 132.812 430.178 132.771 430.246 132.743C430.314 132.715 430.387 132.7 430.46 132.7H445.38C445.529 132.7 445.671 132.759 445.776 132.864C445.881 132.969 445.94 133.112 445.94 133.26V198.19H471.63V146.84H454.93C454.782 146.84 454.639 146.781 454.534 146.676C454.429 146.571 454.37 146.429 454.37 146.28V133.28C454.37 133.132 454.429 132.989 454.534 132.884C454.639 132.779 454.782 132.72 454.93 132.72H523.74C523.836 132.719 523.93 132.742 524.014 132.788C524.098 132.833 524.169 132.899 524.22 132.98L538.86 156.37L553.78 133C553.83 132.921 553.9 132.855 553.982 132.81C554.064 132.765 554.156 132.741 554.25 132.74H572C572.103 132.739 572.204 132.767 572.292 132.82C572.38 132.873 572.452 132.949 572.5 133.04C572.552 133.128 572.579 133.228 572.579 133.33C572.579 133.432 572.552 133.532 572.5 133.62L547 169.65V198.19H615.5C609.065 195.579 603.555 191.108 599.673 185.349C595.792 179.59 593.716 172.805 593.71 165.86C593.71 146.95 608.88 131.56 627.54 131.56C633.056 131.568 638.487 132.917 643.366 135.492C648.244 138.067 652.422 141.79 655.54 146.34C655.582 146.401 655.611 146.47 655.626 146.542C655.641 146.614 655.641 146.689 655.627 146.761C655.613 146.834 655.585 146.903 655.545 146.964C655.504 147.026 655.451 147.079 655.39 147.12L643.8 155.2C643.738 155.244 643.668 155.274 643.594 155.29C643.52 155.305 643.444 155.305 643.37 155.29C643.292 155.27 643.219 155.233 643.155 155.183C643.091 155.134 643.039 155.071 643 155C639.46 149.5 634.47 146.71 628.17 146.71C617.71 146.71 609.82 154.92 609.82 165.82C609.82 176.88 617.67 185.22 628.08 185.22C631.073 185.297 634.032 184.576 636.654 183.132C639.276 181.687 641.466 179.571 643 177C643.041 176.936 643.096 176.882 643.159 176.841C643.223 176.799 643.295 176.772 643.37 176.76C643.444 176.745 643.52 176.745 643.594 176.76C643.668 176.776 643.738 176.806 643.8 176.85L655.39 184.92C655.451 184.961 655.504 185.014 655.545 185.076C655.585 185.137 655.613 185.206 655.627 185.279C655.641 185.351 655.641 185.426 655.626 185.498C655.611 185.57 655.582 185.639 655.54 185.7C651.673 191.347 646.195 195.699 639.82 198.19H664.21V133.26C664.21 133.112 664.269 132.969 664.374 132.864C664.479 132.759 664.622 132.7 664.77 132.7H679.69C679.764 132.7 679.836 132.715 679.904 132.743C679.972 132.771 680.034 132.812 680.086 132.864C680.138 132.916 680.179 132.978 680.208 133.046C680.236 133.114 680.25 133.187 680.25 133.26V158.93H700.71V133.26C700.71 133.187 700.725 133.114 700.753 133.046C700.781 132.978 700.822 132.916 700.874 132.864C700.926 132.812 700.988 132.771 701.056 132.743C701.124 132.715 701.197 132.7 701.27 132.7H716.19C716.339 132.7 716.481 132.759 716.586 132.864C716.691 132.969 716.75 133.112 716.75 133.26V198.19H730.75V133.26C730.753 133.111 730.814 132.968 730.921 132.863C731.027 132.759 731.171 132.7 731.32 132.7H773.32C773.394 132.7 773.466 132.715 773.534 132.743C773.602 132.771 773.664 132.812 773.716 132.864C773.768 132.916 773.809 132.978 773.838 133.046C773.866 133.114 773.88 133.187 773.88 133.26V146.26C773.88 146.409 773.821 146.551 773.716 146.656C773.611 146.761 773.469 146.82 773.32 146.82H746.82V159.2H770C770.149 159.2 770.291 159.259 770.396 159.364C770.501 159.469 770.56 159.612 770.56 159.76V173.16C770.56 173.309 770.501 173.451 770.396 173.556C770.291 173.661 770.149 173.72 770 173.72H746.8V185.14H774.2C774.35 185.143 774.492 185.204 774.597 185.31C774.701 185.417 774.76 185.561 774.76 185.71V198.17H802.46C796.005 195.589 790.475 191.125 786.591 185.359C782.706 179.594 780.647 172.792 780.68 165.84C780.68 146.93 795.85 131.54 814.5 131.54C820.016 131.548 825.447 132.897 830.326 135.472C835.204 138.047 839.382 141.77 842.5 146.32C842.542 146.38 842.572 146.449 842.588 146.52C842.603 146.592 842.605 146.667 842.592 146.739C842.579 146.811 842.552 146.881 842.512 146.943C842.472 147.005 842.421 147.058 842.36 147.1L830.76 155.18C830.698 155.218 830.63 155.244 830.558 155.256C830.487 155.268 830.413 155.265 830.343 155.248C830.272 155.232 830.205 155.201 830.147 155.158C830.088 155.116 830.038 155.062 830 155C826.46 149.5 821.47 146.71 815.17 146.71C804.71 146.71 796.82 154.92 796.82 165.82C796.82 176.88 804.67 185.22 815.07 185.22C818.064 185.299 821.026 184.579 823.649 183.134C826.273 181.689 828.465 179.572 830 177C830.038 176.936 830.091 176.881 830.153 176.839C830.215 176.798 830.286 176.771 830.36 176.76C830.434 176.744 830.511 176.744 830.585 176.759C830.659 176.775 830.729 176.806 830.79 176.85L842.39 184.92C842.451 184.962 842.502 185.016 842.542 185.077C842.582 185.139 842.609 185.209 842.622 185.281C842.635 185.353 842.633 185.428 842.618 185.5C842.602 185.572 842.572 185.64 842.53 185.7C838.647 191.378 833.135 195.746 826.72 198.23H851.2V133.26C851.203 133.111 851.264 132.968 851.371 132.863C851.477 132.759 851.621 132.7 851.77 132.7H866.69C866.764 132.7 866.836 132.715 866.904 132.743C866.972 132.771 867.034 132.812 867.086 132.864C867.138 132.916 867.179 132.978 867.208 133.046C867.236 133.114 867.25 133.187 867.25 133.26V157.77L883.25 132.96C883.299 132.879 883.368 132.813 883.451 132.767C883.533 132.722 883.626 132.699 883.72 132.7H901.49C901.593 132.699 901.694 132.727 901.782 132.78C901.87 132.833 901.942 132.909 901.99 133C902.044 133.085 902.073 133.184 902.073 133.285C902.073 133.386 902.044 133.485 901.99 133.57L880.4 165.65L905.4 198.19H928.32C928.469 198.19 928.611 198.249 928.716 198.354C928.821 198.459 928.88 198.602 928.88 198.75C928.88 198.899 928.821 199.041 928.716 199.146C928.611 199.251 928.469 199.31 928.32 199.31H905.09C905.003 199.311 904.917 199.291 904.839 199.253C904.761 199.215 904.693 199.159 904.64 199.09L879.26 166C879.194 165.905 879.158 165.791 879.158 165.675C879.158 165.559 879.194 165.445 879.26 165.35L900.44 133.81H884L867.16 160C867.09 160.089 866.995 160.156 866.886 160.189C866.778 160.223 866.662 160.224 866.553 160.19C866.445 160.156 866.349 160.09 866.279 160.001C866.209 159.912 866.167 159.803 866.16 159.69V133.82H852.36V198.75C852.36 198.899 852.301 199.041 852.196 199.146C852.091 199.251 851.949 199.31 851.8 199.31H823.19ZM885.98 199.31C885.892 199.31 885.806 199.289 885.728 199.249C885.65 199.209 885.582 199.151 885.53 199.08L867.25 174.77V198.77C867.25 198.919 867.191 199.061 867.086 199.166C866.981 199.271 866.839 199.33 866.69 199.33C866.542 199.33 866.399 199.271 866.294 199.166C866.189 199.061 866.13 198.919 866.13 198.77V173.08C866.13 172.963 866.167 172.849 866.235 172.754C866.303 172.659 866.399 172.588 866.51 172.55C866.623 172.514 866.744 172.514 866.857 172.549C866.97 172.585 867.069 172.655 867.14 172.75L886.43 198.41C886.475 198.469 886.508 198.536 886.527 198.608C886.546 198.68 886.551 198.755 886.54 198.828C886.53 198.902 886.505 198.972 886.468 199.036C886.43 199.1 886.38 199.156 886.32 199.2C886.226 199.267 886.115 199.305 886 199.31H885.98Z" fill="#F69E0F" stroke="#F69E0F" stroke-width="1.1" stroke-miterlimit="10"/>
    <path d="M387.743 242.304H393.599V258H396.071V242.304H401.951V240.144H387.743V242.304ZM405.793 258.264C407.977 258.264 409.297 257.232 410.113 256.104H410.137C410.377 257.472 411.049 258.12 412.417 258.12C412.945 258.12 413.305 258.024 413.617 257.928V256.368H413.521C412.393 256.608 412.153 256.056 412.153 255.024V249C412.153 247.272 411.505 246.144 410.425 245.496C409.609 245.016 408.529 244.8 407.305 244.8C403.825 244.8 402.169 246.744 402.073 248.928H404.233C404.305 247.392 405.289 246.432 407.329 246.432C409.105 246.432 410.089 247.296 410.089 248.688C410.089 250.008 408.865 250.32 406.969 250.536C403.633 250.944 401.425 251.592 401.425 254.592C401.425 257.064 403.345 258.264 405.793 258.264ZM406.345 256.632C405.049 256.632 403.777 256.224 403.777 254.568C403.777 252.792 405.169 252.408 407.281 252.048C408.337 251.856 409.465 251.544 410.113 251.136V253.248C410.113 254.736 408.913 256.632 406.345 256.632ZM424.381 258H426.997L421.501 249.744L426.421 245.112H423.637L418.045 250.608C418.093 249.984 418.141 249.072 418.141 248.616V240.144H415.909V258H418.141V252.936L419.965 251.208L424.381 258ZM434.263 258.36C437.239 258.36 439.303 256.728 439.879 254.328H437.695C437.287 255.696 436.063 256.536 434.287 256.536C431.791 256.536 430.423 254.616 430.255 252.096H440.143C440.143 249.912 439.615 248.064 438.559 246.792C437.551 245.544 436.063 244.8 434.143 244.8C430.447 244.8 427.975 247.824 427.975 251.568C427.975 255.336 430.303 258.36 434.263 258.36ZM434.143 246.528C436.375 246.528 437.647 248.016 437.767 250.488H430.303C430.591 248.208 431.815 246.528 434.143 246.528ZM449.065 246.84H451.081V255.48C451.081 257.376 452.281 258.072 454.009 258.096C454.585 258.096 455.209 258.024 455.809 257.88V256.008H455.737C455.497 256.08 454.993 256.176 454.609 256.176C453.793 256.176 453.289 255.912 453.289 254.976V246.84H455.953V245.112H453.289V241.056H451.081V245.112H449.065V246.84ZM460.983 244.824V240.144H458.751V258H460.983V250.152C460.983 248.088 462.423 246.672 464.415 246.672C466.167 246.672 467.247 247.608 467.247 249.264V258H469.455V249C469.455 246.312 467.799 244.8 465.111 244.8C463.239 244.8 461.943 245.616 460.983 246.984H460.911C460.935 246.36 460.983 245.472 460.983 244.824ZM478.534 258.36C481.51 258.36 483.574 256.728 484.15 254.328H481.966C481.558 255.696 480.334 256.536 478.558 256.536C476.062 256.536 474.694 254.616 474.526 252.096H484.414C484.414 249.912 483.886 248.064 482.83 246.792C481.822 245.544 480.334 244.8 478.414 244.8C474.718 244.8 472.246 247.824 472.246 251.568C472.246 255.336 474.574 258.36 478.534 258.36ZM478.414 246.528C480.646 246.528 481.918 248.016 482.038 250.488H474.574C474.862 248.208 476.086 246.528 478.414 246.528ZM503.129 262.368H505.337V245.112H503.153V247.032H503.081C502.241 245.64 500.897 244.8 499.049 244.8C495.857 244.8 493.505 247.344 493.505 251.592C493.505 255.72 495.641 258.384 499.121 258.384C500.945 258.384 502.145 257.664 503.129 256.296H503.201C503.177 257.04 503.129 258.288 503.129 258.456V262.368ZM499.313 256.536C496.913 256.536 495.761 254.448 495.761 251.64C495.761 248.808 496.913 246.696 499.289 246.696C502.001 246.696 503.249 248.736 503.249 251.64C503.249 254.448 502.145 256.536 499.313 256.536ZM519.346 258V245.112H517.114V252.96C517.114 254.952 515.842 256.464 513.874 256.464C512.098 256.464 511.066 255.504 511.066 253.872V245.112H508.834V253.992C508.834 256.68 510.538 258.288 513.202 258.288C515.05 258.288 516.178 257.472 517.09 256.2H517.138V258H519.346ZM522.884 242.736H525.212V240.144H522.884V242.736ZM522.932 258H525.164V245.112H522.932V258ZM528.229 258H538.621V256.032H533.413C532.477 256.032 530.845 256.104 530.845 256.104V256.032C530.845 256.032 531.925 254.856 532.477 254.16L538.333 246.504V245.112H528.661V247.008H533.101C533.989 247.008 535.525 246.936 535.525 246.936V247.008C535.525 247.008 534.517 248.088 533.989 248.76L528.229 256.272V258ZM541.489 261.72C543.193 261.504 544.057 260.352 544.057 258.24V255.36H541.465V258H542.665V258.24C542.665 259.752 542.161 260.232 541.489 260.472V261.72ZM560.532 258.384C564.012 258.384 566.1 255.744 566.1 251.592C566.1 247.344 563.868 244.8 560.604 244.8C558.732 244.8 557.292 245.784 556.452 247.152H556.38C556.404 246.6 556.452 245.688 556.452 244.704V240.144H554.22V258H556.428V256.176H556.5C557.34 257.616 558.804 258.384 560.532 258.384ZM560.292 256.536C557.652 256.536 556.332 254.424 556.332 251.616C556.332 248.88 557.58 246.672 560.316 246.672C562.668 246.672 563.82 248.784 563.82 251.616C563.82 254.448 562.668 256.536 560.292 256.536ZM579.39 258V245.112H577.158V252.96C577.158 254.952 575.886 256.464 573.918 256.464C572.142 256.464 571.11 255.504 571.11 253.872V245.112H568.878V253.992C568.878 256.68 570.582 258.288 573.246 258.288C575.094 258.288 576.222 257.472 577.134 256.2H577.182V258H579.39ZM587.92 258.384C590.944 258.384 593.104 257.04 593.104 254.424C593.104 251.424 590.896 250.848 588.328 250.344C586.144 249.912 584.896 249.648 584.896 248.304C584.896 247.32 585.64 246.504 587.392 246.504C589.24 246.504 590.152 247.248 590.344 248.568H592.576C592.288 246.336 590.68 244.824 587.44 244.824C584.44 244.824 582.712 246.216 582.712 248.424C582.712 251.256 584.992 251.784 587.512 252.312C589.792 252.768 590.872 253.128 590.872 254.544C590.872 255.696 590.008 256.584 587.968 256.584C586.12 256.584 584.68 255.96 584.416 254.088H582.16C582.352 256.704 584.368 258.384 587.92 258.384ZM594.969 246.84H596.985V255.48C596.985 257.376 598.185 258.072 599.913 258.096C600.489 258.096 601.113 258.024 601.713 257.88V256.008H601.641C601.401 256.08 600.897 256.176 600.513 256.176C599.697 256.176 599.193 255.912 599.193 254.976V246.84H601.857V245.112H599.193V241.056H596.985V245.112H594.969V246.84ZM610.718 246.84H612.734V255.48C612.734 257.376 613.934 258.072 615.662 258.096C616.238 258.096 616.862 258.024 617.462 257.88V256.008H617.39C617.15 256.08 616.646 256.176 616.262 256.176C615.446 256.176 614.942 255.912 614.942 254.976V246.84H617.606V245.112H614.942V241.056H612.734V245.112H610.718V246.84ZM622.636 244.824V240.144H620.404V258H622.636V250.152C622.636 248.088 624.076 246.672 626.068 246.672C627.82 246.672 628.9 247.608 628.9 249.264V258H631.108V249C631.108 246.312 629.452 244.8 626.764 244.8C624.892 244.8 623.596 245.616 622.636 246.984H622.564C622.588 246.36 622.636 245.472 622.636 244.824ZM640.187 258.36C643.163 258.36 645.227 256.728 645.803 254.328H643.619C643.211 255.696 641.987 256.536 640.211 256.536C637.715 256.536 636.347 254.616 636.179 252.096H646.067C646.067 249.912 645.539 248.064 644.483 246.792C643.475 245.544 641.987 244.8 640.067 244.8C636.371 244.8 633.899 247.824 633.899 251.568C633.899 255.336 636.227 258.36 640.187 258.36ZM640.067 246.528C642.299 246.528 643.571 248.016 643.691 250.488H636.227C636.515 248.208 637.739 246.528 640.067 246.528ZM655.782 258H658.014V250.056C658.014 248.088 659.67 246.672 661.206 246.672C662.526 246.672 663.414 247.608 663.414 249.192V258H665.622V250.056C665.622 248.088 667.038 246.672 668.67 246.672C669.966 246.672 670.998 247.608 670.998 249.192V258H673.23V249C673.23 246.312 671.598 244.8 669.246 244.8C667.686 244.8 666.174 245.592 665.262 247.2H665.214C664.686 245.616 663.438 244.8 661.878 244.8C660.222 244.8 658.854 245.64 658.062 247.032H657.99V245.112H655.782V258ZM678.049 262.488C679.705 262.488 680.737 261.888 681.793 259.176L687.265 245.112H684.937L682.369 252.264C681.865 253.704 681.265 255.744 681.265 255.744H681.217C681.217 255.744 680.665 253.728 680.137 252.264L677.473 245.112H675.049L679.969 257.352C680.017 257.496 679.513 258.936 679.513 258.984C679.057 260.208 678.481 260.544 677.593 260.544C677.041 260.544 676.489 260.448 676.249 260.304H676.153V262.224C676.513 262.368 677.329 262.488 678.049 262.488ZM688.833 246.84H690.849V255.48C690.849 257.376 692.049 258.072 693.777 258.096C694.353 258.096 694.977 258.024 695.577 257.88V256.008H695.505C695.265 256.08 694.761 256.176 694.377 256.176C693.561 256.176 693.057 255.912 693.057 254.976V246.84H695.721V245.112H693.057V241.056H690.849V245.112H688.833V246.84ZM700.751 244.824V240.144H698.519V258H700.751V250.152C700.751 248.088 702.191 246.672 704.183 246.672C705.935 246.672 707.015 247.608 707.015 249.264V258H709.223V249C709.223 246.312 707.567 244.8 704.879 244.8C703.007 244.8 701.711 245.616 700.751 246.984H700.679C700.703 246.36 700.751 245.472 700.751 244.824ZM717.654 258.384C720.678 258.384 722.838 257.04 722.838 254.424C722.838 251.424 720.63 250.848 718.062 250.344C715.878 249.912 714.63 249.648 714.63 248.304C714.63 247.32 715.374 246.504 717.126 246.504C718.974 246.504 719.886 247.248 720.078 248.568H722.31C722.022 246.336 720.414 244.824 717.174 244.824C714.174 244.824 712.446 246.216 712.446 248.424C712.446 251.256 714.726 251.784 717.246 252.312C719.526 252.768 720.606 253.128 720.606 254.544C720.606 255.696 719.742 256.584 717.702 256.584C715.854 256.584 714.414 255.96 714.15 254.088H711.894C712.086 256.704 714.102 258.384 717.654 258.384ZM726.761 252.816H727.985L728.561 245.736V240.144H726.137V245.736L726.761 252.816ZM726.065 258H728.681V255.36H726.065V258Z" fill="white"/>
</svg>
