<svg class="mobile" width="320" height="160" viewBox="0 0 320 160" fill="none" xmlns="http://www.w3.org/2000/svg">
    <path d="M320 0H0V160H320V0Z" fill="#002858"/>
    <path opacity="0.5" d="M0 11.51H320" stroke="#587694" stroke-width="0.19" stroke-miterlimit="10"/>
    <path opacity="0.5" d="M0 22.9H320" stroke="#587694" stroke-width="0.19" stroke-miterlimit="10"/>
    <path opacity="0.5" d="M0 34.29H320" stroke="#587694" stroke-width="0.19" stroke-miterlimit="10"/>
    <path opacity="0.5" d="M0 45.6899H320" stroke="#587694" stroke-width="0.19" stroke-miterlimit="10"/>
    <path opacity="0.5" d="M0 57.08H320" stroke="#587694" stroke-width="0.19" stroke-miterlimit="10"/>
    <path opacity="0.5" d="M0 68.47H320" stroke="#587694" stroke-width="0.19" stroke-miterlimit="10"/>
    <path opacity="0.5" d="M0 79.87H320" stroke="#587694" stroke-width="0.19" stroke-miterlimit="10"/>
    <path opacity="0.5" d="M0 91.26H320" stroke="#587694" stroke-width="0.19" stroke-miterlimit="10"/>
    <path opacity="0.5" d="M0 102.65H320" stroke="#587694" stroke-width="0.19" stroke-miterlimit="10"/>
    <path opacity="0.5" d="M0 114.05H320" stroke="#587694" stroke-width="0.19" stroke-miterlimit="10"/>
    <path opacity="0.5" d="M0 125.44H320" stroke="#587694" stroke-width="0.19" stroke-miterlimit="10"/>
    <path opacity="0.5" d="M0 136.83H320" stroke="#587694" stroke-width="0.19" stroke-miterlimit="10"/>
    <path opacity="0.5" d="M0 148.23H320" stroke="#587694" stroke-width="0.19" stroke-miterlimit="10"/>
    <path opacity="0.5" d="M148.11 0.109985V159.62" stroke="#587694" stroke-width="0.14" stroke-miterlimit="10"/>
    <path opacity="0.5" d="M136.72 0.109985V159.62" stroke="#587694" stroke-width="0.14" stroke-miterlimit="10"/>
    <path opacity="0.5" d="M125.33 0.109985V159.62" stroke="#587694" stroke-width="0.14" stroke-miterlimit="10"/>
    <path opacity="0.5" d="M113.93 0.109985V159.62" stroke="#587694" stroke-width="0.14" stroke-miterlimit="10"/>
    <path opacity="0.5" d="M102.54 0.109985V159.62" stroke="#587694" stroke-width="0.14" stroke-miterlimit="10"/>
    <path opacity="0.5" d="M91.1499 0.109985V159.62" stroke="#587694" stroke-width="0.14" stroke-miterlimit="10"/>
    <path opacity="0.5" d="M79.75 0.109985V159.62" stroke="#587694" stroke-width="0.14" stroke-miterlimit="10"/>
    <path opacity="0.5" d="M68.3601 0.109985V159.62" stroke="#587694" stroke-width="0.14" stroke-miterlimit="10"/>
    <path opacity="0.5" d="M56.97 0.109985V159.62" stroke="#587694" stroke-width="0.14" stroke-miterlimit="10"/>
    <path opacity="0.5" d="M45.5701 0.109985V159.62" stroke="#587694" stroke-width="0.14" stroke-miterlimit="10"/>
    <path opacity="0.5" d="M34.1799 0.109985V159.62" stroke="#587694" stroke-width="0.14" stroke-miterlimit="10"/>
    <path opacity="0.5" d="M22.79 0.109985V159.62" stroke="#587694" stroke-width="0.14" stroke-miterlimit="10"/>
    <path opacity="0.5" d="M11.3899 0.109985V159.62" stroke="#587694" stroke-width="0.14" stroke-miterlimit="10"/>
    <path opacity="0.5" d="M284.84 0.109985V159.62" stroke="#587694" stroke-width="0.14" stroke-miterlimit="10"/>
    <path opacity="0.5" d="M273.44 0.109985V159.62" stroke="#587694" stroke-width="0.14" stroke-miterlimit="10"/>
    <path opacity="0.5" d="M262.05 0.109985V159.62" stroke="#587694" stroke-width="0.14" stroke-miterlimit="10"/>
    <path opacity="0.5" d="M250.66 0.109985V159.62" stroke="#587694" stroke-width="0.14" stroke-miterlimit="10"/>
    <path opacity="0.5" d="M239.26 0.109985V159.62" stroke="#587694" stroke-width="0.14" stroke-miterlimit="10"/>
    <path opacity="0.5" d="M227.87 0.109985V159.62" stroke="#587694" stroke-width="0.14" stroke-miterlimit="10"/>
    <path opacity="0.5" d="M216.48 0.109985V159.62" stroke="#587694" stroke-width="0.14" stroke-miterlimit="10"/>
    <path opacity="0.5" d="M205.08 0.109985V159.62" stroke="#587694" stroke-width="0.14" stroke-miterlimit="10"/>
    <path opacity="0.5" d="M193.69 0.109985V159.62" stroke="#587694" stroke-width="0.14" stroke-miterlimit="10"/>
    <path opacity="0.5" d="M182.3 0.109985V159.62" stroke="#587694" stroke-width="0.14" stroke-miterlimit="10"/>
    <path opacity="0.5" d="M170.9 0.109985V159.62" stroke="#587694" stroke-width="0.14" stroke-miterlimit="10"/>
    <path opacity="0.5" d="M159.51 0.109985V159.62" stroke="#587694" stroke-width="0.14" stroke-miterlimit="10"/>
    <path opacity="0.5" d="M319.02 0.109985V159.62" stroke="#587694" stroke-width="0.14" stroke-miterlimit="10"/>
    <path opacity="0.5" d="M307.62 0.109985V159.62" stroke="#587694" stroke-width="0.14" stroke-miterlimit="10"/>
    <path opacity="0.5" d="M296.23 0.109985V159.62" stroke="#587694" stroke-width="0.14" stroke-miterlimit="10"/>
    <path d="M136.162 44.81L136.162 44.8101H136.167C136.249 44.8101 136.328 44.7774 136.386 44.7193C136.444 44.6611 136.477 44.5823 136.477 44.5001V35.2701C136.477 35.1878 136.444 35.109 136.386 35.0509C136.328 34.9927 136.249 34.9601 136.167 34.9601H128.467C128.384 34.9601 128.306 34.9927 128.247 35.0509C128.189 35.109 128.157 35.1878 128.157 35.2701V44.5001V44.5108L128.159 44.5213C128.174 44.5927 128.214 44.6566 128.271 44.7025C128.328 44.7484 128.399 44.7734 128.472 44.7734C128.545 44.7734 128.616 44.7484 128.672 44.7025C128.729 44.6566 128.769 44.5927 128.784 44.5213L128.787 44.5108V44.5001V35.6001H135.857V44.5001H135.856L135.857 44.5045C135.86 44.5844 135.894 44.66 135.95 44.7166C136.007 44.7731 136.082 44.8064 136.162 44.81Z" fill="white" stroke="white" stroke-width="0.2"/>
    <mask id="path-44-outside-1_933_4273" maskUnits="userSpaceOnUse" x="38" y="19.9198" width="213" height="28" fill="black">
    <rect fill="white" x="38" y="19.9198" width="213" height="28"/>
    <path d="M221.037 47.67H220.817C220.127 47.49 219.517 46.48 218.977 44.59C217.607 39.84 217.357 39.28 217.347 39.26C217.237 38.95 216.857 38.14 216.417 38.14C216.197 38.14 215.597 38.4 214.857 40.73L213.767 43.87C213.583 44.4298 213.201 44.9032 212.693 45.2014C212.185 45.4997 211.585 45.6023 211.007 45.49L210.777 45.43C209.613 45.0012 208.386 44.768 207.147 44.74H194.637C194.581 44.74 194.528 44.7179 194.488 44.6785C194.449 44.6391 194.427 44.5857 194.427 44.53V25.78C194.425 25.7516 194.43 25.7232 194.44 25.6966C194.45 25.67 194.465 25.6456 194.484 25.625C194.504 25.6045 194.528 25.5881 194.554 25.5769C194.58 25.5658 194.608 25.56 194.637 25.56H200.637V21.34H183.357V25.56H189.357C189.413 25.5626 189.467 25.5869 189.506 25.6279C189.545 25.6689 189.567 25.7234 189.567 25.78V44.5C189.564 44.5549 189.541 44.607 189.502 44.6458C189.464 44.6847 189.412 44.7076 189.357 44.71H179.787C179.759 44.71 179.732 44.7046 179.706 44.6941C179.681 44.6835 179.658 44.668 179.638 44.6485C179.619 44.629 179.603 44.6059 179.593 44.5804C179.582 44.5549 179.577 44.5276 179.577 44.5V21.34H174.677V44.5C174.674 44.5549 174.651 44.607 174.612 44.6458C174.574 44.6847 174.522 44.7076 174.467 44.71H162.187C162.13 44.7101 162.076 44.6883 162.035 44.6492C161.994 44.6101 161.969 44.5566 161.967 44.5V40.06H152.207C152.179 40.06 152.152 40.0546 152.126 40.0441C152.101 40.0335 152.078 40.018 152.058 39.9985C152.039 39.979 152.023 39.9559 152.013 39.9304C152.002 39.9049 151.997 39.8776 151.997 39.85V35.37C151.999 35.3151 152.022 35.2631 152.061 35.2243C152.1 35.1854 152.152 35.1625 152.207 35.16H160.477V30.8H152.207C152.179 30.8 152.152 30.7946 152.126 30.7841C152.101 30.7735 152.078 30.758 152.058 30.7385C152.039 30.719 152.023 30.6959 152.013 30.6704C152.002 30.6449 151.997 30.6176 151.997 30.59V25.78C151.997 25.7234 152.018 25.6689 152.058 25.6279C152.097 25.5869 152.15 25.5626 152.207 25.56H161.667V21.34H147.097V44.5C147.097 44.5557 147.075 44.6091 147.035 44.6485C146.996 44.6879 146.942 44.71 146.887 44.71H141.497C141.44 44.7101 141.385 44.6883 141.345 44.6492C141.304 44.6101 141.279 44.5566 141.277 44.5V21.34H136.417V30.49C136.417 30.5457 136.395 30.5991 136.355 30.6385C136.316 30.6779 136.262 30.7 136.207 30.7H128.507C128.451 30.7 128.398 30.6779 128.358 30.6385C128.319 30.5991 128.297 30.5457 128.297 30.49V21.34H123.397V44.5C123.397 44.5557 123.375 44.6091 123.335 44.6485C123.296 44.6879 123.242 44.71 123.187 44.71H113.617C113.561 44.71 113.508 44.6879 113.468 44.6485C113.429 44.6091 113.407 44.5557 113.407 44.5V25.78C113.405 25.7516 113.41 25.7232 113.42 25.6966C113.43 25.67 113.445 25.6456 113.464 25.625C113.484 25.6045 113.508 25.5881 113.534 25.5769C113.56 25.5658 113.588 25.56 113.617 25.56H119.617V21.34H102.327V25.56H108.327C108.385 25.56 108.441 25.5832 108.482 25.6245C108.523 25.6657 108.547 25.7217 108.547 25.78V44.5C108.544 44.5566 108.52 44.6101 108.479 44.6492C108.438 44.6883 108.383 44.7101 108.327 44.71H90.0366C89.8866 44.71 86.2966 44.71 85.5566 41.97L84.4166 37.06C84.3185 36.5994 84.1205 36.1659 83.8366 35.79C83.6266 35.53 83.3066 35.24 83.0266 35.31C82.7466 35.38 82.1566 35.92 81.6966 38.62C81.2964 41.2588 80.7624 43.8755 80.0966 46.46C80.0157 46.7732 79.8535 47.0595 79.6266 47.29C79.5095 47.4362 79.3536 47.5465 79.1768 47.6084C79 47.6702 78.8094 47.6812 78.6266 47.64C77.9266 47.46 77.3266 46.45 76.7766 44.56C75.4166 39.81 75.1566 39.25 75.1466 39.23C75.0366 38.92 74.6566 38.11 74.2266 38.11C74.0066 38.11 73.4066 38.37 72.6766 40.7L71.5766 43.84C71.3947 44.399 71.0147 44.8722 70.5082 45.1705C70.0018 45.4689 69.4037 45.5718 68.8266 45.46L68.5966 45.4C67.4294 44.9719 66.1996 44.7388 64.9566 44.71H39.2666C39.2345 44.717 39.2013 44.7167 39.1693 44.7091C39.1373 44.7015 39.1075 44.6869 39.0819 44.6663C39.0563 44.6457 39.0357 44.6196 39.0215 44.59C39.0074 44.5603 39 44.5279 39 44.495C39 44.4622 39.0074 44.4298 39.0215 44.4001C39.0357 44.3705 39.0563 44.3444 39.0819 44.3238C39.1075 44.3032 39.1373 44.2885 39.1693 44.281C39.2013 44.2734 39.2345 44.2731 39.2666 44.28H64.9666C66.2536 44.3095 67.5271 44.5493 68.7366 44.99L68.9266 45.05C69.4029 45.1366 69.8945 45.0476 70.3101 44.7993C70.7257 44.551 71.0371 44.1605 71.1866 43.7L72.2766 40.57C72.8866 38.64 73.5266 37.69 74.2766 37.68C75.0866 37.68 75.5366 38.92 75.5866 39.06C75.6366 39.2 75.8466 39.62 77.2366 44.44C77.8866 46.69 78.4766 47.15 78.7766 47.23C78.889 47.2491 79.0045 47.2367 79.1104 47.1944C79.2162 47.152 79.3084 47.0813 79.3766 46.99C79.556 46.812 79.6808 46.5865 79.7366 46.34C80.4045 43.7728 80.9386 41.1727 81.3366 38.55C81.7166 36.28 82.2566 35.09 82.9766 34.9C83.2566 34.83 83.6966 34.9 84.2166 35.53C84.5387 35.9652 84.7575 36.4679 84.8566 37L85.9666 41.91C86.6166 44.29 89.9666 44.32 90.0366 44.32H108.037V26H102.037C101.981 26 101.928 25.9779 101.888 25.9385C101.849 25.8991 101.827 25.8457 101.827 25.79V21.13C101.827 21.0743 101.849 21.0209 101.888 20.9815C101.928 20.9422 101.981 20.92 102.037 20.92H119.707C119.734 20.92 119.762 20.9255 119.787 20.936C119.812 20.9466 119.836 20.962 119.855 20.9815C119.875 21.001 119.89 21.0242 119.901 21.0497C119.911 21.0752 119.917 21.1025 119.917 21.13V25.78C119.917 25.8076 119.911 25.8349 119.901 25.8604C119.89 25.8859 119.875 25.909 119.855 25.9285C119.836 25.948 119.812 25.9635 119.787 25.9741C119.762 25.9846 119.734 25.99 119.707 25.99H113.707V44.28H122.817V21.13C122.817 21.0743 122.839 21.0209 122.878 20.9815C122.918 20.9422 122.971 20.92 123.027 20.92H128.347C128.375 20.9187 128.403 20.9231 128.43 20.9331C128.457 20.943 128.481 20.9583 128.502 20.9779C128.522 20.9975 128.539 21.0211 128.55 21.0473C128.561 21.0734 128.567 21.1016 128.567 21.13V30.28H135.837V21.13C135.837 21.0743 135.859 21.0209 135.898 20.9815C135.938 20.9422 135.991 20.92 136.047 20.92H141.377C141.404 20.92 141.432 20.9255 141.457 20.936C141.482 20.9466 141.506 20.962 141.525 20.9815C141.545 21.001 141.56 21.0242 141.571 21.0497C141.581 21.0752 141.587 21.1025 141.587 21.13V44.28H146.587V21.13C146.587 21.0743 146.609 21.0209 146.648 20.9815C146.688 20.9422 146.741 20.92 146.797 20.92H161.797C161.852 20.92 161.906 20.9422 161.945 20.9815C161.985 21.0209 162.007 21.0743 162.007 21.13V25.78C162.007 25.8357 161.985 25.8891 161.945 25.9285C161.906 25.9679 161.852 25.99 161.797 25.99H152.417V30.38H160.677C160.732 30.38 160.786 30.4022 160.825 30.4415C160.865 30.4809 160.887 30.5343 160.887 30.59V35.37C160.888 35.3984 160.884 35.4268 160.874 35.4535C160.864 35.4801 160.848 35.5045 160.829 35.525C160.809 35.5456 160.786 35.562 160.759 35.5732C160.733 35.5843 160.705 35.5901 160.677 35.59H152.417V39.59H162.177C162.232 39.59 162.286 39.6122 162.325 39.6515C162.365 39.6909 162.387 39.7443 162.387 39.8V44.23H174.217V21.13C174.217 21.0743 174.239 21.0209 174.278 20.9815C174.318 20.9422 174.371 20.92 174.427 20.92H179.747C179.802 20.92 179.856 20.9422 179.895 20.9815C179.935 21.0209 179.957 21.0743 179.957 21.13V44.28H189.097V26H183.097C183.042 25.9976 182.99 25.9747 182.951 25.9358C182.912 25.897 182.889 25.8449 182.887 25.79V21.13C182.887 21.0743 182.909 21.0209 182.948 20.9815C182.988 20.9422 183.041 20.92 183.097 20.92H200.767C200.795 20.9187 200.823 20.9231 200.85 20.9331C200.877 20.943 200.901 20.9583 200.922 20.9779C200.942 20.9975 200.959 21.0211 200.97 21.0473C200.981 21.0734 200.987 21.1016 200.987 21.13V25.78C200.984 25.8366 200.96 25.8901 200.919 25.9292C200.878 25.9683 200.823 25.9901 200.767 25.99H194.767V44.28H207.067C208.354 44.3104 209.627 44.5502 210.837 44.99L211.027 45.05C211.522 45.1724 212.045 45.1007 212.49 44.8498C212.934 44.5988 213.266 44.1875 213.417 43.7L214.417 40.57C215.027 38.64 215.667 37.69 216.417 37.68C217.227 37.68 217.687 38.92 217.737 39.06C217.787 39.2 217.997 39.62 219.387 44.44C220.027 46.69 220.627 47.15 220.927 47.23C221.039 47.2491 221.155 47.2367 221.26 47.1944C221.366 47.152 221.458 47.0813 221.527 46.99C221.703 46.8095 221.827 46.585 221.887 46.34C222.551 43.7727 223.082 41.1725 223.477 38.55C223.867 36.28 224.397 35.09 225.117 34.9C225.527 34.8 225.947 35.01 226.367 35.53C226.691 35.9513 226.916 36.44 227.027 36.96L228.137 41.87C228.797 44.25 232.187 44.28 232.217 44.28H250.467C250.495 44.28 250.523 44.2858 250.549 44.2969C250.576 44.3081 250.599 44.3245 250.619 44.345C250.638 44.3656 250.654 44.39 250.664 44.4166C250.674 44.4432 250.678 44.4716 250.677 44.5C250.677 44.5557 250.655 44.6091 250.615 44.6485C250.576 44.6879 250.522 44.71 250.467 44.71H232.217C232.067 44.71 228.467 44.71 227.727 41.97L226.617 37.06C226.519 36.5972 226.318 36.1628 226.027 35.79C225.827 35.53 225.527 35.24 225.227 35.31C224.927 35.38 224.357 35.92 223.897 38.62C223.057 43.62 222.497 45.75 222.297 46.46C222.212 46.7715 222.05 47.0568 221.827 47.29C221.728 47.4037 221.607 47.496 221.471 47.5613C221.335 47.6267 221.187 47.6636 221.037 47.67Z"/>
    </mask>
    <path d="M221.037 47.67H220.817C220.127 47.49 219.517 46.48 218.977 44.59C217.607 39.84 217.357 39.28 217.347 39.26C217.237 38.95 216.857 38.14 216.417 38.14C216.197 38.14 215.597 38.4 214.857 40.73L213.767 43.87C213.583 44.4298 213.201 44.9032 212.693 45.2014C212.185 45.4997 211.585 45.6023 211.007 45.49L210.777 45.43C209.613 45.0012 208.386 44.768 207.147 44.74H194.637C194.581 44.74 194.528 44.7179 194.488 44.6785C194.449 44.6391 194.427 44.5857 194.427 44.53V25.78C194.425 25.7516 194.43 25.7232 194.44 25.6966C194.45 25.67 194.465 25.6456 194.484 25.625C194.504 25.6045 194.528 25.5881 194.554 25.5769C194.58 25.5658 194.608 25.56 194.637 25.56H200.637V21.34H183.357V25.56H189.357C189.413 25.5626 189.467 25.5869 189.506 25.6279C189.545 25.6689 189.567 25.7234 189.567 25.78V44.5C189.564 44.5549 189.541 44.607 189.502 44.6458C189.464 44.6847 189.412 44.7076 189.357 44.71H179.787C179.759 44.71 179.732 44.7046 179.706 44.6941C179.681 44.6835 179.658 44.668 179.638 44.6485C179.619 44.629 179.603 44.6059 179.593 44.5804C179.582 44.5549 179.577 44.5276 179.577 44.5V21.34H174.677V44.5C174.674 44.5549 174.651 44.607 174.612 44.6458C174.574 44.6847 174.522 44.7076 174.467 44.71H162.187C162.13 44.7101 162.076 44.6883 162.035 44.6492C161.994 44.6101 161.969 44.5566 161.967 44.5V40.06H152.207C152.179 40.06 152.152 40.0546 152.126 40.0441C152.101 40.0335 152.078 40.018 152.058 39.9985C152.039 39.979 152.023 39.9559 152.013 39.9304C152.002 39.9049 151.997 39.8776 151.997 39.85V35.37C151.999 35.3151 152.022 35.2631 152.061 35.2243C152.1 35.1854 152.152 35.1625 152.207 35.16H160.477V30.8H152.207C152.179 30.8 152.152 30.7946 152.126 30.7841C152.101 30.7735 152.078 30.758 152.058 30.7385C152.039 30.719 152.023 30.6959 152.013 30.6704C152.002 30.6449 151.997 30.6176 151.997 30.59V25.78C151.997 25.7234 152.018 25.6689 152.058 25.6279C152.097 25.5869 152.15 25.5626 152.207 25.56H161.667V21.34H147.097V44.5C147.097 44.5557 147.075 44.6091 147.035 44.6485C146.996 44.6879 146.942 44.71 146.887 44.71H141.497C141.44 44.7101 141.385 44.6883 141.345 44.6492C141.304 44.6101 141.279 44.5566 141.277 44.5V21.34H136.417V30.49C136.417 30.5457 136.395 30.5991 136.355 30.6385C136.316 30.6779 136.262 30.7 136.207 30.7H128.507C128.451 30.7 128.398 30.6779 128.358 30.6385C128.319 30.5991 128.297 30.5457 128.297 30.49V21.34H123.397V44.5C123.397 44.5557 123.375 44.6091 123.335 44.6485C123.296 44.6879 123.242 44.71 123.187 44.71H113.617C113.561 44.71 113.508 44.6879 113.468 44.6485C113.429 44.6091 113.407 44.5557 113.407 44.5V25.78C113.405 25.7516 113.41 25.7232 113.42 25.6966C113.43 25.67 113.445 25.6456 113.464 25.625C113.484 25.6045 113.508 25.5881 113.534 25.5769C113.56 25.5658 113.588 25.56 113.617 25.56H119.617V21.34H102.327V25.56H108.327C108.385 25.56 108.441 25.5832 108.482 25.6245C108.523 25.6657 108.547 25.7217 108.547 25.78V44.5C108.544 44.5566 108.52 44.6101 108.479 44.6492C108.438 44.6883 108.383 44.7101 108.327 44.71H90.0366C89.8866 44.71 86.2966 44.71 85.5566 41.97L84.4166 37.06C84.3185 36.5994 84.1205 36.1659 83.8366 35.79C83.6266 35.53 83.3066 35.24 83.0266 35.31C82.7466 35.38 82.1566 35.92 81.6966 38.62C81.2964 41.2588 80.7624 43.8755 80.0966 46.46C80.0157 46.7732 79.8535 47.0595 79.6266 47.29C79.5095 47.4362 79.3536 47.5465 79.1768 47.6084C79 47.6702 78.8094 47.6812 78.6266 47.64C77.9266 47.46 77.3266 46.45 76.7766 44.56C75.4166 39.81 75.1566 39.25 75.1466 39.23C75.0366 38.92 74.6566 38.11 74.2266 38.11C74.0066 38.11 73.4066 38.37 72.6766 40.7L71.5766 43.84C71.3947 44.399 71.0147 44.8722 70.5082 45.1705C70.0018 45.4689 69.4037 45.5718 68.8266 45.46L68.5966 45.4C67.4294 44.9719 66.1996 44.7388 64.9566 44.71H39.2666C39.2345 44.717 39.2013 44.7167 39.1693 44.7091C39.1373 44.7015 39.1075 44.6869 39.0819 44.6663C39.0563 44.6457 39.0357 44.6196 39.0215 44.59C39.0074 44.5603 39 44.5279 39 44.495C39 44.4622 39.0074 44.4298 39.0215 44.4001C39.0357 44.3705 39.0563 44.3444 39.0819 44.3238C39.1075 44.3032 39.1373 44.2885 39.1693 44.281C39.2013 44.2734 39.2345 44.2731 39.2666 44.28H64.9666C66.2536 44.3095 67.5271 44.5493 68.7366 44.99L68.9266 45.05C69.4029 45.1366 69.8945 45.0476 70.3101 44.7993C70.7257 44.551 71.0371 44.1605 71.1866 43.7L72.2766 40.57C72.8866 38.64 73.5266 37.69 74.2766 37.68C75.0866 37.68 75.5366 38.92 75.5866 39.06C75.6366 39.2 75.8466 39.62 77.2366 44.44C77.8866 46.69 78.4766 47.15 78.7766 47.23C78.889 47.2491 79.0045 47.2367 79.1104 47.1944C79.2162 47.152 79.3084 47.0813 79.3766 46.99C79.556 46.812 79.6808 46.5865 79.7366 46.34C80.4045 43.7728 80.9386 41.1727 81.3366 38.55C81.7166 36.28 82.2566 35.09 82.9766 34.9C83.2566 34.83 83.6966 34.9 84.2166 35.53C84.5387 35.9652 84.7575 36.4679 84.8566 37L85.9666 41.91C86.6166 44.29 89.9666 44.32 90.0366 44.32H108.037V26H102.037C101.981 26 101.928 25.9779 101.888 25.9385C101.849 25.8991 101.827 25.8457 101.827 25.79V21.13C101.827 21.0743 101.849 21.0209 101.888 20.9815C101.928 20.9422 101.981 20.92 102.037 20.92H119.707C119.734 20.92 119.762 20.9255 119.787 20.936C119.812 20.9466 119.836 20.962 119.855 20.9815C119.875 21.001 119.89 21.0242 119.901 21.0497C119.911 21.0752 119.917 21.1025 119.917 21.13V25.78C119.917 25.8076 119.911 25.8349 119.901 25.8604C119.89 25.8859 119.875 25.909 119.855 25.9285C119.836 25.948 119.812 25.9635 119.787 25.9741C119.762 25.9846 119.734 25.99 119.707 25.99H113.707V44.28H122.817V21.13C122.817 21.0743 122.839 21.0209 122.878 20.9815C122.918 20.9422 122.971 20.92 123.027 20.92H128.347C128.375 20.9187 128.403 20.9231 128.43 20.9331C128.457 20.943 128.481 20.9583 128.502 20.9779C128.522 20.9975 128.539 21.0211 128.55 21.0473C128.561 21.0734 128.567 21.1016 128.567 21.13V30.28H135.837V21.13C135.837 21.0743 135.859 21.0209 135.898 20.9815C135.938 20.9422 135.991 20.92 136.047 20.92H141.377C141.404 20.92 141.432 20.9255 141.457 20.936C141.482 20.9466 141.506 20.962 141.525 20.9815C141.545 21.001 141.56 21.0242 141.571 21.0497C141.581 21.0752 141.587 21.1025 141.587 21.13V44.28H146.587V21.13C146.587 21.0743 146.609 21.0209 146.648 20.9815C146.688 20.9422 146.741 20.92 146.797 20.92H161.797C161.852 20.92 161.906 20.9422 161.945 20.9815C161.985 21.0209 162.007 21.0743 162.007 21.13V25.78C162.007 25.8357 161.985 25.8891 161.945 25.9285C161.906 25.9679 161.852 25.99 161.797 25.99H152.417V30.38H160.677C160.732 30.38 160.786 30.4022 160.825 30.4415C160.865 30.4809 160.887 30.5343 160.887 30.59V35.37C160.888 35.3984 160.884 35.4268 160.874 35.4535C160.864 35.4801 160.848 35.5045 160.829 35.525C160.809 35.5456 160.786 35.562 160.759 35.5732C160.733 35.5843 160.705 35.5901 160.677 35.59H152.417V39.59H162.177C162.232 39.59 162.286 39.6122 162.325 39.6515C162.365 39.6909 162.387 39.7443 162.387 39.8V44.23H174.217V21.13C174.217 21.0743 174.239 21.0209 174.278 20.9815C174.318 20.9422 174.371 20.92 174.427 20.92H179.747C179.802 20.92 179.856 20.9422 179.895 20.9815C179.935 21.0209 179.957 21.0743 179.957 21.13V44.28H189.097V26H183.097C183.042 25.9976 182.99 25.9747 182.951 25.9358C182.912 25.897 182.889 25.8449 182.887 25.79V21.13C182.887 21.0743 182.909 21.0209 182.948 20.9815C182.988 20.9422 183.041 20.92 183.097 20.92H200.767C200.795 20.9187 200.823 20.9231 200.85 20.9331C200.877 20.943 200.901 20.9583 200.922 20.9779C200.942 20.9975 200.959 21.0211 200.97 21.0473C200.981 21.0734 200.987 21.1016 200.987 21.13V25.78C200.984 25.8366 200.96 25.8901 200.919 25.9292C200.878 25.9683 200.823 25.9901 200.767 25.99H194.767V44.28H207.067C208.354 44.3104 209.627 44.5502 210.837 44.99L211.027 45.05C211.522 45.1724 212.045 45.1007 212.49 44.8498C212.934 44.5988 213.266 44.1875 213.417 43.7L214.417 40.57C215.027 38.64 215.667 37.69 216.417 37.68C217.227 37.68 217.687 38.92 217.737 39.06C217.787 39.2 217.997 39.62 219.387 44.44C220.027 46.69 220.627 47.15 220.927 47.23C221.039 47.2491 221.155 47.2367 221.26 47.1944C221.366 47.152 221.458 47.0813 221.527 46.99C221.703 46.8095 221.827 46.585 221.887 46.34C222.551 43.7727 223.082 41.1725 223.477 38.55C223.867 36.28 224.397 35.09 225.117 34.9C225.527 34.8 225.947 35.01 226.367 35.53C226.691 35.9513 226.916 36.44 227.027 36.96L228.137 41.87C228.797 44.25 232.187 44.28 232.217 44.28H250.467C250.495 44.28 250.523 44.2858 250.549 44.2969C250.576 44.3081 250.599 44.3245 250.619 44.345C250.638 44.3656 250.654 44.39 250.664 44.4166C250.674 44.4432 250.678 44.4716 250.677 44.5C250.677 44.5557 250.655 44.6091 250.615 44.6485C250.576 44.6879 250.522 44.71 250.467 44.71H232.217C232.067 44.71 228.467 44.71 227.727 41.97L226.617 37.06C226.519 36.5972 226.318 36.1628 226.027 35.79C225.827 35.53 225.527 35.24 225.227 35.31C224.927 35.38 224.357 35.92 223.897 38.62C223.057 43.62 222.497 45.75 222.297 46.46C222.212 46.7715 222.05 47.0568 221.827 47.29C221.728 47.4037 221.607 47.496 221.471 47.5613C221.335 47.6267 221.187 47.6636 221.037 47.67Z" fill="white"/>
    <path d="M221.037 47.67H220.817C220.127 47.49 219.517 46.48 218.977 44.59C217.607 39.84 217.357 39.28 217.347 39.26C217.237 38.95 216.857 38.14 216.417 38.14C216.197 38.14 215.597 38.4 214.857 40.73L213.767 43.87C213.583 44.4298 213.201 44.9032 212.693 45.2014C212.185 45.4997 211.585 45.6023 211.007 45.49L210.777 45.43C209.613 45.0012 208.386 44.768 207.147 44.74H194.637C194.581 44.74 194.528 44.7179 194.488 44.6785C194.449 44.6391 194.427 44.5857 194.427 44.53V25.78C194.425 25.7516 194.43 25.7232 194.44 25.6966C194.45 25.67 194.465 25.6456 194.484 25.625C194.504 25.6045 194.528 25.5881 194.554 25.5769C194.58 25.5658 194.608 25.56 194.637 25.56H200.637V21.34H183.357V25.56H189.357C189.413 25.5626 189.467 25.5869 189.506 25.6279C189.545 25.6689 189.567 25.7234 189.567 25.78V44.5C189.564 44.5549 189.541 44.607 189.502 44.6458C189.464 44.6847 189.412 44.7076 189.357 44.71H179.787C179.759 44.71 179.732 44.7046 179.706 44.6941C179.681 44.6835 179.658 44.668 179.638 44.6485C179.619 44.629 179.603 44.6059 179.593 44.5804C179.582 44.5549 179.577 44.5276 179.577 44.5V21.34H174.677V44.5C174.674 44.5549 174.651 44.607 174.612 44.6458C174.574 44.6847 174.522 44.7076 174.467 44.71H162.187C162.13 44.7101 162.076 44.6883 162.035 44.6492C161.994 44.6101 161.969 44.5566 161.967 44.5V40.06H152.207C152.179 40.06 152.152 40.0546 152.126 40.0441C152.101 40.0335 152.078 40.018 152.058 39.9985C152.039 39.979 152.023 39.9559 152.013 39.9304C152.002 39.9049 151.997 39.8776 151.997 39.85V35.37C151.999 35.3151 152.022 35.2631 152.061 35.2243C152.1 35.1854 152.152 35.1625 152.207 35.16H160.477V30.8H152.207C152.179 30.8 152.152 30.7946 152.126 30.7841C152.101 30.7735 152.078 30.758 152.058 30.7385C152.039 30.719 152.023 30.6959 152.013 30.6704C152.002 30.6449 151.997 30.6176 151.997 30.59V25.78C151.997 25.7234 152.018 25.6689 152.058 25.6279C152.097 25.5869 152.15 25.5626 152.207 25.56H161.667V21.34H147.097V44.5C147.097 44.5557 147.075 44.6091 147.035 44.6485C146.996 44.6879 146.942 44.71 146.887 44.71H141.497C141.44 44.7101 141.385 44.6883 141.345 44.6492C141.304 44.6101 141.279 44.5566 141.277 44.5V21.34H136.417V30.49C136.417 30.5457 136.395 30.5991 136.355 30.6385C136.316 30.6779 136.262 30.7 136.207 30.7H128.507C128.451 30.7 128.398 30.6779 128.358 30.6385C128.319 30.5991 128.297 30.5457 128.297 30.49V21.34H123.397V44.5C123.397 44.5557 123.375 44.6091 123.335 44.6485C123.296 44.6879 123.242 44.71 123.187 44.71H113.617C113.561 44.71 113.508 44.6879 113.468 44.6485C113.429 44.6091 113.407 44.5557 113.407 44.5V25.78C113.405 25.7516 113.41 25.7232 113.42 25.6966C113.43 25.67 113.445 25.6456 113.464 25.625C113.484 25.6045 113.508 25.5881 113.534 25.5769C113.56 25.5658 113.588 25.56 113.617 25.56H119.617V21.34H102.327V25.56H108.327C108.385 25.56 108.441 25.5832 108.482 25.6245C108.523 25.6657 108.547 25.7217 108.547 25.78V44.5C108.544 44.5566 108.52 44.6101 108.479 44.6492C108.438 44.6883 108.383 44.7101 108.327 44.71H90.0366C89.8866 44.71 86.2966 44.71 85.5566 41.97L84.4166 37.06C84.3185 36.5994 84.1205 36.1659 83.8366 35.79C83.6266 35.53 83.3066 35.24 83.0266 35.31C82.7466 35.38 82.1566 35.92 81.6966 38.62C81.2964 41.2588 80.7624 43.8755 80.0966 46.46C80.0157 46.7732 79.8535 47.0595 79.6266 47.29C79.5095 47.4362 79.3536 47.5465 79.1768 47.6084C79 47.6702 78.8094 47.6812 78.6266 47.64C77.9266 47.46 77.3266 46.45 76.7766 44.56C75.4166 39.81 75.1566 39.25 75.1466 39.23C75.0366 38.92 74.6566 38.11 74.2266 38.11C74.0066 38.11 73.4066 38.37 72.6766 40.7L71.5766 43.84C71.3947 44.399 71.0147 44.8722 70.5082 45.1705C70.0018 45.4689 69.4037 45.5718 68.8266 45.46L68.5966 45.4C67.4294 44.9719 66.1996 44.7388 64.9566 44.71H39.2666C39.2345 44.717 39.2013 44.7167 39.1693 44.7091C39.1373 44.7015 39.1075 44.6869 39.0819 44.6663C39.0563 44.6457 39.0357 44.6196 39.0215 44.59C39.0074 44.5603 39 44.5279 39 44.495C39 44.4622 39.0074 44.4298 39.0215 44.4001C39.0357 44.3705 39.0563 44.3444 39.0819 44.3238C39.1075 44.3032 39.1373 44.2885 39.1693 44.281C39.2013 44.2734 39.2345 44.2731 39.2666 44.28H64.9666C66.2536 44.3095 67.5271 44.5493 68.7366 44.99L68.9266 45.05C69.4029 45.1366 69.8945 45.0476 70.3101 44.7993C70.7257 44.551 71.0371 44.1605 71.1866 43.7L72.2766 40.57C72.8866 38.64 73.5266 37.69 74.2766 37.68C75.0866 37.68 75.5366 38.92 75.5866 39.06C75.6366 39.2 75.8466 39.62 77.2366 44.44C77.8866 46.69 78.4766 47.15 78.7766 47.23C78.889 47.2491 79.0045 47.2367 79.1104 47.1944C79.2162 47.152 79.3084 47.0813 79.3766 46.99C79.556 46.812 79.6808 46.5865 79.7366 46.34C80.4045 43.7728 80.9386 41.1727 81.3366 38.55C81.7166 36.28 82.2566 35.09 82.9766 34.9C83.2566 34.83 83.6966 34.9 84.2166 35.53C84.5387 35.9652 84.7575 36.4679 84.8566 37L85.9666 41.91C86.6166 44.29 89.9666 44.32 90.0366 44.32H108.037V26H102.037C101.981 26 101.928 25.9779 101.888 25.9385C101.849 25.8991 101.827 25.8457 101.827 25.79V21.13C101.827 21.0743 101.849 21.0209 101.888 20.9815C101.928 20.9422 101.981 20.92 102.037 20.92H119.707C119.734 20.92 119.762 20.9255 119.787 20.936C119.812 20.9466 119.836 20.962 119.855 20.9815C119.875 21.001 119.89 21.0242 119.901 21.0497C119.911 21.0752 119.917 21.1025 119.917 21.13V25.78C119.917 25.8076 119.911 25.8349 119.901 25.8604C119.89 25.8859 119.875 25.909 119.855 25.9285C119.836 25.948 119.812 25.9635 119.787 25.9741C119.762 25.9846 119.734 25.99 119.707 25.99H113.707V44.28H122.817V21.13C122.817 21.0743 122.839 21.0209 122.878 20.9815C122.918 20.9422 122.971 20.92 123.027 20.92H128.347C128.375 20.9187 128.403 20.9231 128.43 20.9331C128.457 20.943 128.481 20.9583 128.502 20.9779C128.522 20.9975 128.539 21.0211 128.55 21.0473C128.561 21.0734 128.567 21.1016 128.567 21.13V30.28H135.837V21.13C135.837 21.0743 135.859 21.0209 135.898 20.9815C135.938 20.9422 135.991 20.92 136.047 20.92H141.377C141.404 20.92 141.432 20.9255 141.457 20.936C141.482 20.9466 141.506 20.962 141.525 20.9815C141.545 21.001 141.56 21.0242 141.571 21.0497C141.581 21.0752 141.587 21.1025 141.587 21.13V44.28H146.587V21.13C146.587 21.0743 146.609 21.0209 146.648 20.9815C146.688 20.9422 146.741 20.92 146.797 20.92H161.797C161.852 20.92 161.906 20.9422 161.945 20.9815C161.985 21.0209 162.007 21.0743 162.007 21.13V25.78C162.007 25.8357 161.985 25.8891 161.945 25.9285C161.906 25.9679 161.852 25.99 161.797 25.99H152.417V30.38H160.677C160.732 30.38 160.786 30.4022 160.825 30.4415C160.865 30.4809 160.887 30.5343 160.887 30.59V35.37C160.888 35.3984 160.884 35.4268 160.874 35.4535C160.864 35.4801 160.848 35.5045 160.829 35.525C160.809 35.5456 160.786 35.562 160.759 35.5732C160.733 35.5843 160.705 35.5901 160.677 35.59H152.417V39.59H162.177C162.232 39.59 162.286 39.6122 162.325 39.6515C162.365 39.6909 162.387 39.7443 162.387 39.8V44.23H174.217V21.13C174.217 21.0743 174.239 21.0209 174.278 20.9815C174.318 20.9422 174.371 20.92 174.427 20.92H179.747C179.802 20.92 179.856 20.9422 179.895 20.9815C179.935 21.0209 179.957 21.0743 179.957 21.13V44.28H189.097V26H183.097C183.042 25.9976 182.99 25.9747 182.951 25.9358C182.912 25.897 182.889 25.8449 182.887 25.79V21.13C182.887 21.0743 182.909 21.0209 182.948 20.9815C182.988 20.9422 183.041 20.92 183.097 20.92H200.767C200.795 20.9187 200.823 20.9231 200.85 20.9331C200.877 20.943 200.901 20.9583 200.922 20.9779C200.942 20.9975 200.959 21.0211 200.97 21.0473C200.981 21.0734 200.987 21.1016 200.987 21.13V25.78C200.984 25.8366 200.96 25.8901 200.919 25.9292C200.878 25.9683 200.823 25.9901 200.767 25.99H194.767V44.28H207.067C208.354 44.3104 209.627 44.5502 210.837 44.99L211.027 45.05C211.522 45.1724 212.045 45.1007 212.49 44.8498C212.934 44.5988 213.266 44.1875 213.417 43.7L214.417 40.57C215.027 38.64 215.667 37.69 216.417 37.68C217.227 37.68 217.687 38.92 217.737 39.06C217.787 39.2 217.997 39.62 219.387 44.44C220.027 46.69 220.627 47.15 220.927 47.23C221.039 47.2491 221.155 47.2367 221.26 47.1944C221.366 47.152 221.458 47.0813 221.527 46.99C221.703 46.8095 221.827 46.585 221.887 46.34C222.551 43.7727 223.082 41.1725 223.477 38.55C223.867 36.28 224.397 35.09 225.117 34.9C225.527 34.8 225.947 35.01 226.367 35.53C226.691 35.9513 226.916 36.44 227.027 36.96L228.137 41.87C228.797 44.25 232.187 44.28 232.217 44.28H250.467C250.495 44.28 250.523 44.2858 250.549 44.2969C250.576 44.3081 250.599 44.3245 250.619 44.345C250.638 44.3656 250.654 44.39 250.664 44.4166C250.674 44.4432 250.678 44.4716 250.677 44.5C250.677 44.5557 250.655 44.6091 250.615 44.6485C250.576 44.6879 250.522 44.71 250.467 44.71H232.217C232.067 44.71 228.467 44.71 227.727 41.97L226.617 37.06C226.519 36.5972 226.318 36.1628 226.027 35.79C225.827 35.53 225.527 35.24 225.227 35.31C224.927 35.38 224.357 35.92 223.897 38.62C223.057 43.62 222.497 45.75 222.297 46.46C222.212 46.7715 222.05 47.0568 221.827 47.29C221.728 47.4037 221.607 47.496 221.471 47.5613C221.335 47.6267 221.187 47.6636 221.037 47.67Z" stroke="white" stroke-width="0.4" mask="url(#path-44-outside-1_933_4273)"/>
    <path d="M49.2418 91.0698L49.267 91.0709L49.2917 91.0656C49.3842 91.0458 49.4684 90.9987 49.5334 90.9306C49.6261 90.8614 49.6917 90.7613 49.7178 90.648C49.7462 90.5253 49.7262 90.3964 49.662 90.2881L49.6621 90.288L49.6574 90.2807L42.1174 78.7307L42.1129 78.7239L42.108 78.7174C42.0611 78.6571 42.0013 78.608 41.933 78.5738C41.8647 78.5396 41.7895 78.5213 41.7131 78.52L41.7131 78.52H41.7099H40.1799C40.0526 78.52 39.9305 78.5706 39.8405 78.6606C39.7505 78.7506 39.6999 78.8727 39.6999 79V90.59H39.6998L39.7 90.5968C39.7042 90.7209 39.7554 90.8388 39.8433 90.9266C39.9311 91.0145 40.049 91.0657 40.1731 91.0699L40.1731 91.07H40.1799C40.3072 91.07 40.4293 91.0194 40.5193 90.9294C40.6093 90.8394 40.6599 90.7173 40.6599 90.59V79.52H41.4516L48.8424 90.8493L48.8423 90.8494L48.847 90.856C48.8921 90.9194 48.9511 90.9716 49.0196 91.0087C49.088 91.0458 49.164 91.0667 49.2418 91.0698ZM40.1799 63.76V63.7599L40.173 63.7601C40.046 63.7645 39.9257 63.8181 39.8374 63.9095C39.7491 64.0009 39.6999 64.123 39.6999 64.25C39.6999 64.25 39.6999 64.2501 39.6999 64.2501L39.6999 73.12C39.6999 73.2473 39.7505 73.3694 39.8405 73.4594C39.9305 73.5494 40.0526 73.6 40.1799 73.6H44.9999C46.7531 73.6 48.0578 73.0021 48.9237 72.0902C49.7861 71.182 50.1991 69.9772 50.1999 68.7835C50.2227 68.1183 50.1086 67.4554 49.8646 66.8361C49.6202 66.2156 49.2508 65.6521 48.7793 65.1806C48.3078 64.7091 47.7443 64.3397 47.1238 64.0953C46.5045 63.8513 45.8417 63.7372 45.1764 63.76H40.1799ZM49.2501 68.7709L49.2499 68.7709V68.78C49.2499 69.6761 48.9693 70.6401 48.3062 71.3775C47.6472 72.1104 46.5921 72.64 44.9999 72.64H40.7087L40.6611 64.73H45.1999V64.7302L45.209 64.7298C45.7461 64.7055 46.2824 64.7933 46.7838 64.9878C47.2851 65.1823 47.7404 65.4791 48.1206 65.8593C48.5008 66.2395 48.7976 66.6948 48.9921 67.1961C49.1866 67.6974 49.2744 68.2338 49.2501 68.7709Z" fill="#F69E0F" stroke="#F69E0F" stroke-width="0.4"/>
    <path d="M111.289 91.07L111.299 91.07L111.31 91.069L111.41 91.059L111.434 91.0566L111.457 91.0485C111.576 91.0062 111.675 90.9191 111.732 90.8057C111.788 90.6923 111.799 90.5613 111.761 90.4402L111.76 90.4382L109.28 82.7982L109.28 82.7982L109.278 82.791C109.243 82.6975 109.181 82.6166 109.1 82.5592C109.018 82.5019 108.921 82.4707 108.822 82.47H108.82H97.2701V82.4699L97.2661 82.47C97.1644 82.472 97.0658 82.5056 96.9841 82.5662C96.9023 82.6267 96.8415 82.7112 96.8099 82.8079L96.8096 82.809L94.3725 90.4299C94.3482 90.4882 94.3357 90.5508 94.3356 90.6141C94.3356 90.6816 94.3498 90.7483 94.3773 90.81C94.4048 90.8716 94.445 90.9267 94.4953 90.9718C94.5456 91.0168 94.6048 91.0508 94.669 91.0714C94.7333 91.092 94.8012 91.0988 94.8683 91.0914C94.9354 91.084 95.0001 91.0625 95.0584 91.0284C95.1166 90.9943 95.167 90.9483 95.2062 90.8933C95.243 90.8418 95.2693 90.7835 95.2834 90.7218L97.6161 83.43H108.455L110.83 90.7417L110.83 90.7418L110.832 90.7489C110.867 90.8425 110.929 90.9233 111.01 90.9807C111.092 91.038 111.189 91.0692 111.289 91.07ZM99.3086 76.94H99.3101H106.694C106.777 76.9517 106.862 76.9422 106.941 76.9123C107.026 76.88 107.101 76.825 107.157 76.7534L107.174 76.7325L107.184 76.7081C107.211 76.6438 107.225 76.5747 107.225 76.505C107.225 76.4386 107.213 76.3728 107.188 76.3113L103.472 64.7228C103.444 64.6253 103.386 64.5392 103.306 64.4774C103.224 64.4145 103.124 64.3803 103.021 64.38L103.019 64.38C102.916 64.3803 102.816 64.4145 102.734 64.4774C102.654 64.5393 102.596 64.6255 102.568 64.7232L98.8919 76.3116C98.8673 76.373 98.8546 76.4387 98.8546 76.505C98.8546 76.5748 98.8687 76.6438 98.896 76.7081L98.9071 76.7344L98.9253 76.7566C98.9718 76.8134 99.0302 76.8593 99.0965 76.891C99.1628 76.9227 99.2352 76.9394 99.3086 76.94ZM99.9832 75.98L103.001 66.4488L106.056 75.98H99.9832Z" fill="#F69E0F" stroke="#F69E0F" stroke-width="0.4"/>
    <path d="M198.06 75.7502C198.06 75.6449 198.025 75.5427 197.96 75.4599L189.813 63.9643L189.813 63.9643L189.812 63.9628C189.767 63.9011 189.709 63.8507 189.641 63.8155C189.574 63.7803 189.499 63.7613 189.423 63.76V63.76H189.42H175.33V63.7598L175.323 63.7601C175.196 63.7645 175.076 63.818 174.987 63.9094C174.899 64.0009 174.85 64.123 174.85 64.25V90.59V90.6086L174.853 90.6269C174.874 90.7392 174.934 90.8406 175.022 90.9135C175.11 90.9864 175.221 91.0263 175.335 91.0263C175.449 91.0263 175.56 90.9864 175.648 90.9135C175.736 90.8406 175.795 90.7392 175.816 90.6269L175.82 90.6086V90.59V64.73H189.186L197.09 75.9035V90.59H197.09L197.09 90.5967C197.094 90.7209 197.145 90.8388 197.233 90.9266C197.321 91.0144 197.439 91.0656 197.563 91.0698L197.563 91.07L197.57 91.07C197.697 91.07 197.819 91.0207 197.91 90.9325C198.002 90.8442 198.055 90.7239 198.06 90.5969L198.06 90.5969V90.59V75.7502ZM198.06 75.7502L197.86 75.75M198.06 75.7502V75.75H197.86M197.86 75.75V90.59L197.8 75.58C197.839 75.6281 197.86 75.6881 197.86 75.75Z" fill="#F69E0F" stroke="#F69E0F" stroke-width="0.4"/>
    <mask id="path-48-outside-2_933_4273" maskUnits="userSpaceOnUse" x="15.8999" y="56.4099" width="215" height="35" fill="black">
    <rect fill="white" x="15.8999" y="56.4099" width="215" height="35"/>
    <path d="M229.87 90.87H205.11C205.036 90.8675 204.967 90.8372 204.915 90.7853C204.863 90.7333 204.832 90.6635 204.83 90.59V75.89C204.814 75.8378 204.814 75.7822 204.83 75.73L217.4 58H209.18L201.53 70C201.504 70.0404 201.469 70.0735 201.427 70.0963C201.385 70.119 201.338 70.1306 201.29 70.13C201.244 70.129 201.199 70.1166 201.159 70.0939C201.118 70.0712 201.085 70.039 201.06 70L193.55 58H159.44V64H167.84C167.878 64 167.915 64.0076 167.949 64.0223C167.984 64.037 168.015 64.0585 168.042 64.0855C168.068 64.1126 168.088 64.1447 168.102 64.1798C168.115 64.2149 168.121 64.2524 168.12 64.29V90.59C168.12 90.6643 168.09 90.7355 168.038 90.788C167.985 90.8405 167.914 90.87 167.84 90.87H154.38C154.306 90.8675 154.237 90.8372 154.185 90.7853C154.133 90.7333 154.102 90.6635 154.1 90.59V58H147.17V90.6C147.17 90.6743 147.14 90.7455 147.088 90.798C147.035 90.8505 146.964 90.88 146.89 90.88H142.17C142.095 90.8801 142.022 90.8509 141.968 90.7987C141.914 90.7464 141.882 90.6752 141.88 90.6V84.33H130.09C130.016 84.33 129.944 84.3005 129.892 84.248C129.839 84.1955 129.81 84.1243 129.81 84.05V58H122.88V90.6C122.88 90.6743 122.85 90.7455 122.798 90.798C122.745 90.8505 122.674 90.88 122.6 90.88H119.26C119.202 90.8818 119.145 90.8654 119.096 90.8331C119.048 90.8009 119.011 90.7544 118.99 90.7L106.99 58H99.1699L87.0699 90.7C87.051 90.7536 87.0157 90.7998 86.969 90.8321C86.9223 90.8644 86.8667 90.8812 86.8099 90.88H84.8099C84.7356 90.88 84.6644 90.8505 84.6119 90.798C84.5594 90.7455 84.5299 90.6743 84.5299 90.6V84.33H70.8199C70.7456 84.33 70.6744 84.3005 70.6219 84.248C70.5694 84.1955 70.5399 84.1243 70.5399 84.05V77.75C70.5399 77.6758 70.5694 77.6046 70.6219 77.552C70.6744 77.4995 70.7456 77.47 70.8199 77.47H82.4699V71.3H70.8199C70.7456 71.3 70.6744 71.2705 70.6219 71.218C70.5694 71.1655 70.5399 71.0943 70.5399 71.02V64.25C70.5399 64.1748 70.569 64.1025 70.6213 64.0484C70.6735 63.9943 70.7447 63.9626 70.8199 63.96H84.1399V58H63.6099V90.6C63.6074 90.6735 63.5771 90.7433 63.5251 90.7953C63.4732 90.8472 63.4034 90.8775 63.3299 90.88H57.9999C57.9546 90.881 57.9097 90.8704 57.8695 90.8495C57.8294 90.8285 57.7951 90.7977 57.7699 90.76L49.3299 78.76C49.308 78.7202 49.2965 78.6755 49.2965 78.63C49.2965 78.5846 49.308 78.5399 49.3299 78.5C49.3469 78.4565 49.3739 78.4176 49.4086 78.3864C49.4433 78.3551 49.4849 78.3324 49.5299 78.32C53.6499 77.4 56.9999 73.03 56.9999 68.58C56.9999 63.3 53.6599 57.98 46.2099 57.98H32.9999V90.58C32.9999 90.6543 32.9704 90.7255 32.9179 90.778C32.8654 90.8305 32.7942 90.86 32.7199 90.86H17.1899C17.1147 90.8601 17.0424 90.8309 16.9883 90.7787C16.9342 90.7264 16.9025 90.6552 16.8999 90.58C16.8999 90.5424 16.9074 90.5052 16.9221 90.4705C16.9368 90.4359 16.9583 90.4046 16.9854 90.3784C17.0125 90.3523 17.0445 90.3319 17.0797 90.3184C17.1148 90.3049 17.1523 90.2987 17.1899 90.3H32.4099V57.71C32.4085 57.6729 32.4148 57.6359 32.4284 57.6013C32.4419 57.5666 32.4625 57.5352 32.4888 57.5089C32.5151 57.4826 32.5465 57.4621 32.5811 57.4485C32.6157 57.4349 32.6528 57.4286 32.6899 57.43H46.1499C53.9999 57.43 57.4999 63 57.4999 68.59C57.4817 70.8619 56.7469 73.07 55.4002 74.8997C54.0535 76.7294 52.1636 78.0874 49.9999 78.78L58.1299 90.31H63.0499V57.71C63.0485 57.6729 63.0548 57.6359 63.0684 57.6013C63.0819 57.5666 63.1025 57.5352 63.1288 57.5089C63.1551 57.4826 63.1865 57.4621 63.2211 57.4485C63.2557 57.4349 63.2928 57.4286 63.3299 57.43H84.4199C84.457 57.4286 84.4941 57.4349 84.5287 57.4485C84.5633 57.4621 84.5947 57.4826 84.621 57.5089C84.6473 57.5352 84.6679 57.5666 84.6814 57.6013C84.695 57.6359 84.7013 57.6729 84.6999 57.71V64.25C84.6999 64.3243 84.6704 64.3955 84.6179 64.448C84.5654 64.5005 84.4942 64.53 84.4199 64.53H71.0999V70.74H82.7499C82.8155 70.747 82.8766 70.7768 82.9223 70.8244C82.9681 70.872 82.9956 70.9342 82.9999 71V77.73C83.0013 77.7672 82.995 77.8042 82.9814 77.8388C82.9679 77.8734 82.9473 77.9049 82.921 77.9312C82.8947 77.9574 82.8633 77.978 82.8287 77.9916C82.7941 78.0052 82.757 78.0114 82.7199 78.01H71.0999V83.75H84.8499C84.887 83.7486 84.9241 83.7549 84.9587 83.7685C84.9933 83.7821 85.0247 83.8026 85.051 83.8289C85.0773 83.8552 85.0979 83.8866 85.1115 83.9212C85.125 83.9559 85.1313 83.9929 85.1299 84.03V90.29H86.6099L98.7099 57.59C98.7306 57.5357 98.7678 57.4892 98.8162 57.4569C98.8646 57.4247 98.9218 57.4083 98.9799 57.41H107.14C107.197 57.4089 107.252 57.4257 107.299 57.458C107.346 57.4903 107.381 57.5365 107.4 57.59L119.4 90.29H122.27V57.71C122.268 57.6729 122.275 57.6359 122.288 57.6013C122.302 57.5666 122.323 57.5352 122.349 57.5089C122.375 57.4826 122.407 57.4621 122.441 57.4485C122.476 57.4349 122.513 57.4286 122.55 57.43H130.04C130.077 57.4286 130.114 57.4349 130.149 57.4485C130.183 57.4621 130.215 57.4826 130.241 57.5089C130.267 57.5352 130.288 57.5666 130.301 57.6013C130.315 57.6359 130.321 57.6729 130.32 57.71V83.77H142.12C142.194 83.77 142.265 83.7995 142.318 83.8521C142.37 83.9046 142.4 83.9758 142.4 84.05V90.31H146.56V57.71C146.56 57.6358 146.589 57.5646 146.642 57.512C146.694 57.4595 146.766 57.43 146.84 57.43H154.33C154.368 57.4287 154.405 57.4349 154.44 57.4484C154.475 57.4619 154.507 57.4823 154.534 57.5084C154.561 57.5346 154.583 57.5659 154.598 57.6005C154.612 57.6352 154.62 57.6724 154.62 57.71V90.31H167.51V64.53H159.11C159.035 64.5301 158.962 64.5009 158.908 64.4487C158.854 64.3964 158.823 64.3252 158.82 64.25V57.71C158.82 57.6724 158.827 57.6352 158.842 57.6005C158.857 57.5659 158.878 57.5346 158.905 57.5084C158.932 57.4823 158.965 57.4619 159 57.4484C159.035 57.4349 159.072 57.4287 159.11 57.43H193.66C193.707 57.432 193.753 57.4447 193.795 57.4672C193.837 57.4897 193.872 57.5215 193.9 57.56L201.3 69.3L208.79 57.56C208.815 57.5211 208.848 57.4889 208.889 57.4662C208.929 57.4435 208.974 57.4311 209.02 57.43H218C218.051 57.43 218.101 57.444 218.145 57.4705C218.189 57.497 218.225 57.535 218.248 57.5803C218.272 57.6257 218.283 57.6767 218.28 57.7277C218.276 57.7788 218.259 57.828 218.23 57.87L205.4 76V90.31H229.87C229.907 90.3086 229.944 90.3149 229.979 90.3285C230.013 90.3421 230.045 90.3626 230.071 90.3889C230.097 90.4152 230.118 90.4466 230.131 90.4812C230.145 90.5159 230.151 90.5529 230.15 90.59C230.15 90.6643 230.12 90.7355 230.068 90.788C230.015 90.8405 229.944 90.87 229.87 90.87Z"/>
    </mask>
    <path d="M229.87 90.87H205.11C205.036 90.8675 204.967 90.8372 204.915 90.7853C204.863 90.7333 204.832 90.6635 204.83 90.59V75.89C204.814 75.8378 204.814 75.7822 204.83 75.73L217.4 58H209.18L201.53 70C201.504 70.0404 201.469 70.0735 201.427 70.0963C201.385 70.119 201.338 70.1306 201.29 70.13C201.244 70.129 201.199 70.1166 201.159 70.0939C201.118 70.0712 201.085 70.039 201.06 70L193.55 58H159.44V64H167.84C167.878 64 167.915 64.0076 167.949 64.0223C167.984 64.037 168.015 64.0585 168.042 64.0855C168.068 64.1126 168.088 64.1447 168.102 64.1798C168.115 64.2149 168.121 64.2524 168.12 64.29V90.59C168.12 90.6643 168.09 90.7355 168.038 90.788C167.985 90.8405 167.914 90.87 167.84 90.87H154.38C154.306 90.8675 154.237 90.8372 154.185 90.7853C154.133 90.7333 154.102 90.6635 154.1 90.59V58H147.17V90.6C147.17 90.6743 147.14 90.7455 147.088 90.798C147.035 90.8505 146.964 90.88 146.89 90.88H142.17C142.095 90.8801 142.022 90.8509 141.968 90.7987C141.914 90.7464 141.882 90.6752 141.88 90.6V84.33H130.09C130.016 84.33 129.944 84.3005 129.892 84.248C129.839 84.1955 129.81 84.1243 129.81 84.05V58H122.88V90.6C122.88 90.6743 122.85 90.7455 122.798 90.798C122.745 90.8505 122.674 90.88 122.6 90.88H119.26C119.202 90.8818 119.145 90.8654 119.096 90.8331C119.048 90.8009 119.011 90.7544 118.99 90.7L106.99 58H99.1699L87.0699 90.7C87.051 90.7536 87.0157 90.7998 86.969 90.8321C86.9223 90.8644 86.8667 90.8812 86.8099 90.88H84.8099C84.7356 90.88 84.6644 90.8505 84.6119 90.798C84.5594 90.7455 84.5299 90.6743 84.5299 90.6V84.33H70.8199C70.7456 84.33 70.6744 84.3005 70.6219 84.248C70.5694 84.1955 70.5399 84.1243 70.5399 84.05V77.75C70.5399 77.6758 70.5694 77.6046 70.6219 77.552C70.6744 77.4995 70.7456 77.47 70.8199 77.47H82.4699V71.3H70.8199C70.7456 71.3 70.6744 71.2705 70.6219 71.218C70.5694 71.1655 70.5399 71.0943 70.5399 71.02V64.25C70.5399 64.1748 70.569 64.1025 70.6213 64.0484C70.6735 63.9943 70.7447 63.9626 70.8199 63.96H84.1399V58H63.6099V90.6C63.6074 90.6735 63.5771 90.7433 63.5251 90.7953C63.4732 90.8472 63.4034 90.8775 63.3299 90.88H57.9999C57.9546 90.881 57.9097 90.8704 57.8695 90.8495C57.8294 90.8285 57.7951 90.7977 57.7699 90.76L49.3299 78.76C49.308 78.7202 49.2965 78.6755 49.2965 78.63C49.2965 78.5846 49.308 78.5399 49.3299 78.5C49.3469 78.4565 49.3739 78.4176 49.4086 78.3864C49.4433 78.3551 49.4849 78.3324 49.5299 78.32C53.6499 77.4 56.9999 73.03 56.9999 68.58C56.9999 63.3 53.6599 57.98 46.2099 57.98H32.9999V90.58C32.9999 90.6543 32.9704 90.7255 32.9179 90.778C32.8654 90.8305 32.7942 90.86 32.7199 90.86H17.1899C17.1147 90.8601 17.0424 90.8309 16.9883 90.7787C16.9342 90.7264 16.9025 90.6552 16.8999 90.58C16.8999 90.5424 16.9074 90.5052 16.9221 90.4705C16.9368 90.4359 16.9583 90.4046 16.9854 90.3784C17.0125 90.3523 17.0445 90.3319 17.0797 90.3184C17.1148 90.3049 17.1523 90.2987 17.1899 90.3H32.4099V57.71C32.4085 57.6729 32.4148 57.6359 32.4284 57.6013C32.4419 57.5666 32.4625 57.5352 32.4888 57.5089C32.5151 57.4826 32.5465 57.4621 32.5811 57.4485C32.6157 57.4349 32.6528 57.4286 32.6899 57.43H46.1499C53.9999 57.43 57.4999 63 57.4999 68.59C57.4817 70.8619 56.7469 73.07 55.4002 74.8997C54.0535 76.7294 52.1636 78.0874 49.9999 78.78L58.1299 90.31H63.0499V57.71C63.0485 57.6729 63.0548 57.6359 63.0684 57.6013C63.0819 57.5666 63.1025 57.5352 63.1288 57.5089C63.1551 57.4826 63.1865 57.4621 63.2211 57.4485C63.2557 57.4349 63.2928 57.4286 63.3299 57.43H84.4199C84.457 57.4286 84.4941 57.4349 84.5287 57.4485C84.5633 57.4621 84.5947 57.4826 84.621 57.5089C84.6473 57.5352 84.6679 57.5666 84.6814 57.6013C84.695 57.6359 84.7013 57.6729 84.6999 57.71V64.25C84.6999 64.3243 84.6704 64.3955 84.6179 64.448C84.5654 64.5005 84.4942 64.53 84.4199 64.53H71.0999V70.74H82.7499C82.8155 70.747 82.8766 70.7768 82.9223 70.8244C82.9681 70.872 82.9956 70.9342 82.9999 71V77.73C83.0013 77.7672 82.995 77.8042 82.9814 77.8388C82.9679 77.8734 82.9473 77.9049 82.921 77.9312C82.8947 77.9574 82.8633 77.978 82.8287 77.9916C82.7941 78.0052 82.757 78.0114 82.7199 78.01H71.0999V83.75H84.8499C84.887 83.7486 84.9241 83.7549 84.9587 83.7685C84.9933 83.7821 85.0247 83.8026 85.051 83.8289C85.0773 83.8552 85.0979 83.8866 85.1115 83.9212C85.125 83.9559 85.1313 83.9929 85.1299 84.03V90.29H86.6099L98.7099 57.59C98.7306 57.5357 98.7678 57.4892 98.8162 57.4569C98.8646 57.4247 98.9218 57.4083 98.9799 57.41H107.14C107.197 57.4089 107.252 57.4257 107.299 57.458C107.346 57.4903 107.381 57.5365 107.4 57.59L119.4 90.29H122.27V57.71C122.268 57.6729 122.275 57.6359 122.288 57.6013C122.302 57.5666 122.323 57.5352 122.349 57.5089C122.375 57.4826 122.407 57.4621 122.441 57.4485C122.476 57.4349 122.513 57.4286 122.55 57.43H130.04C130.077 57.4286 130.114 57.4349 130.149 57.4485C130.183 57.4621 130.215 57.4826 130.241 57.5089C130.267 57.5352 130.288 57.5666 130.301 57.6013C130.315 57.6359 130.321 57.6729 130.32 57.71V83.77H142.12C142.194 83.77 142.265 83.7995 142.318 83.8521C142.37 83.9046 142.4 83.9758 142.4 84.05V90.31H146.56V57.71C146.56 57.6358 146.589 57.5646 146.642 57.512C146.694 57.4595 146.766 57.43 146.84 57.43H154.33C154.368 57.4287 154.405 57.4349 154.44 57.4484C154.475 57.4619 154.507 57.4823 154.534 57.5084C154.561 57.5346 154.583 57.5659 154.598 57.6005C154.612 57.6352 154.62 57.6724 154.62 57.71V90.31H167.51V64.53H159.11C159.035 64.5301 158.962 64.5009 158.908 64.4487C158.854 64.3964 158.823 64.3252 158.82 64.25V57.71C158.82 57.6724 158.827 57.6352 158.842 57.6005C158.857 57.5659 158.878 57.5346 158.905 57.5084C158.932 57.4823 158.965 57.4619 159 57.4484C159.035 57.4349 159.072 57.4287 159.11 57.43H193.66C193.707 57.432 193.753 57.4447 193.795 57.4672C193.837 57.4897 193.872 57.5215 193.9 57.56L201.3 69.3L208.79 57.56C208.815 57.5211 208.848 57.4889 208.889 57.4662C208.929 57.4435 208.974 57.4311 209.02 57.43H218C218.051 57.43 218.101 57.444 218.145 57.4705C218.189 57.497 218.225 57.535 218.248 57.5803C218.272 57.6257 218.283 57.6767 218.28 57.7277C218.276 57.7788 218.259 57.828 218.23 57.87L205.4 76V90.31H229.87C229.907 90.3086 229.944 90.3149 229.979 90.3285C230.013 90.3421 230.045 90.3626 230.071 90.3889C230.097 90.4152 230.118 90.4466 230.131 90.4812C230.145 90.5159 230.151 90.5529 230.15 90.59C230.15 90.6643 230.12 90.7355 230.068 90.788C230.015 90.8405 229.944 90.87 229.87 90.87Z" fill="#F69E0F"/>
    <path d="M229.87 90.87H205.11C205.036 90.8675 204.967 90.8372 204.915 90.7853C204.863 90.7333 204.832 90.6635 204.83 90.59V75.89C204.814 75.8378 204.814 75.7822 204.83 75.73L217.4 58H209.18L201.53 70C201.504 70.0404 201.469 70.0735 201.427 70.0963C201.385 70.119 201.338 70.1306 201.29 70.13C201.244 70.129 201.199 70.1166 201.159 70.0939C201.118 70.0712 201.085 70.039 201.06 70L193.55 58H159.44V64H167.84C167.878 64 167.915 64.0076 167.949 64.0223C167.984 64.037 168.015 64.0585 168.042 64.0855C168.068 64.1126 168.088 64.1447 168.102 64.1798C168.115 64.2149 168.121 64.2524 168.12 64.29V90.59C168.12 90.6643 168.09 90.7355 168.038 90.788C167.985 90.8405 167.914 90.87 167.84 90.87H154.38C154.306 90.8675 154.237 90.8372 154.185 90.7853C154.133 90.7333 154.102 90.6635 154.1 90.59V58H147.17V90.6C147.17 90.6743 147.14 90.7455 147.088 90.798C147.035 90.8505 146.964 90.88 146.89 90.88H142.17C142.095 90.8801 142.022 90.8509 141.968 90.7987C141.914 90.7464 141.882 90.6752 141.88 90.6V84.33H130.09C130.016 84.33 129.944 84.3005 129.892 84.248C129.839 84.1955 129.81 84.1243 129.81 84.05V58H122.88V90.6C122.88 90.6743 122.85 90.7455 122.798 90.798C122.745 90.8505 122.674 90.88 122.6 90.88H119.26C119.202 90.8818 119.145 90.8654 119.096 90.8331C119.048 90.8009 119.011 90.7544 118.99 90.7L106.99 58H99.1699L87.0699 90.7C87.051 90.7536 87.0157 90.7998 86.969 90.8321C86.9223 90.8644 86.8667 90.8812 86.8099 90.88H84.8099C84.7356 90.88 84.6644 90.8505 84.6119 90.798C84.5594 90.7455 84.5299 90.6743 84.5299 90.6V84.33H70.8199C70.7456 84.33 70.6744 84.3005 70.6219 84.248C70.5694 84.1955 70.5399 84.1243 70.5399 84.05V77.75C70.5399 77.6758 70.5694 77.6046 70.6219 77.552C70.6744 77.4995 70.7456 77.47 70.8199 77.47H82.4699V71.3H70.8199C70.7456 71.3 70.6744 71.2705 70.6219 71.218C70.5694 71.1655 70.5399 71.0943 70.5399 71.02V64.25C70.5399 64.1748 70.569 64.1025 70.6213 64.0484C70.6735 63.9943 70.7447 63.9626 70.8199 63.96H84.1399V58H63.6099V90.6C63.6074 90.6735 63.5771 90.7433 63.5251 90.7953C63.4732 90.8472 63.4034 90.8775 63.3299 90.88H57.9999C57.9546 90.881 57.9097 90.8704 57.8695 90.8495C57.8294 90.8285 57.7951 90.7977 57.7699 90.76L49.3299 78.76C49.308 78.7202 49.2965 78.6755 49.2965 78.63C49.2965 78.5846 49.308 78.5399 49.3299 78.5C49.3469 78.4565 49.3739 78.4176 49.4086 78.3864C49.4433 78.3551 49.4849 78.3324 49.5299 78.32C53.6499 77.4 56.9999 73.03 56.9999 68.58C56.9999 63.3 53.6599 57.98 46.2099 57.98H32.9999V90.58C32.9999 90.6543 32.9704 90.7255 32.9179 90.778C32.8654 90.8305 32.7942 90.86 32.7199 90.86H17.1899C17.1147 90.8601 17.0424 90.8309 16.9883 90.7787C16.9342 90.7264 16.9025 90.6552 16.8999 90.58C16.8999 90.5424 16.9074 90.5052 16.9221 90.4705C16.9368 90.4359 16.9583 90.4046 16.9854 90.3784C17.0125 90.3523 17.0445 90.3319 17.0797 90.3184C17.1148 90.3049 17.1523 90.2987 17.1899 90.3H32.4099V57.71C32.4085 57.6729 32.4148 57.6359 32.4284 57.6013C32.4419 57.5666 32.4625 57.5352 32.4888 57.5089C32.5151 57.4826 32.5465 57.4621 32.5811 57.4485C32.6157 57.4349 32.6528 57.4286 32.6899 57.43H46.1499C53.9999 57.43 57.4999 63 57.4999 68.59C57.4817 70.8619 56.7469 73.07 55.4002 74.8997C54.0535 76.7294 52.1636 78.0874 49.9999 78.78L58.1299 90.31H63.0499V57.71C63.0485 57.6729 63.0548 57.6359 63.0684 57.6013C63.0819 57.5666 63.1025 57.5352 63.1288 57.5089C63.1551 57.4826 63.1865 57.4621 63.2211 57.4485C63.2557 57.4349 63.2928 57.4286 63.3299 57.43H84.4199C84.457 57.4286 84.4941 57.4349 84.5287 57.4485C84.5633 57.4621 84.5947 57.4826 84.621 57.5089C84.6473 57.5352 84.6679 57.5666 84.6814 57.6013C84.695 57.6359 84.7013 57.6729 84.6999 57.71V64.25C84.6999 64.3243 84.6704 64.3955 84.6179 64.448C84.5654 64.5005 84.4942 64.53 84.4199 64.53H71.0999V70.74H82.7499C82.8155 70.747 82.8766 70.7768 82.9223 70.8244C82.9681 70.872 82.9956 70.9342 82.9999 71V77.73C83.0013 77.7672 82.995 77.8042 82.9814 77.8388C82.9679 77.8734 82.9473 77.9049 82.921 77.9312C82.8947 77.9574 82.8633 77.978 82.8287 77.9916C82.7941 78.0052 82.757 78.0114 82.7199 78.01H71.0999V83.75H84.8499C84.887 83.7486 84.9241 83.7549 84.9587 83.7685C84.9933 83.7821 85.0247 83.8026 85.051 83.8289C85.0773 83.8552 85.0979 83.8866 85.1115 83.9212C85.125 83.9559 85.1313 83.9929 85.1299 84.03V90.29H86.6099L98.7099 57.59C98.7306 57.5357 98.7678 57.4892 98.8162 57.4569C98.8646 57.4247 98.9218 57.4083 98.9799 57.41H107.14C107.197 57.4089 107.252 57.4257 107.299 57.458C107.346 57.4903 107.381 57.5365 107.4 57.59L119.4 90.29H122.27V57.71C122.268 57.6729 122.275 57.6359 122.288 57.6013C122.302 57.5666 122.323 57.5352 122.349 57.5089C122.375 57.4826 122.407 57.4621 122.441 57.4485C122.476 57.4349 122.513 57.4286 122.55 57.43H130.04C130.077 57.4286 130.114 57.4349 130.149 57.4485C130.183 57.4621 130.215 57.4826 130.241 57.5089C130.267 57.5352 130.288 57.5666 130.301 57.6013C130.315 57.6359 130.321 57.6729 130.32 57.71V83.77H142.12C142.194 83.77 142.265 83.7995 142.318 83.8521C142.37 83.9046 142.4 83.9758 142.4 84.05V90.31H146.56V57.71C146.56 57.6358 146.589 57.5646 146.642 57.512C146.694 57.4595 146.766 57.43 146.84 57.43H154.33C154.368 57.4287 154.405 57.4349 154.44 57.4484C154.475 57.4619 154.507 57.4823 154.534 57.5084C154.561 57.5346 154.583 57.5659 154.598 57.6005C154.612 57.6352 154.62 57.6724 154.62 57.71V90.31H167.51V64.53H159.11C159.035 64.5301 158.962 64.5009 158.908 64.4487C158.854 64.3964 158.823 64.3252 158.82 64.25V57.71C158.82 57.6724 158.827 57.6352 158.842 57.6005C158.857 57.5659 158.878 57.5346 158.905 57.5084C158.932 57.4823 158.965 57.4619 159 57.4484C159.035 57.4349 159.072 57.4287 159.11 57.43H193.66C193.707 57.432 193.753 57.4447 193.795 57.4672C193.837 57.4897 193.872 57.5215 193.9 57.56L201.3 69.3L208.79 57.56C208.815 57.5211 208.848 57.4889 208.889 57.4662C208.929 57.4435 208.974 57.4311 209.02 57.43H218C218.051 57.43 218.101 57.444 218.145 57.4705C218.189 57.497 218.225 57.535 218.248 57.5803C218.272 57.6257 218.283 57.6767 218.28 57.7277C218.276 57.7788 218.259 57.828 218.23 57.87L205.4 76V90.31H229.87C229.907 90.3086 229.944 90.3149 229.979 90.3285C230.013 90.3421 230.045 90.3626 230.071 90.3889C230.097 90.4152 230.118 90.4466 230.131 90.4812C230.145 90.5159 230.151 90.5529 230.15 90.59C230.15 90.6643 230.12 90.7355 230.068 90.788C230.015 90.8405 229.944 90.87 229.87 90.87Z" stroke="#F69E0F" stroke-width="0.8" mask="url(#path-48-outside-2_933_4273)"/>
    <path d="M243.009 94.04H243H242.82H242.801L242.783 94.0365C242.46 93.9755 242.173 93.7801 241.915 93.4804C241.658 93.1816 241.421 92.7689 241.196 92.2492L241.195 92.246L241.195 92.246C240.849 91.4042 240.638 90.5129 240.571 89.6051C240.47 88.3071 240.43 85.8893 240.39 83.1028C240.34 79.6366 240.268 74.6826 239.971 70.5957C239.822 68.5509 239.618 66.7321 239.334 65.4279C239.192 64.774 239.033 64.2626 238.857 63.9192C238.674 63.5595 238.513 63.4601 238.4 63.46C238.235 63.4605 238.071 63.4874 237.914 63.5395C237.536 63.6682 237.208 63.9119 236.976 64.2365C236.744 64.5612 236.62 64.9505 236.62 65.3497L236.62 65.3549L236.62 65.3549L236.03 89.2422C236.031 89.6923 235.919 90.1355 235.704 90.5311C235.489 90.9275 235.178 91.2634 234.798 91.508L234.795 91.5102L234.795 91.5102C234.235 91.856 233.563 91.9725 232.918 91.8356L232.91 91.8337L232.901 91.831L232.611 91.741L232.603 91.7386L232.596 91.7356C231.624 91.3459 230.593 91.1274 229.546 91.09H217.73H217.711L217.693 91.0865C217.581 91.0654 217.479 91.0057 217.406 90.9178C217.334 90.8298 217.294 90.7192 217.294 90.605C217.294 90.4907 217.334 90.3801 217.406 90.2921C217.479 90.2042 217.581 90.1445 217.693 90.1234L217.711 90.12H217.73H229.5H229.507L229.507 90.1201C230.666 90.1622 231.808 90.4038 232.884 90.8343L232.887 90.8352C232.942 90.858 232.999 90.8737 233.058 90.8819L233.065 90.8829L233.072 90.8844C233.472 90.9703 233.89 90.9014 234.241 90.6919C234.477 90.5269 234.67 90.3077 234.804 90.0526C234.939 89.7956 235.01 89.5098 235.01 89.2196L235.01 89.215L235.01 89.215L235.6 65.3382C235.6 65.3377 235.6 65.3371 235.6 65.3366C235.606 64.7351 235.797 64.1501 236.149 63.6621C236.501 63.1736 236.996 62.8063 237.565 62.6108L237.568 62.6097L237.568 62.6097C237.821 62.5276 238.085 62.4872 238.351 62.49C238.709 62.4903 239.013 62.6675 239.265 62.9624C239.514 63.2538 239.723 63.6708 239.902 64.1862C240.261 65.2182 240.52 66.7033 240.711 68.5341C241.095 72.1997 241.215 77.3089 241.3 83.087L241.3 83.09C241.3 85.858 241.38 88.2513 241.489 89.5228L241.49 89.5266L241.49 89.5266C241.543 90.3297 241.727 91.1186 242.034 91.8626C242.457 92.8544 242.786 93.0459 242.881 93.0805C242.939 93.08 242.997 93.0674 243.05 93.0434C243.11 93.0164 243.163 92.9756 243.204 92.9243L243.209 92.9187L243.214 92.9134C243.354 92.7629 243.455 92.5796 243.506 92.3801L243.506 92.3798C244.169 89.8224 244.698 87.2323 245.092 84.6201L245.093 84.6163L245.093 84.6163C245.294 83.4404 245.532 82.5427 245.823 81.909C246.112 81.2801 246.472 80.8695 246.939 80.7465L246.99 80.94M243.009 94.04L254.092 90.12L254.09 90.1199L254.084 90.1198L254.059 90.1192C254.035 90.1184 254.001 90.117 253.956 90.1144C253.866 90.1093 253.737 90.0993 253.579 90.0803C253.263 90.0421 252.836 89.9677 252.392 89.8235C251.497 89.533 250.579 88.9766 250.284 87.9113L249.176 83.0183C249.176 83.0179 249.175 83.0175 249.175 83.0171C249.056 82.4561 248.81 81.9294 248.458 81.477L248.458 81.477L248.455 81.4733C247.883 80.7739 247.338 80.6402 246.939 80.7467L246.99 80.94M243.009 94.04L243.017 94.0392C243.37 94.0088 243.698 93.8471 243.937 93.5861L243.009 94.04ZM246.99 80.94C247.29 80.86 247.76 80.94 248.3 81.6L242.85 93.28C242.947 93.2843 243.044 93.2657 243.132 93.2257C243.221 93.1858 243.299 93.1256 243.36 93.05C243.523 92.875 243.64 92.6618 243.7 92.43C244.364 89.8658 244.895 87.269 245.29 84.65C245.69 82.31 246.23 81.14 246.99 80.94Z" fill="#F69E0F" stroke="#F69E0F" stroke-width="0.4"/>
    <path d="M184.93 123.11C184.93 122.983 184.881 122.861 184.793 122.769C184.704 122.678 184.584 122.624 184.457 122.62L184.457 122.62H184.45H173.62C173.49 122.62 173.365 122.672 173.274 122.763C173.182 122.855 173.13 122.98 173.13 123.11V136.11V136.129L173.134 136.147C173.155 136.259 173.214 136.361 173.302 136.433C173.39 136.506 173.501 136.546 173.615 136.546C173.729 136.546 173.84 136.506 173.928 136.433C174.016 136.361 174.076 136.259 174.097 136.147L174.1 136.129V136.11V123.61H183.97V136.11C183.97 136.237 184.021 136.359 184.111 136.449C184.201 136.539 184.323 136.59 184.45 136.59V136.59L184.457 136.59C184.581 136.586 184.699 136.534 184.787 136.447C184.875 136.359 184.926 136.241 184.93 136.117L184.93 136.117V136.11V123.11ZM184.93 123.11L184.73 123.11M184.93 123.11V123.11H184.73M184.73 123.11V136.11L173.9 123.61V136.11C173.888 136.176 173.852 136.236 173.8 136.28C173.748 136.323 173.683 136.346 173.615 136.346C173.547 136.346 173.482 136.323 173.43 136.28C173.378 136.236 173.343 136.176 173.33 136.11V123.11C173.33 123.033 173.361 122.959 173.415 122.905C173.469 122.85 173.543 122.82 173.62 122.82H184.45C184.525 122.823 184.596 122.854 184.649 122.908C184.701 122.962 184.73 123.035 184.73 123.11Z" fill="#F69E0F" stroke="#F69E0F" stroke-width="0.4"/>
    <path d="M276.79 136.4L276.79 136.4L267.97 124.669V136.07V136.077L267.97 136.077C267.966 136.201 267.915 136.319 267.827 136.407C267.739 136.494 267.621 136.546 267.497 136.55L267.49 136.55V136.55C267.363 136.55 267.241 136.499 267.151 136.409C267.061 136.319 267.01 136.197 267.01 136.07V123.221V123.22H267.21L276.79 136.4ZM276.79 136.4L276.795 136.407M276.79 136.4L276.795 136.407M276.795 136.407C276.842 136.463 276.9 136.509 276.966 136.541C277.03 136.571 277.099 136.588 277.169 136.59C277.294 136.6 277.417 136.565 277.518 136.492L277.532 136.482M276.795 136.407L277.532 136.482M277.532 136.482L277.544 136.469M277.532 136.482L277.544 136.469M277.544 136.469C277.63 136.38 277.679 136.26 277.679 136.135C277.679 136.015 277.634 135.899 277.553 135.811L277.544 136.469Z" fill="#F69E0F" stroke="#F69E0F" stroke-width="0.4"/>
    <mask id="path-52-outside-3_933_4273" maskUnits="userSpaceOnUse" x="124.094" y="101.304" width="176" height="36" fill="black">
    <rect fill="white" x="124.094" y="101.304" width="176" height="36"/>
    <path d="M245.65 136.39C245.581 136.388 245.516 136.362 245.464 136.316C245.413 136.271 245.38 136.208 245.37 136.14C245.362 136.073 245.378 136.006 245.414 135.949C245.451 135.893 245.506 135.85 245.57 135.83C249.274 134.836 252.514 132.579 254.73 129.45L249.38 125.72C248.549 127.031 247.393 128.105 246.025 128.837C244.657 129.57 243.122 129.936 241.57 129.9C236.03 129.9 231.84 125.47 231.84 119.59C231.84 113.71 236.05 109.43 241.62 109.43C243.165 109.395 244.692 109.762 246.052 110.495C247.413 111.227 248.559 112.301 249.38 113.61L254.73 109.88C252.704 107.016 249.815 104.875 246.486 103.771C243.156 102.666 239.561 102.655 236.225 103.74C232.889 104.825 229.987 106.948 227.944 109.8C225.901 112.652 224.824 116.082 224.87 119.59C224.844 123.26 226.023 126.836 228.228 129.77C230.432 132.704 233.538 134.833 237.07 135.83C237.134 135.85 237.189 135.893 237.226 135.949C237.262 136.006 237.278 136.073 237.27 136.14C237.263 136.209 237.23 136.273 237.178 136.319C237.127 136.365 237.059 136.39 236.99 136.39H221.05C220.977 136.388 220.907 136.357 220.855 136.305C220.803 136.253 220.773 136.184 220.77 136.11V129.85H207C206.927 129.848 206.857 129.817 206.805 129.765C206.753 129.713 206.723 129.644 206.72 129.57V123.27C206.723 123.198 206.753 123.129 206.806 123.078C206.858 123.028 206.928 123 207 123H218.65V116.83H207C206.926 116.83 206.855 116.801 206.802 116.748C206.75 116.696 206.72 116.624 206.72 116.55V109.77C206.723 109.697 206.753 109.627 206.805 109.575C206.857 109.523 206.927 109.493 207 109.49H220.32V103.49H199.81V136.09C199.81 136.164 199.781 136.236 199.728 136.288C199.676 136.341 199.604 136.37 199.53 136.37H191.94C191.867 136.368 191.797 136.337 191.745 136.285C191.693 136.233 191.663 136.164 191.66 136.09V103.49H184.73V116.4C184.73 116.474 184.701 116.546 184.648 116.598C184.596 116.651 184.524 116.68 184.45 116.68H173.62C173.545 116.68 173.473 116.651 173.419 116.599C173.364 116.546 173.333 116.475 173.33 116.4V103.51H166.41V136.11C166.406 136.155 166.392 136.198 166.369 136.237C166.346 136.276 166.315 136.309 166.278 136.334C166.24 136.359 166.198 136.375 166.153 136.381C166.108 136.388 166.063 136.384 166.02 136.37H151.85C151.782 136.373 151.715 136.35 151.663 136.305C151.611 136.261 151.578 136.198 151.57 136.13C151.558 136.063 151.572 135.993 151.609 135.936C151.646 135.878 151.704 135.837 151.77 135.82C155.445 134.811 158.657 132.56 160.86 129.45L155.51 125.72C154.679 127.031 153.523 128.105 152.155 128.837C150.787 129.57 149.252 129.936 147.7 129.9C142.15 129.9 137.97 125.47 137.97 119.59C137.97 113.71 142.17 109.43 147.75 109.43C149.295 109.397 150.821 109.765 152.181 110.497C153.541 111.23 154.688 112.302 155.51 113.61L160.86 109.88C158.831 107.023 155.942 104.888 152.614 103.788C149.287 102.688 145.695 102.679 142.362 103.762C139.029 104.846 136.13 106.966 134.086 109.813C132.042 112.66 130.961 116.086 131 119.59C131.01 123.128 132.129 126.575 134.199 129.445C136.269 132.314 139.186 134.464 142.54 135.59C142.596 135.607 142.644 135.642 142.678 135.689C142.712 135.735 142.731 135.792 142.73 135.85V136.06C142.73 136.134 142.701 136.206 142.648 136.258C142.596 136.311 142.524 136.34 142.45 136.34H125.33C125.264 136.328 125.204 136.292 125.161 136.24C125.117 136.188 125.094 136.123 125.094 136.055C125.094 135.987 125.117 135.922 125.161 135.87C125.204 135.818 125.264 135.783 125.33 135.77H141.33C138.099 134.459 135.333 132.215 133.384 129.324C131.435 126.433 130.393 123.027 130.39 119.54C130.339 115.884 131.468 112.31 133.61 109.346C135.751 106.383 138.791 104.189 142.278 103.09C145.765 101.991 149.513 102.045 152.967 103.245C156.421 104.445 159.396 106.726 161.45 109.75C161.488 109.812 161.502 109.886 161.489 109.958C161.476 110.03 161.437 110.095 161.38 110.14L155.55 114.14C155.521 114.163 155.487 114.179 155.451 114.188C155.414 114.197 155.377 114.197 155.34 114.19C155.262 114.173 155.194 114.126 155.15 114.06C154.392 112.767 153.303 111.7 151.995 110.969C150.688 110.238 149.208 109.869 147.71 109.9C142.46 109.9 138.49 114.02 138.49 119.49C138.49 124.96 142.44 129.23 147.66 129.23C149.166 129.266 150.654 128.9 151.971 128.168C153.287 127.437 154.385 126.367 155.15 125.07C155.17 125.038 155.197 125.01 155.228 124.988C155.26 124.966 155.295 124.951 155.333 124.944C155.37 124.936 155.409 124.936 155.446 124.944C155.484 124.952 155.519 124.968 155.55 124.99L161.38 129.05C161.439 129.094 161.479 129.159 161.492 129.231C161.505 129.304 161.49 129.378 161.45 129.44C159.51 132.276 156.761 134.461 153.56 135.71H165.8V103.23C165.8 103.155 165.829 103.083 165.882 103.028C165.934 102.974 166.005 102.943 166.08 102.94H173.58C173.655 102.943 173.727 102.974 173.779 103.028C173.831 103.083 173.86 103.155 173.86 103.23V116.11H184.13V103.23C184.129 103.192 184.135 103.155 184.149 103.12C184.162 103.085 184.182 103.053 184.209 103.026C184.235 102.998 184.266 102.977 184.301 102.962C184.335 102.948 184.373 102.94 184.41 102.94H191.9C191.938 102.94 191.975 102.948 192.01 102.962C192.044 102.977 192.076 102.998 192.102 103.026C192.128 103.053 192.148 103.085 192.162 103.12C192.175 103.155 192.181 103.192 192.18 103.23V135.82H199.18V103.23C199.18 103.155 199.209 103.083 199.261 103.028C199.314 102.974 199.385 102.943 199.46 102.94H220.55C220.588 102.94 220.625 102.948 220.66 102.962C220.694 102.977 220.726 102.998 220.752 103.026C220.778 103.053 220.798 103.085 220.812 103.12C220.825 103.155 220.831 103.192 220.83 103.23V109.76C220.831 109.798 220.825 109.835 220.812 109.87C220.798 109.905 220.778 109.937 220.752 109.965C220.726 109.992 220.694 110.013 220.66 110.028C220.625 110.043 220.588 110.05 220.55 110.05H207.3V116.26H219C219.037 116.259 219.074 116.265 219.109 116.279C219.144 116.292 219.175 116.313 219.201 116.339C219.228 116.365 219.248 116.397 219.262 116.431C219.275 116.466 219.282 116.503 219.28 116.54V123.27C219.28 123.344 219.251 123.416 219.198 123.468C219.146 123.521 219.074 123.55 219 123.55H207.3V129.29H221.05C221.087 129.289 221.124 129.295 221.159 129.309C221.194 129.322 221.225 129.343 221.251 129.369C221.278 129.395 221.298 129.427 221.312 129.461C221.325 129.496 221.332 129.533 221.33 129.57V135.82H235.24C231.997 134.526 229.22 132.286 227.268 129.391C225.317 126.497 224.283 123.081 224.3 119.59C224.249 115.934 225.378 112.36 227.52 109.396C229.661 106.433 232.701 104.239 236.188 103.14C239.675 102.041 243.423 102.095 246.877 103.295C250.331 104.495 253.306 106.776 255.36 109.8C255.381 109.83 255.396 109.864 255.404 109.9C255.412 109.936 255.412 109.973 255.406 110.01C255.399 110.046 255.386 110.08 255.366 110.111C255.346 110.142 255.32 110.169 255.29 110.19L249.47 114.19C249.44 114.214 249.404 114.231 249.367 114.239C249.329 114.248 249.29 114.249 249.252 114.241C249.214 114.234 249.178 114.218 249.147 114.195C249.115 114.173 249.089 114.144 249.07 114.11C248.31 112.817 247.219 111.75 245.91 111.019C244.6 110.288 243.12 109.919 241.62 109.95C236.37 109.95 232.41 114.07 232.41 119.54C232.41 125.01 236.35 129.28 241.57 129.28C243.077 129.316 244.567 128.949 245.885 128.218C247.203 127.487 248.303 126.418 249.07 125.12C249.09 125.088 249.116 125.059 249.147 125.037C249.178 125.015 249.213 124.999 249.25 124.99C249.321 124.966 249.399 124.966 249.47 124.99L255.29 129.05C255.321 129.07 255.348 129.096 255.369 129.127C255.39 129.158 255.404 129.193 255.41 129.23C255.417 129.266 255.416 129.304 255.407 129.34C255.399 129.376 255.383 129.41 255.36 129.44C253.409 132.288 250.641 134.478 247.42 135.72H259.71V103.23C259.71 103.192 259.718 103.154 259.732 103.119C259.747 103.084 259.768 103.052 259.795 103.025C259.822 102.998 259.854 102.977 259.889 102.962C259.924 102.948 259.962 102.94 260 102.94H267.49C267.565 102.943 267.637 102.974 267.689 103.028C267.741 103.083 267.77 103.155 267.77 103.23V115.53L275.77 103.07C275.796 103.03 275.831 102.997 275.873 102.974C275.915 102.951 275.962 102.939 276.01 102.94H285C285.052 102.94 285.102 102.953 285.146 102.98C285.19 103.006 285.226 103.044 285.25 103.09C285.278 103.133 285.292 103.184 285.292 103.235C285.292 103.286 285.278 103.337 285.25 103.38L274.43 119.49L286.97 135.82H298.47C298.512 135.812 298.555 135.814 298.596 135.824C298.638 135.835 298.676 135.855 298.709 135.882C298.742 135.909 298.768 135.943 298.786 135.982C298.804 136.02 298.814 136.062 298.814 136.105C298.814 136.148 298.804 136.19 298.786 136.228C298.768 136.267 298.742 136.301 298.709 136.328C298.676 136.355 298.638 136.375 298.596 136.386C298.555 136.396 298.512 136.398 298.47 136.39H286.77C286.726 136.39 286.683 136.38 286.643 136.361C286.603 136.342 286.568 136.314 286.54 136.28L273.8 119.67C273.767 119.622 273.749 119.564 273.749 119.505C273.749 119.446 273.767 119.389 273.8 119.34L284.43 103.51H276.19L267.74 116.65C267.705 116.7 267.655 116.737 267.598 116.757C267.54 116.776 267.478 116.778 267.42 116.76C267.361 116.744 267.309 116.709 267.273 116.66C267.237 116.611 267.218 116.551 267.22 116.49V103.49H260.29V136.09C260.288 136.164 260.257 136.233 260.205 136.285C260.153 136.337 260.084 136.368 260.01 136.37L245.65 136.39Z"/>
    </mask>
    <path d="M245.65 136.39C245.581 136.388 245.516 136.362 245.464 136.316C245.413 136.271 245.38 136.208 245.37 136.14C245.362 136.073 245.378 136.006 245.414 135.949C245.451 135.893 245.506 135.85 245.57 135.83C249.274 134.836 252.514 132.579 254.73 129.45L249.38 125.72C248.549 127.031 247.393 128.105 246.025 128.837C244.657 129.57 243.122 129.936 241.57 129.9C236.03 129.9 231.84 125.47 231.84 119.59C231.84 113.71 236.05 109.43 241.62 109.43C243.165 109.395 244.692 109.762 246.052 110.495C247.413 111.227 248.559 112.301 249.38 113.61L254.73 109.88C252.704 107.016 249.815 104.875 246.486 103.771C243.156 102.666 239.561 102.655 236.225 103.74C232.889 104.825 229.987 106.948 227.944 109.8C225.901 112.652 224.824 116.082 224.87 119.59C224.844 123.26 226.023 126.836 228.228 129.77C230.432 132.704 233.538 134.833 237.07 135.83C237.134 135.85 237.189 135.893 237.226 135.949C237.262 136.006 237.278 136.073 237.27 136.14C237.263 136.209 237.23 136.273 237.178 136.319C237.127 136.365 237.059 136.39 236.99 136.39H221.05C220.977 136.388 220.907 136.357 220.855 136.305C220.803 136.253 220.773 136.184 220.77 136.11V129.85H207C206.927 129.848 206.857 129.817 206.805 129.765C206.753 129.713 206.723 129.644 206.72 129.57V123.27C206.723 123.198 206.753 123.129 206.806 123.078C206.858 123.028 206.928 123 207 123H218.65V116.83H207C206.926 116.83 206.855 116.801 206.802 116.748C206.75 116.696 206.72 116.624 206.72 116.55V109.77C206.723 109.697 206.753 109.627 206.805 109.575C206.857 109.523 206.927 109.493 207 109.49H220.32V103.49H199.81V136.09C199.81 136.164 199.781 136.236 199.728 136.288C199.676 136.341 199.604 136.37 199.53 136.37H191.94C191.867 136.368 191.797 136.337 191.745 136.285C191.693 136.233 191.663 136.164 191.66 136.09V103.49H184.73V116.4C184.73 116.474 184.701 116.546 184.648 116.598C184.596 116.651 184.524 116.68 184.45 116.68H173.62C173.545 116.68 173.473 116.651 173.419 116.599C173.364 116.546 173.333 116.475 173.33 116.4V103.51H166.41V136.11C166.406 136.155 166.392 136.198 166.369 136.237C166.346 136.276 166.315 136.309 166.278 136.334C166.24 136.359 166.198 136.375 166.153 136.381C166.108 136.388 166.063 136.384 166.02 136.37H151.85C151.782 136.373 151.715 136.35 151.663 136.305C151.611 136.261 151.578 136.198 151.57 136.13C151.558 136.063 151.572 135.993 151.609 135.936C151.646 135.878 151.704 135.837 151.77 135.82C155.445 134.811 158.657 132.56 160.86 129.45L155.51 125.72C154.679 127.031 153.523 128.105 152.155 128.837C150.787 129.57 149.252 129.936 147.7 129.9C142.15 129.9 137.97 125.47 137.97 119.59C137.97 113.71 142.17 109.43 147.75 109.43C149.295 109.397 150.821 109.765 152.181 110.497C153.541 111.23 154.688 112.302 155.51 113.61L160.86 109.88C158.831 107.023 155.942 104.888 152.614 103.788C149.287 102.688 145.695 102.679 142.362 103.762C139.029 104.846 136.13 106.966 134.086 109.813C132.042 112.66 130.961 116.086 131 119.59C131.01 123.128 132.129 126.575 134.199 129.445C136.269 132.314 139.186 134.464 142.54 135.59C142.596 135.607 142.644 135.642 142.678 135.689C142.712 135.735 142.731 135.792 142.73 135.85V136.06C142.73 136.134 142.701 136.206 142.648 136.258C142.596 136.311 142.524 136.34 142.45 136.34H125.33C125.264 136.328 125.204 136.292 125.161 136.24C125.117 136.188 125.094 136.123 125.094 136.055C125.094 135.987 125.117 135.922 125.161 135.87C125.204 135.818 125.264 135.783 125.33 135.77H141.33C138.099 134.459 135.333 132.215 133.384 129.324C131.435 126.433 130.393 123.027 130.39 119.54C130.339 115.884 131.468 112.31 133.61 109.346C135.751 106.383 138.791 104.189 142.278 103.09C145.765 101.991 149.513 102.045 152.967 103.245C156.421 104.445 159.396 106.726 161.45 109.75C161.488 109.812 161.502 109.886 161.489 109.958C161.476 110.03 161.437 110.095 161.38 110.14L155.55 114.14C155.521 114.163 155.487 114.179 155.451 114.188C155.414 114.197 155.377 114.197 155.34 114.19C155.262 114.173 155.194 114.126 155.15 114.06C154.392 112.767 153.303 111.7 151.995 110.969C150.688 110.238 149.208 109.869 147.71 109.9C142.46 109.9 138.49 114.02 138.49 119.49C138.49 124.96 142.44 129.23 147.66 129.23C149.166 129.266 150.654 128.9 151.971 128.168C153.287 127.437 154.385 126.367 155.15 125.07C155.17 125.038 155.197 125.01 155.228 124.988C155.26 124.966 155.295 124.951 155.333 124.944C155.37 124.936 155.409 124.936 155.446 124.944C155.484 124.952 155.519 124.968 155.55 124.99L161.38 129.05C161.439 129.094 161.479 129.159 161.492 129.231C161.505 129.304 161.49 129.378 161.45 129.44C159.51 132.276 156.761 134.461 153.56 135.71H165.8V103.23C165.8 103.155 165.829 103.083 165.882 103.028C165.934 102.974 166.005 102.943 166.08 102.94H173.58C173.655 102.943 173.727 102.974 173.779 103.028C173.831 103.083 173.86 103.155 173.86 103.23V116.11H184.13V103.23C184.129 103.192 184.135 103.155 184.149 103.12C184.162 103.085 184.182 103.053 184.209 103.026C184.235 102.998 184.266 102.977 184.301 102.962C184.335 102.948 184.373 102.94 184.41 102.94H191.9C191.938 102.94 191.975 102.948 192.01 102.962C192.044 102.977 192.076 102.998 192.102 103.026C192.128 103.053 192.148 103.085 192.162 103.12C192.175 103.155 192.181 103.192 192.18 103.23V135.82H199.18V103.23C199.18 103.155 199.209 103.083 199.261 103.028C199.314 102.974 199.385 102.943 199.46 102.94H220.55C220.588 102.94 220.625 102.948 220.66 102.962C220.694 102.977 220.726 102.998 220.752 103.026C220.778 103.053 220.798 103.085 220.812 103.12C220.825 103.155 220.831 103.192 220.83 103.23V109.76C220.831 109.798 220.825 109.835 220.812 109.87C220.798 109.905 220.778 109.937 220.752 109.965C220.726 109.992 220.694 110.013 220.66 110.028C220.625 110.043 220.588 110.05 220.55 110.05H207.3V116.26H219C219.037 116.259 219.074 116.265 219.109 116.279C219.144 116.292 219.175 116.313 219.201 116.339C219.228 116.365 219.248 116.397 219.262 116.431C219.275 116.466 219.282 116.503 219.28 116.54V123.27C219.28 123.344 219.251 123.416 219.198 123.468C219.146 123.521 219.074 123.55 219 123.55H207.3V129.29H221.05C221.087 129.289 221.124 129.295 221.159 129.309C221.194 129.322 221.225 129.343 221.251 129.369C221.278 129.395 221.298 129.427 221.312 129.461C221.325 129.496 221.332 129.533 221.33 129.57V135.82H235.24C231.997 134.526 229.22 132.286 227.268 129.391C225.317 126.497 224.283 123.081 224.3 119.59C224.249 115.934 225.378 112.36 227.52 109.396C229.661 106.433 232.701 104.239 236.188 103.14C239.675 102.041 243.423 102.095 246.877 103.295C250.331 104.495 253.306 106.776 255.36 109.8C255.381 109.83 255.396 109.864 255.404 109.9C255.412 109.936 255.412 109.973 255.406 110.01C255.399 110.046 255.386 110.08 255.366 110.111C255.346 110.142 255.32 110.169 255.29 110.19L249.47 114.19C249.44 114.214 249.404 114.231 249.367 114.239C249.329 114.248 249.29 114.249 249.252 114.241C249.214 114.234 249.178 114.218 249.147 114.195C249.115 114.173 249.089 114.144 249.07 114.11C248.31 112.817 247.219 111.75 245.91 111.019C244.6 110.288 243.12 109.919 241.62 109.95C236.37 109.95 232.41 114.07 232.41 119.54C232.41 125.01 236.35 129.28 241.57 129.28C243.077 129.316 244.567 128.949 245.885 128.218C247.203 127.487 248.303 126.418 249.07 125.12C249.09 125.088 249.116 125.059 249.147 125.037C249.178 125.015 249.213 124.999 249.25 124.99C249.321 124.966 249.399 124.966 249.47 124.99L255.29 129.05C255.321 129.07 255.348 129.096 255.369 129.127C255.39 129.158 255.404 129.193 255.41 129.23C255.417 129.266 255.416 129.304 255.407 129.34C255.399 129.376 255.383 129.41 255.36 129.44C253.409 132.288 250.641 134.478 247.42 135.72H259.71V103.23C259.71 103.192 259.718 103.154 259.732 103.119C259.747 103.084 259.768 103.052 259.795 103.025C259.822 102.998 259.854 102.977 259.889 102.962C259.924 102.948 259.962 102.94 260 102.94H267.49C267.565 102.943 267.637 102.974 267.689 103.028C267.741 103.083 267.77 103.155 267.77 103.23V115.53L275.77 103.07C275.796 103.03 275.831 102.997 275.873 102.974C275.915 102.951 275.962 102.939 276.01 102.94H285C285.052 102.94 285.102 102.953 285.146 102.98C285.19 103.006 285.226 103.044 285.25 103.09C285.278 103.133 285.292 103.184 285.292 103.235C285.292 103.286 285.278 103.337 285.25 103.38L274.43 119.49L286.97 135.82H298.47C298.512 135.812 298.555 135.814 298.596 135.824C298.638 135.835 298.676 135.855 298.709 135.882C298.742 135.909 298.768 135.943 298.786 135.982C298.804 136.02 298.814 136.062 298.814 136.105C298.814 136.148 298.804 136.19 298.786 136.228C298.768 136.267 298.742 136.301 298.709 136.328C298.676 136.355 298.638 136.375 298.596 136.386C298.555 136.396 298.512 136.398 298.47 136.39H286.77C286.726 136.39 286.683 136.38 286.643 136.361C286.603 136.342 286.568 136.314 286.54 136.28L273.8 119.67C273.767 119.622 273.749 119.564 273.749 119.505C273.749 119.446 273.767 119.389 273.8 119.34L284.43 103.51H276.19L267.74 116.65C267.705 116.7 267.655 116.737 267.598 116.757C267.54 116.776 267.478 116.778 267.42 116.76C267.361 116.744 267.309 116.709 267.273 116.66C267.237 116.611 267.218 116.551 267.22 116.49V103.49H260.29V136.09C260.288 136.164 260.257 136.233 260.205 136.285C260.153 136.337 260.084 136.368 260.01 136.37L245.65 136.39Z" fill="#F69E0F"/>
    <path d="M245.65 136.39C245.581 136.388 245.516 136.362 245.464 136.316C245.413 136.271 245.38 136.208 245.37 136.14C245.362 136.073 245.378 136.006 245.414 135.949C245.451 135.893 245.506 135.85 245.57 135.83C249.274 134.836 252.514 132.579 254.73 129.45L249.38 125.72C248.549 127.031 247.393 128.105 246.025 128.837C244.657 129.57 243.122 129.936 241.57 129.9C236.03 129.9 231.84 125.47 231.84 119.59C231.84 113.71 236.05 109.43 241.62 109.43C243.165 109.395 244.692 109.762 246.052 110.495C247.413 111.227 248.559 112.301 249.38 113.61L254.73 109.88C252.704 107.016 249.815 104.875 246.486 103.771C243.156 102.666 239.561 102.655 236.225 103.74C232.889 104.825 229.987 106.948 227.944 109.8C225.901 112.652 224.824 116.082 224.87 119.59C224.844 123.26 226.023 126.836 228.228 129.77C230.432 132.704 233.538 134.833 237.07 135.83C237.134 135.85 237.189 135.893 237.226 135.949C237.262 136.006 237.278 136.073 237.27 136.14C237.263 136.209 237.23 136.273 237.178 136.319C237.127 136.365 237.059 136.39 236.99 136.39H221.05C220.977 136.388 220.907 136.357 220.855 136.305C220.803 136.253 220.773 136.184 220.77 136.11V129.85H207C206.927 129.848 206.857 129.817 206.805 129.765C206.753 129.713 206.723 129.644 206.72 129.57V123.27C206.723 123.198 206.753 123.129 206.806 123.078C206.858 123.028 206.928 123 207 123H218.65V116.83H207C206.926 116.83 206.855 116.801 206.802 116.748C206.75 116.696 206.72 116.624 206.72 116.55V109.77C206.723 109.697 206.753 109.627 206.805 109.575C206.857 109.523 206.927 109.493 207 109.49H220.32V103.49H199.81V136.09C199.81 136.164 199.781 136.236 199.728 136.288C199.676 136.341 199.604 136.37 199.53 136.37H191.94C191.867 136.368 191.797 136.337 191.745 136.285C191.693 136.233 191.663 136.164 191.66 136.09V103.49H184.73V116.4C184.73 116.474 184.701 116.546 184.648 116.598C184.596 116.651 184.524 116.68 184.45 116.68H173.62C173.545 116.68 173.473 116.651 173.419 116.599C173.364 116.546 173.333 116.475 173.33 116.4V103.51H166.41V136.11C166.406 136.155 166.392 136.198 166.369 136.237C166.346 136.276 166.315 136.309 166.278 136.334C166.24 136.359 166.198 136.375 166.153 136.381C166.108 136.388 166.063 136.384 166.02 136.37H151.85C151.782 136.373 151.715 136.35 151.663 136.305C151.611 136.261 151.578 136.198 151.57 136.13C151.558 136.063 151.572 135.993 151.609 135.936C151.646 135.878 151.704 135.837 151.77 135.82C155.445 134.811 158.657 132.56 160.86 129.45L155.51 125.72C154.679 127.031 153.523 128.105 152.155 128.837C150.787 129.57 149.252 129.936 147.7 129.9C142.15 129.9 137.97 125.47 137.97 119.59C137.97 113.71 142.17 109.43 147.75 109.43C149.295 109.397 150.821 109.765 152.181 110.497C153.541 111.23 154.688 112.302 155.51 113.61L160.86 109.88C158.831 107.023 155.942 104.888 152.614 103.788C149.287 102.688 145.695 102.679 142.362 103.762C139.029 104.846 136.13 106.966 134.086 109.813C132.042 112.66 130.961 116.086 131 119.59C131.01 123.128 132.129 126.575 134.199 129.445C136.269 132.314 139.186 134.464 142.54 135.59C142.596 135.607 142.644 135.642 142.678 135.689C142.712 135.735 142.731 135.792 142.73 135.85V136.06C142.73 136.134 142.701 136.206 142.648 136.258C142.596 136.311 142.524 136.34 142.45 136.34H125.33C125.264 136.328 125.204 136.292 125.161 136.24C125.117 136.188 125.094 136.123 125.094 136.055C125.094 135.987 125.117 135.922 125.161 135.87C125.204 135.818 125.264 135.783 125.33 135.77H141.33C138.099 134.459 135.333 132.215 133.384 129.324C131.435 126.433 130.393 123.027 130.39 119.54C130.339 115.884 131.468 112.31 133.61 109.346C135.751 106.383 138.791 104.189 142.278 103.09C145.765 101.991 149.513 102.045 152.967 103.245C156.421 104.445 159.396 106.726 161.45 109.75C161.488 109.812 161.502 109.886 161.489 109.958C161.476 110.03 161.437 110.095 161.38 110.14L155.55 114.14C155.521 114.163 155.487 114.179 155.451 114.188C155.414 114.197 155.377 114.197 155.34 114.19C155.262 114.173 155.194 114.126 155.15 114.06C154.392 112.767 153.303 111.7 151.995 110.969C150.688 110.238 149.208 109.869 147.71 109.9C142.46 109.9 138.49 114.02 138.49 119.49C138.49 124.96 142.44 129.23 147.66 129.23C149.166 129.266 150.654 128.9 151.971 128.168C153.287 127.437 154.385 126.367 155.15 125.07C155.17 125.038 155.197 125.01 155.228 124.988C155.26 124.966 155.295 124.951 155.333 124.944C155.37 124.936 155.409 124.936 155.446 124.944C155.484 124.952 155.519 124.968 155.55 124.99L161.38 129.05C161.439 129.094 161.479 129.159 161.492 129.231C161.505 129.304 161.49 129.378 161.45 129.44C159.51 132.276 156.761 134.461 153.56 135.71H165.8V103.23C165.8 103.155 165.829 103.083 165.882 103.028C165.934 102.974 166.005 102.943 166.08 102.94H173.58C173.655 102.943 173.727 102.974 173.779 103.028C173.831 103.083 173.86 103.155 173.86 103.23V116.11H184.13V103.23C184.129 103.192 184.135 103.155 184.149 103.12C184.162 103.085 184.182 103.053 184.209 103.026C184.235 102.998 184.266 102.977 184.301 102.962C184.335 102.948 184.373 102.94 184.41 102.94H191.9C191.938 102.94 191.975 102.948 192.01 102.962C192.044 102.977 192.076 102.998 192.102 103.026C192.128 103.053 192.148 103.085 192.162 103.12C192.175 103.155 192.181 103.192 192.18 103.23V135.82H199.18V103.23C199.18 103.155 199.209 103.083 199.261 103.028C199.314 102.974 199.385 102.943 199.46 102.94H220.55C220.588 102.94 220.625 102.948 220.66 102.962C220.694 102.977 220.726 102.998 220.752 103.026C220.778 103.053 220.798 103.085 220.812 103.12C220.825 103.155 220.831 103.192 220.83 103.23V109.76C220.831 109.798 220.825 109.835 220.812 109.87C220.798 109.905 220.778 109.937 220.752 109.965C220.726 109.992 220.694 110.013 220.66 110.028C220.625 110.043 220.588 110.05 220.55 110.05H207.3V116.26H219C219.037 116.259 219.074 116.265 219.109 116.279C219.144 116.292 219.175 116.313 219.201 116.339C219.228 116.365 219.248 116.397 219.262 116.431C219.275 116.466 219.282 116.503 219.28 116.54V123.27C219.28 123.344 219.251 123.416 219.198 123.468C219.146 123.521 219.074 123.55 219 123.55H207.3V129.29H221.05C221.087 129.289 221.124 129.295 221.159 129.309C221.194 129.322 221.225 129.343 221.251 129.369C221.278 129.395 221.298 129.427 221.312 129.461C221.325 129.496 221.332 129.533 221.33 129.57V135.82H235.24C231.997 134.526 229.22 132.286 227.268 129.391C225.317 126.497 224.283 123.081 224.3 119.59C224.249 115.934 225.378 112.36 227.52 109.396C229.661 106.433 232.701 104.239 236.188 103.14C239.675 102.041 243.423 102.095 246.877 103.295C250.331 104.495 253.306 106.776 255.36 109.8C255.381 109.83 255.396 109.864 255.404 109.9C255.412 109.936 255.412 109.973 255.406 110.01C255.399 110.046 255.386 110.08 255.366 110.111C255.346 110.142 255.32 110.169 255.29 110.19L249.47 114.19C249.44 114.214 249.404 114.231 249.367 114.239C249.329 114.248 249.29 114.249 249.252 114.241C249.214 114.234 249.178 114.218 249.147 114.195C249.115 114.173 249.089 114.144 249.07 114.11C248.31 112.817 247.219 111.75 245.91 111.019C244.6 110.288 243.12 109.919 241.62 109.95C236.37 109.95 232.41 114.07 232.41 119.54C232.41 125.01 236.35 129.28 241.57 129.28C243.077 129.316 244.567 128.949 245.885 128.218C247.203 127.487 248.303 126.418 249.07 125.12C249.09 125.088 249.116 125.059 249.147 125.037C249.178 125.015 249.213 124.999 249.25 124.99C249.321 124.966 249.399 124.966 249.47 124.99L255.29 129.05C255.321 129.07 255.348 129.096 255.369 129.127C255.39 129.158 255.404 129.193 255.41 129.23C255.417 129.266 255.416 129.304 255.407 129.34C255.399 129.376 255.383 129.41 255.36 129.44C253.409 132.288 250.641 134.478 247.42 135.72H259.71V103.23C259.71 103.192 259.718 103.154 259.732 103.119C259.747 103.084 259.768 103.052 259.795 103.025C259.822 102.998 259.854 102.977 259.889 102.962C259.924 102.948 259.962 102.94 260 102.94H267.49C267.565 102.943 267.637 102.974 267.689 103.028C267.741 103.083 267.77 103.155 267.77 103.23V115.53L275.77 103.07C275.796 103.03 275.831 102.997 275.873 102.974C275.915 102.951 275.962 102.939 276.01 102.94H285C285.052 102.94 285.102 102.953 285.146 102.98C285.19 103.006 285.226 103.044 285.25 103.09C285.278 103.133 285.292 103.184 285.292 103.235C285.292 103.286 285.278 103.337 285.25 103.38L274.43 119.49L286.97 135.82H298.47C298.512 135.812 298.555 135.814 298.596 135.824C298.638 135.835 298.676 135.855 298.709 135.882C298.742 135.909 298.768 135.943 298.786 135.982C298.804 136.02 298.814 136.062 298.814 136.105C298.814 136.148 298.804 136.19 298.786 136.228C298.768 136.267 298.742 136.301 298.709 136.328C298.676 136.355 298.638 136.375 298.596 136.386C298.555 136.396 298.512 136.398 298.47 136.39H286.77C286.726 136.39 286.683 136.38 286.643 136.361C286.603 136.342 286.568 136.314 286.54 136.28L273.8 119.67C273.767 119.622 273.749 119.564 273.749 119.505C273.749 119.446 273.767 119.389 273.8 119.34L284.43 103.51H276.19L267.74 116.65C267.705 116.7 267.655 116.737 267.598 116.757C267.54 116.776 267.478 116.778 267.42 116.76C267.361 116.744 267.309 116.709 267.273 116.66C267.237 116.611 267.218 116.551 267.22 116.49V103.49H260.29V136.09C260.288 136.164 260.257 136.233 260.205 136.285C260.153 136.337 260.084 136.368 260.01 136.37L245.65 136.39Z" stroke="#F69E0F" stroke-width="0.8" mask="url(#path-52-outside-3_933_4273)"/>
    <path d="M112.95 127.09C112.41 126.44 111.94 126.36 111.63 126.44C110.87 126.63 110.33 127.81 109.94 130.14L112.95 127.09ZM112.95 127.09C113.281 127.521 113.513 128.019 113.63 128.55L112.95 127.09ZM107.341 139.554L107.352 139.557L107.363 139.558C107.458 139.571 107.554 139.572 107.649 139.559C107.835 139.548 108.016 139.499 108.183 139.416C108.35 139.332 108.499 139.216 108.619 139.073C108.869 138.808 109.049 138.484 109.143 138.131L109.144 138.13C109.812 135.536 110.347 132.91 110.747 130.262C110.981 128.896 111.232 128.123 111.448 127.689C111.663 127.255 111.829 127.187 111.882 127.173C111.916 127.164 111.991 127.176 112.111 127.268C112.222 127.352 112.327 127.469 112.403 127.564C112.666 127.903 112.848 128.299 112.934 128.72L112.934 128.72L112.935 128.724L114.055 133.644L114.055 133.644L114.057 133.653C114.462 135.133 115.634 135.864 116.691 136.222C117.747 136.58 118.723 136.58 118.81 136.58H136.99C137.117 136.58 137.239 136.529 137.329 136.439C137.419 136.349 137.47 136.227 137.47 136.1C137.47 135.973 137.419 135.851 137.329 135.761C137.239 135.671 137.117 135.62 136.99 135.62H118.741L118.74 135.62L118.734 135.62L118.708 135.619C118.685 135.618 118.651 135.617 118.606 135.614C118.516 135.609 118.387 135.599 118.229 135.58C117.913 135.542 117.486 135.468 117.042 135.323C116.147 135.033 115.229 134.477 114.934 133.411L113.825 128.507C113.825 128.507 113.825 128.506 113.825 128.506C113.702 127.947 113.457 127.422 113.109 126.968L113.109 126.968L113.104 126.962C112.531 126.272 111.987 126.142 111.581 126.246C111.112 126.364 110.751 126.776 110.464 127.404C110.175 128.038 109.939 128.936 109.743 130.107L109.742 130.11C109.344 132.724 108.815 135.317 108.157 137.878C108.1 138.078 107.996 138.261 107.854 138.413L107.847 138.421L107.841 138.429C107.802 138.48 107.75 138.519 107.691 138.543C107.634 138.566 107.572 138.573 107.511 138.564C107.435 138.542 107.261 138.452 107.024 138.087C106.78 137.712 106.485 137.066 106.172 135.965L106.172 135.965C104.937 131.682 104.632 130.883 104.544 130.653C104.533 130.623 104.525 130.603 104.52 130.587C104.492 130.503 104.355 130.126 104.109 129.766C103.869 129.415 103.485 129.02 102.95 129.02L102.947 129.02C102.487 129.026 102.093 129.321 101.748 129.826C101.401 130.331 101.077 131.082 100.76 132.087L99.671 135.224L99.6704 135.226C99.5373 135.621 99.2666 135.955 98.9077 136.168C98.5488 136.38 98.1257 136.457 97.7152 136.383L97.6977 136.38H97.68H97.5254C96.2996 135.933 95.0081 135.694 93.7036 135.67V135.67H93.7H68C67.8727 135.67 67.7506 135.721 67.6606 135.811C67.5705 135.901 67.52 136.023 67.52 136.15C67.52 136.277 67.5705 136.399 67.6606 136.489C67.7506 136.579 67.8727 136.63 68 136.63H93.7275C94.9406 136.66 96.1409 136.885 97.2819 137.298L97.2818 137.298L97.2917 137.301L97.5217 137.371L97.5309 137.374L97.5403 137.376C98.1831 137.506 98.8512 137.395 99.4174 137.064C99.9829 136.734 100.407 136.207 100.61 135.584C100.61 135.583 100.61 135.582 100.61 135.582L101.709 132.446L101.709 132.446L101.711 132.44C102.078 131.269 102.4 130.656 102.637 130.34C102.755 130.183 102.849 130.105 102.91 130.067C102.941 130.048 102.964 130.039 102.978 130.034C102.993 130.03 103 130.03 103 130.03H103.008L103.016 130.029C103.038 130.028 103.08 130.035 103.148 130.089C103.214 130.142 103.285 130.224 103.356 130.329C103.497 130.537 103.616 130.799 103.682 130.979L103.686 130.989L103.691 130.999C103.691 130.999 103.691 130.999 103.692 131C103.698 131.017 103.769 131.183 103.987 131.868C104.221 132.603 104.623 133.926 105.298 136.285L105.298 136.286C105.58 137.253 105.881 138.01 106.209 138.551C106.535 139.089 106.906 139.445 107.341 139.554Z" fill="#F69E0F" stroke="#F69E0F" stroke-width="0.4"/>
</svg>
